<?xml version="1.0" encoding="utf-8"?>
<svg version="1.1" xmlns:xlink="http://www.w3.org/1999/xlink" width="11px" height="15px" xmlns="http://www.w3.org/2000/svg">
  <g transform="matrix(1 0 0 1 -16 -10 )">
    <path d="M 10.914077499999998 5.170967359375  C 10.914077499999998 4.942803049375  10.823330331249998 4.72371345625  10.662002031249997 4.5623851562499995  L 7.136546546875 1.0333285937499999  C 6.97410191265625 0.87142412125  6.75371593140625 0.7806769525  6.524363265625 0.781253125  L 6.3046975 0.781253125  L 6.3046975 4.814460625  C 6.3046975 5.13052725203125  6.5648033729687505 5.390633125  6.88087 5.390633125  L 10.914077499999998 5.390633125  L 10.914077499999998 5.170967359375  Z M 7.4570425 13.889177499999999  C 7.4570425 13.652118527031247  7.261972097968752 13.457048124999998  7.024913124999999 13.457048124999998  L 0.975101875 13.457048124999998  C 0.7380429020312498 13.457048124999998  0.5429724999999994 13.652118527031247  0.5429724999999994 13.889177499999999  L 0.5429724999999994 14.177263749999998  C 0.5429724999999994 14.41432272296875  0.7380429020312498 14.609393124999999  0.975101875 14.609393124999999  L 7.024913124999999 14.609393124999999  C 7.261972097968752 14.609393124999999  7.4570425 14.41432272296875  7.4570425 14.177263749999998  L 7.4570425 13.889177499999999  Z M 7.4570425 11.584487499999998  C 7.4570425 11.347428527031248  7.261972097968752 11.152358125  7.024913124999999 11.152358125  L 0.975101875 11.152358125  C 0.7380429020312498 11.152358125  0.5429724999999994 11.347428527031248  0.5429724999999994 11.584487499999998  L 0.5429724999999994 11.872573749999999  C 0.5429724999999994 12.10963272296875  0.7380429020312498 12.304703125  0.975101875 12.304703125  L 7.024913124999999 12.304703125  C 7.261972097968752 12.304703125  7.4570425 12.10963272296875  7.4570425 11.872573749999999  L 7.4570425 11.584487499999998  Z M 7.4570425 9.279797499999999  C 7.4570425 9.042738527031249  7.261972097968752 8.847668124999998  7.024913124999999 8.847668124999998  L 0.975101875 8.847668124999998  C 0.7380429020312498 8.847668124999998  0.5429724999999994 9.042738527031249  0.5429724999999994 9.279797499999999  L 0.5429724999999994 9.567883749999998  C 0.5429724999999994 9.804942722968748  0.7380429020312498 10.000013124999999  0.975101875 10.000013124999999  L 7.024913124999999 10.000013124999999  C 7.261972097968752 10.000013124999999  7.4570425 9.804942722968748  7.4570425 9.567883749999998  L 7.4570425 9.279797499999999  Z " fill-rule="nonzero" fill="#244278" stroke="none" transform="matrix(1 0 0 1 16 10 )" />
  </g>
</svg>