<?xml version="1.0" encoding="UTF-8" standalone="no"?>
<svg width="100%" height="100%" viewBox="0 0 128 128" version="1.1" xmlns="http://www.w3.org/2000/svg" xmlns:xlink="http://www.w3.org/1999/xlink" xml:space="preserve" xmlns:serif="http://www.serif.com/" style="fill-rule:evenodd;clip-rule:evenodd;stroke-linejoin:round;stroke-miterlimit:2;">
	<path d="M53.684,55.369C49.005,52.111 45.94,46.693 45.94,40.565C45.94,30.617 54.017,22.54 63.965,22.54C73.914,22.54 81.99,30.617 81.99,40.565C81.99,46.478 79.137,51.729 74.734,55.017C75.558,57.413 76.725,60.365 77.472,62.637C83.347,80.502 89.215,98.369 95.047,116.248L95.364,117.223C95.946,119.276 95.454,119.751 94.988,120.525C93.959,122.233 92.08,123.051 89.817,122.061L64.347,109.724L38.477,122.255C36.587,123.081 36.221,122.706 35.445,122.442C33.464,121.768 32.232,119.88 32.93,117.416C39.531,97.15 46.985,75.675 53.684,55.369ZM46.71,101.182C45.602,104.456 44.512,107.717 43.454,110.955L55.171,105.28L46.71,101.182ZM81.751,101.294L73.522,105.28L84.84,110.762C83.814,107.625 82.784,104.466 81.751,101.294ZM67.694,58.204C66.49,58.457 65.243,58.59 63.965,58.59C63.08,58.59 62.209,58.527 61.358,58.403C57.535,69.96 53.355,81.806 49.315,93.554L64.347,100.835L79.251,93.616C75.401,81.787 71.523,69.851 67.694,58.204ZM115.503,16.799C116.66,16.799 117.738,17.459 118.219,18.512C121.263,25.192 123,32.589 123,40.399C123,48.21 121.261,55.607 118.214,62.287C117.734,63.339 116.654,64 115.498,64L111.95,64C109.718,64 108.331,61.632 109.386,59.663C111.187,56.304 112.539,52.684 113.306,48.864C115.339,38.755 113.624,29.138 109.336,21.086C108.296,19.134 109.712,16.8 111.921,16.799L115.503,16.799ZM16.056,16.799C18.269,16.8 19.668,19.145 18.628,21.103C15.57,26.864 13.825,33.428 13.825,40.399C13.825,47.376 15.588,53.931 18.662,59.689C19.705,61.649 18.308,63.998 16.091,63.998L12.612,63.998C11.469,63.998 10.402,63.351 9.918,62.312C7.015,56.082 5.256,49.251 5.027,42.081C4.758,33.653 6.515,25.673 9.771,18.516C10.25,17.461 11.331,16.799 12.487,16.799L16.056,16.799ZM36.098,28.599C38.128,28.6 39.531,30.596 38.836,32.504C37.927,35.008 37.444,37.663 37.444,40.399C37.444,43.136 37.927,45.791 38.836,48.294C39.529,50.203 38.126,52.199 36.098,52.199L32.829,52.199C31.537,52.199 30.347,51.37 29.99,50.127C29.086,46.998 28.599,43.74 28.599,40.399C28.599,37.058 29.086,33.801 29.988,30.67C30.347,29.427 31.536,28.599 32.829,28.599L36.098,28.599ZM95.17,28.599C96.463,28.599 97.652,29.427 98.01,30.672C98.913,33.801 99.4,37.058 99.4,40.399C99.4,43.74 98.915,46.998 98.012,50.127C97.652,51.372 96.463,52.199 95.17,52.199L91.901,52.199C89.871,52.199 88.468,50.203 89.161,48.294C90.07,45.791 90.554,43.136 90.554,40.399C90.554,37.663 90.07,35.008 89.161,32.504C88.47,30.596 89.871,28.6 91.901,28.599L95.17,28.599ZM64.079,29.342C69.902,29.342 74.63,34.069 74.63,39.893C74.63,45.716 69.902,50.443 64.079,50.443C58.256,50.443 53.528,45.716 53.528,39.893C53.528,34.069 58.256,29.342 64.079,29.342Z" style="fill: #fff;" />
</svg>
