<?xml version="1.0" encoding="UTF-8" standalone="no"?>
<svg width="100%" height="100%" viewBox="0 0 128 128" version="1.1" xmlns="http://www.w3.org/2000/svg" xmlns:xlink="http://www.w3.org/1999/xlink" xml:space="preserve" xmlns:serif="http://www.serif.com/" style="fill-rule:evenodd;clip-rule:evenodd;stroke-linejoin:round;stroke-miterlimit:2;">
	<g transform="matrix(0.184375,0,0,0.184375,5,16.8001)">
		<path d="M528,64C530.485,63.994 532.935,63.416 535.16,62.31L599.16,30.31C604.57,27.603 608.001,22.05 608.001,16C608.001,7.222 600.778,-0.001 592,-0.001C589.514,-0.001 587.063,0.578 584.84,1.69L520.84,33.69C515.429,36.396 511.997,41.95 511.997,48C511.997,56.777 519.22,64 527.997,64C527.998,64 527.999,64 528,64ZM80,160L16,160C7.223,160 0,167.223 0,176C0,184.777 7.223,192 16,192L80,192C88.777,192 96,184.777 96,176C96,167.223 88.777,160 80,160ZM40.84,30.31L104.84,62.31C107.065,63.416 109.515,63.994 112,64C112.001,64 112.002,64 112.003,64C120.78,64 128.003,56.777 128.003,48C128.003,41.95 124.571,36.396 119.16,33.69L55.16,1.69C52.937,0.578 50.486,-0.001 48,-0.001C39.222,-0.001 31.999,7.222 31.999,16C31.999,22.05 35.43,27.603 40.84,30.31ZM624,160L560,160C551.223,160 544,167.223 544,176C544,184.777 551.223,192 560,192L624,192C632.777,192 640,184.777 640,176C640,167.223 632.777,160 624,160ZM320,480C302.445,480 288,465.555 288,448L256,448C256,483.109 284.891,512 320,512C355.109,512 384,483.109 384,448L352,448C352,465.555 337.555,480 320,480ZM480,185.91C480,106.31 416.63,41.41 336,33.55L336,16C336,7.223 328.777,0 320,0C311.223,0 304,7.223 304,16L304,33.56C223.34,41.41 160,106.31 160,185.91C160,280.31 138.59,308.19 110.65,334.81C96.725,347.909 92.246,368.325 99.41,386.05C106.683,404.215 124.434,416.138 144,416L496,416C515.59,416.145 533.361,404.196 540.62,386C547.763,368.28 543.287,347.881 529.38,334.78C501.41,308.19 480,280.33 480,185.91ZM496,384L144,384C129.78,384 122.66,367.53 132.69,358C167.53,324.8 192,287.66 192,185.91C192,118.53 249.22,64 320,64C390.78,64 448,118.52 448,185.91C448,287.25 472.22,324.59 507.28,357.98C517.38,367.56 510.16,384 496,384Z" style="fill-rule:nonzero;" />
	</g>
</svg>
