<?xml version="1.0" encoding="UTF-8" standalone="no"?>
<!DOCTYPE svg PUBLIC "-//W3C//DTD SVG 1.1//EN" "http://www.w3.org/Graphics/SVG/1.1/DTD/svg11.dtd">
<svg width="100%" height="100%" viewBox="0 0 128 128" version="1.1" xmlns="http://www.w3.org/2000/svg" xmlns:xlink="http://www.w3.org/1999/xlink" xml:space="preserve" xmlns:serif="http://www.serif.com/" style="fill-rule:evenodd;clip-rule:evenodd;stroke-linejoin:round;stroke-miterlimit:2;">
    <path d="M104.563,19.75L93.5,19.75L93.5,7.766C93.5,6.245 92.255,5 90.734,5L88.891,5C87.37,5 86.125,6.245 86.125,7.766L86.125,19.75L41.875,19.75L41.875,7.766C41.875,6.245 40.63,5 39.109,5L37.266,5C35.745,5 34.5,6.245 34.5,7.766L34.5,19.75L23.438,19.75C17.33,19.75 12.375,24.705 12.375,30.813L12.375,111.938C12.375,118.045 17.33,123 23.438,123L104.563,123C110.67,123 115.625,118.045 115.625,111.938L115.625,30.813C115.625,24.705 110.67,19.75 104.563,19.75ZM23.438,27.125L104.563,27.125C106.591,27.125 108.25,28.784 108.25,30.813L108.25,41.875L19.75,41.875L19.75,30.813C19.75,28.784 21.409,27.125 23.438,27.125ZM104.563,115.625L23.438,115.625C21.409,115.625 19.75,113.966 19.75,111.938L19.75,49.25L108.25,49.25L108.25,111.938C108.25,113.966 106.591,115.625 104.563,115.625ZM46.484,78.75L37.266,78.75C35.745,78.75 34.5,77.505 34.5,75.984L34.5,66.766C34.5,65.245 35.745,64 37.266,64L46.484,64C48.005,64 49.25,65.245 49.25,66.766L49.25,75.984C49.25,77.505 48.005,78.75 46.484,78.75ZM68.609,78.75L59.391,78.75C57.87,78.75 56.625,77.505 56.625,75.984L56.625,66.766C56.625,65.245 57.87,64 59.391,64L68.609,64C70.13,64 71.375,65.245 71.375,66.766L71.375,75.984C71.375,77.505 70.13,78.75 68.609,78.75ZM90.734,78.75L81.516,78.75C79.995,78.75 78.75,77.505 78.75,75.984L78.75,66.766C78.75,65.245 79.995,64 81.516,64L90.734,64C92.255,64 93.5,65.245 93.5,66.766L93.5,75.984C93.5,77.505 92.255,78.75 90.734,78.75ZM68.609,100.875L59.391,100.875C57.87,100.875 56.625,99.63 56.625,98.109L56.625,88.891C56.625,87.37 57.87,86.125 59.391,86.125L68.609,86.125C70.13,86.125 71.375,87.37 71.375,88.891L71.375,98.109C71.375,99.63 70.13,100.875 68.609,100.875ZM46.484,100.875L37.266,100.875C35.745,100.875 34.5,99.63 34.5,98.109L34.5,88.891C34.5,87.37 35.745,86.125 37.266,86.125L46.484,86.125C48.005,86.125 49.25,87.37 49.25,88.891L49.25,98.109C49.25,99.63 48.005,100.875 46.484,100.875ZM90.734,100.875L81.516,100.875C79.995,100.875 78.75,99.63 78.75,98.109L78.75,88.891C78.75,87.37 79.995,86.125 81.516,86.125L90.734,86.125C92.255,86.125 93.5,87.37 93.5,88.891L93.5,98.109C93.5,99.63 92.255,100.875 90.734,100.875Z" style="fill-rule:nonzero;"/>
</svg>
