<?xml version="1.0" encoding="UTF-8" standalone="no"?>
<!DOCTYPE svg PUBLIC "-//W3C//DTD SVG 1.1//EN" "http://www.w3.org/Graphics/SVG/1.1/DTD/svg11.dtd">
<svg width="100%" height="100%" viewBox="0 0 128 128" version="1.1" xmlns="http://www.w3.org/2000/svg" xmlns:xlink="http://www.w3.org/1999/xlink" xml:space="preserve" xmlns:serif="http://www.serif.com/" style="fill-rule:evenodd;clip-rule:evenodd;stroke-linejoin:round;stroke-miterlimit:2;">
    <g transform="matrix(0.184375,0,0,0.184375,5,16.8)">
        <g id="GRID">
            <path d="M544,224C499.8,224 464,259.8 464,304C464,348.2 499.8,384 544,384C588.2,384 624,348.2 624,304C624,259.8 588.2,224 544,224ZM544,352C517.5,352 496,330.5 496,304C496,277.5 517.5,256 544,256C570.5,256 592,277.5 592,304C592,330.5 570.5,352 544,352ZM240,304C240,348.2 275.8,384 320,384C364.2,384 400,348.2 400,304C400,259.8 364.2,224 320,224C275.8,224 240,259.8 240,304ZM368,304C368,330.5 346.5,352 320,352C293.5,352 272,330.5 272,304C272,277.5 293.5,256 320,256C346.5,256 368,277.5 368,304ZM96,384C140.2,384 176,348.2 176,304C176,259.8 140.2,224 96,224C51.8,224 16,259.8 16,304C16,348.2 51.8,384 96,384ZM96,256C122.5,256 144,277.5 144,304C144,330.5 122.5,352 96,352C69.5,352 48,330.5 48,304C48,277.5 69.5,256 96,256ZM564,416L524,416C482.1,416 448,451.9 448,496C448,504.8 455.2,512 464,512C472.8,512 480,504.8 480,496C480,469.5 499.8,448 524,448L564,448C588.2,448 608,469.5 608,496C608,504.8 615.2,512 624,512C632.8,512 640,504.8 640,496C640,451.9 605.9,416 564,416ZM116,416L76,416C34.1,416 0,451.9 0,496C0,504.8 7.2,512 16,512C24.8,512 32,504.8 32,496C32,469.5 51.8,448 76,448L116,448C140.2,448 160,469.5 160,496C160,504.8 167.2,512 176,512C184.8,512 192,504.8 192,496C192,451.9 157.9,416 116,416ZM340,416L300,416C258.1,416 224,451.9 224,496C224,504.8 231.2,512 240,512C248.8,512 256,504.8 256,496C256,469.5 275.8,448 300,448L340,448C364.2,448 384,469.5 384,496C384,504.8 391.2,512 400,512C408.8,512 416,504.8 416,496C416,451.9 381.9,416 340,416ZM64,48C64,39.17 71.19,32 80,32L560,32C568.81,32 576,39.17 576,48L576,197.22C587.51,200.68 598.37,205.58 608,212.33L608,48C608,21.53 586.47,0 560,0L80,0C53.53,0 32,21.53 32,48L32,212.33C41.63,205.58 52.49,200.69 64,197.22L64,48Z" style="fill-rule:nonzero;"/>
        </g>
    </g>
</svg>
