<?xml version="1.0" encoding="UTF-8" standalone="no"?><!DOCTYPE svg PUBLIC "-//W3C//DTD SVG 1.1//EN" "http://www.w3.org/Graphics/SVG/1.1/DTD/svg11.dtd"><svg width="100%" height="100%" viewBox="0 0 128 128" version="1.1" xmlns="http://www.w3.org/2000/svg" xmlns:xlink="http://www.w3.org/1999/xlink" xml:space="preserve" xmlns:serif="http://www.serif.com/" style="fill-rule:evenodd;clip-rule:evenodd;stroke-linejoin:round;stroke-miterlimit:2;"><path d="M55.571,11.321c0,-3.484 -2.839,-6.321 -6.321,-6.321l-21.071,0c-3.482,0 -6.322,2.837 -6.322,6.321l0,21.072c0,3.485 2.84,6.321 6.322,6.321l21.071,0c3.482,0 6.321,-2.836 6.321,-6.321l0,-21.072Zm-8.428,2.108l0,16.857l-16.857,0l0,-16.857l16.857,0Zm8.428,40.035c0,-3.484 -2.839,-6.321 -6.321,-6.321l-21.071,0c-3.482,0 -6.322,2.837 -6.322,6.321l0,21.072c0,3.484 2.84,6.321 6.322,6.321l21.071,0c3.482,0 6.321,-2.837 6.321,-6.321l0,-21.072Zm-8.428,2.107l0,16.858l-16.857,0l0,-16.858l16.857,0Zm8.428,40.036c0,-3.485 -2.839,-6.321 -6.321,-6.321l-21.071,0c-3.482,0 -6.322,2.836 -6.322,6.321l0,21.072c0,3.484 2.84,6.321 6.322,6.321l21.071,0c3.482,0 6.321,-2.837 6.321,-6.321l0,-21.072Zm-8.428,2.107l0,16.857l-16.857,0l0,-16.857l16.857,0Zm59,-86.393c0,-3.484 -2.84,-6.321 -6.322,-6.321l-21.071,0c-3.482,0 -6.321,2.837 -6.321,6.321l0,21.072c0,3.485 2.839,6.321 6.321,6.321l21.071,0c3.482,0 6.322,-2.836 6.322,-6.321l0,-21.072Zm-8.429,2.108l0,16.857l-16.857,0l0,-16.857l16.857,0Zm8.429,40.035c0,-3.484 -2.84,-6.321 -6.322,-6.321l-21.071,0c-3.482,0 -6.321,2.837 -6.321,6.321l0,21.072c0,3.484 2.839,6.321 6.321,6.321l21.071,0c3.482,0 6.322,-2.837 6.322,-6.321l0,-21.072Zm-8.429,2.107l0,16.858l-16.857,0l0,-16.858l16.857,0Zm8.429,40.036c0,-3.485 -2.84,-6.321 -6.322,-6.321l-21.071,0c-3.482,0 -6.321,2.836 -6.321,6.321l0,21.072c0,3.484 2.839,6.321 6.321,6.321l21.071,0c3.482,0 6.322,-2.837 6.322,-6.321l0,-21.072Zm-8.429,2.107l0,16.857l-16.857,0l0,-16.857l16.857,0Z" style="fill-rule:nonzero;"/></svg>