<?xml version="1.0" encoding="utf-8"?>
<svg version="1.1" xmlns:xlink="http://www.w3.org/1999/xlink" width="16px" height="16px" xmlns="http://www.w3.org/2000/svg">
  <g transform="matrix(1 0 0 1 -10 -10 )">
    <path d="M 15.375016 2.0078139999999998  C 15.375016 1.24409735125  14.75591864875 0.625  13.992202 0.625  L 4.773442 0.625  C 4.009725351249999 0.625  3.390628 1.24409735125  3.390628 2.0078139999999998  L 3.390628 3.390628  L 2.0078139999999998 3.390628  C 1.24409735125 3.390628  0.625 4.009725351249999  0.625 4.773442  L 0.625 13.992202  C 0.625 14.75591864875  1.24409735125 15.375016  2.0078139999999998 15.375016  L 11.226574000000001 15.375016  C 11.99029064875 15.375016  12.609388000000001 14.75591864875  12.609388000000001 13.992202  L 12.609388000000001 12.609388000000001  L 13.992202 12.609388000000001  C 14.75591864875 12.609388000000001  15.375016 11.99029064875  15.375016 11.226574000000001  L 15.375016 2.0078139999999998  Z M 11.687512 12.609388000000001  L 11.687512 13.992202  C 11.687512 14.2462940725  11.4806660725 14.453140000000001  11.226574000000001 14.453140000000001  L 2.0078139999999998 14.453140000000001  C 1.7537219275 14.453140000000001  1.5468760000000001 14.2462940725  1.5468760000000001 13.992202  L 1.5468760000000001 4.773442  C 1.5468760000000001 4.5193499275  1.7537219275 4.312504000000001  2.0078139999999998 4.312504000000001  L 3.390628 4.312504000000001  L 3.390628 11.226574000000001  C 3.390628 11.99029064875  4.009725351249999 12.609388000000001  4.773442 12.609388000000001  L 11.687512 12.609388000000001  Z M 14.453140000000001 2.0078139999999998  L 14.453140000000001 11.226574000000001  C 14.453140000000001 11.4806660725  14.2462940725 11.687512  13.992202 11.687512  L 4.773442 11.687512  C 4.5193499275 11.687512  4.312504000000001 11.4806660725  4.312504000000001 11.226574000000001  L 4.312504000000001 2.0078139999999998  C 4.312504000000001 1.7537219275  4.5193499275 1.5468760000000001  4.773442 1.5468760000000001  L 13.992202 1.5468760000000001  C 14.2462940725 1.5468760000000001  14.453140000000001 1.7537219275  14.453140000000001 2.0078139999999998  Z " fill-rule="nonzero" fill="#262626" stroke="none" transform="matrix(1 0 0 1 10 10 )" />
  </g>
</svg>