<?xml version="1.0" encoding="UTF-8" standalone="no"?>
<!DOCTYPE svg PUBLIC "-//W3C//DTD SVG 1.1//EN" "http://www.w3.org/Graphics/SVG/1.1/DTD/svg11.dtd">
<svg width="100%" height="100%" viewBox="0 0 128 128" version="1.1" xmlns="http://www.w3.org/2000/svg" xmlns:xlink="http://www.w3.org/1999/xlink" xml:space="preserve" xmlns:serif="http://www.serif.com/" style="fill-rule:evenodd;clip-rule:evenodd;stroke-linejoin:round;stroke-miterlimit:2;">
    <path d="M118.679,17.966L110.034,9.321C107.155,6.44 103.38,5 99.605,5C95.83,5 92.055,6.44 89.174,9.319L7.961,90.532L5.035,116.856C4.666,120.17 7.277,123 10.52,123C10.725,123 10.93,122.988 11.14,122.965L37.445,120.059L118.681,38.824C124.44,33.064 124.44,23.726 118.679,17.966ZM34.06,113.016L12.619,115.392L15.007,93.919L75.825,33.101L94.901,52.177L34.06,113.016ZM113.465,33.61L100.114,46.961L81.039,27.886L94.39,14.534C95.782,13.142 97.635,12.375 99.605,12.375C101.576,12.375 103.426,13.142 104.821,14.534L113.465,23.179C116.339,26.056 116.339,30.734 113.465,33.61Z" style="fill-rule:nonzero;"/>
</svg>
