<?xml version="1.0" encoding="utf-8"?>
<svg version="1.1" xmlns:xlink="http://www.w3.org/1999/xlink" width="16px" height="12px" xmlns="http://www.w3.org/2000/svg">
	<g transform="matrix(1 0 0 1 -10 -12 )">
		<path d="M 15.335 11.542625  C 15.398125 11.463625  15.385125 11.34675  15.306125 11.2835  L 1.154625 0.13974999999999982  C 1.075625 0.07662499999999994  0.95875 0.08962499999999984  0.895625 0.16862500000000002  L 0.665125 0.45687500000000014  C 0.601875 0.5358749999999999  0.614875 0.6527500000000002  0.693625 0.7160000000000002  L 14.84525 11.85975  C 14.877875 11.886  14.918625 11.90025  14.9605 11.90025  C 15.0165 11.90025  15.0695 11.87475  15.1045 11.831  L 15.335 11.542625  Z M 6.055875 3.0595  C 6.5765 2.600625  7.25225 2.312125  7.999875 2.312125  C 9.617625 2.3138750000000003  10.948375 3.6445  10.950125 5.26225  C 10.950125 5.7605  10.814125 6.223125  10.595125 6.635249999999999  L 11.18175 7.096125000000001  C 11.495125 6.555  11.687625 5.933875  11.687625 5.26225  C 11.687625 4.413375  11.390125 3.64175  10.909 3.019  C 12.197625 3.6695  13.246 4.71375  13.901375 5.99975  C 13.509625 6.760375  12.98 7.4415  12.339375 8.008625  L 12.923 8.46825  C 13.579125 7.862500000000001  14.1415 7.1485  14.55775 6.336  C 14.664625 6.124750000000001  14.664625 5.874625  14.55775 5.66325  C 13.307875 3.2245  10.8335 1.5745  7.999875 1.5745  C 6.96475 1.5739999999999998  5.9415 1.7974999999999999  5.000875 2.22975  L 6.055875 3.0595  Z M 7.92875 4.53575  L 9.402625 5.69625  C 9.450625 5.54975  9.475125 5.396625  9.475125 5.2425  C 9.475125 4.444  8.818125 3.787  8.019625 3.787  C 8.013125 3.787  8.0065 3.7871249999999996  7.999875 3.7871249999999996  C 7.976875 3.7871249999999996  7.956375 3.79275  7.93425 3.793875  C 8.023625 4.033375  8.02175 4.297625  7.92875 4.53575  Z M 5.066375 5.098125  L 4.386875 4.563125  C 4.339 4.793125  4.314 5.027375  4.31225 5.26225  C 4.31225 5.266875  4.31225 5.271625  4.31225 5.27625  C 4.31225 7.291625  5.9705 8.95  7.985875 8.95  C 8.518125 8.95  9.044125 8.83425  9.527375 8.610875  L 8.845625 8.074125  C 8.575875 8.1555  8.295875 8.212375  8.000125 8.212375  C 6.382375 8.210625  5.051625 6.880000000000001  5.04975 5.26225  C 5.04975 5.206  5.063375 5.1535  5.066375 5.098125  Z M 10.32475 9.239625  C 9.591625 9.5225  8.810125 9.6875  7.999875 9.6875  C 5.5255 9.6875  3.26425 8.274375  2.099625 5.99975  C 2.501375 5.216125  3.046625 4.55425  3.674 4.001  L 3.078 3.5315000000000003  C 2.421625 4.13725  1.8595 4.851  1.44325 5.6635  C 1.336375 5.874875  1.336375 6.124874999999999  1.44325 6.33625  C 2.692125 8.775  5.166625 10.425  7.999875 10.425  C 9.035125 10.4255  10.05825 10.202  10.999 9.76975  L 10.32475 9.239625  Z " fill-rule="nonzero" fill="#262626" stroke="none" transform="matrix(1 0 0 1 10 12 )" />
	</g>
</svg>
