<?xml version="1.0" encoding="UTF-8" standalone="no"?>
<!DOCTYPE svg PUBLIC "-//W3C//DTD SVG 1.1//EN" "http://www.w3.org/Graphics/SVG/1.1/DTD/svg11.dtd">
<svg width="100%" height="100%" viewBox="0 0 128 128" version="1.1" xmlns="http://www.w3.org/2000/svg" xmlns:xlink="http://www.w3.org/1999/xlink" xml:space="preserve" xmlns:serif="http://www.serif.com/" style="fill-rule:evenodd;clip-rule:evenodd;stroke-linejoin:round;stroke-miterlimit:2;">
    <path d="M119.75,27.581L100.419,8.25C98.344,6.175 95.533,5 92.608,5L45.56,5C39.455,5.023 34.5,9.978 34.5,16.083L34.5,71.375L6.844,71.375C5.825,71.375 5,72.2 5,73.219L5,76.906C5,77.925 5.825,78.75 6.844,78.75L64,78.75L64,90.889C64,93.419 65.47,95.625 67.847,96.644C71.287,98.13 74.042,96.273 74.963,95.401L91.493,79.702C92.788,78.473 93.502,76.826 93.502,75.065C93.502,73.304 92.79,71.654 91.5,70.43L74.956,54.721C73.048,52.924 70.253,52.444 67.849,53.481C65.473,54.5 64.002,56.703 64.002,59.236L64.002,71.375L41.875,71.375L41.875,16.083C41.875,14.055 43.534,12.375 45.562,12.375L86.134,12.375L86.134,36.36C86.134,39.425 88.6,41.875 91.665,41.875L115.63,41.875L115.63,111.94C115.63,113.968 113.97,115.627 111.942,115.627L45.56,115.627C43.532,115.627 41.873,113.968 41.873,111.94L41.873,86.125L34.5,86.125L34.5,111.94C34.5,118.045 39.455,123 45.56,123L111.94,123C118.045,123 123,118.045 123,111.94L123,35.415C123,32.49 121.825,29.656 119.75,27.581ZM71.375,61.492L85.664,75.062L71.375,88.632L71.375,61.492ZM93.507,34.516L93.507,12.511C94.152,12.672 94.728,12.995 95.212,13.479L114.544,32.811C115.028,33.295 115.351,33.871 115.512,34.516L93.507,34.516Z" style="fill-rule:nonzero;"/>
</svg>
