<?xml version="1.0" encoding="UTF-8" standalone="no"?>
<!DOCTYPE svg PUBLIC "-//W3C//DTD SVG 1.1//EN" "http://www.w3.org/Graphics/SVG/1.1/DTD/svg11.dtd">
<svg width="100%" height="100%" viewBox="0 0 128 128" version="1.1" xmlns="http://www.w3.org/2000/svg" xmlns:xlink="http://www.w3.org/1999/xlink" xml:space="preserve" xmlns:serif="http://www.serif.com/" style="fill-rule:evenodd;clip-rule:evenodd;stroke-linejoin:round;stroke-miterlimit:2;">
    <g transform="matrix(0.230469,0,0,0.230469,19.75,5)">
        <path d="M369.941,97.941L286.059,14.059C277.061,5.061 264.843,0 252.118,0L48,0C21.49,0 0,21.49 0,48L0,464C0,490.51 21.49,512 48,512L336,512C362.51,512 384,490.51 384,464L384,131.882C384,119.157 378.939,106.939 369.941,97.941ZM347.314,120.569C349.364,122.617 350.814,125.187 351.509,128L256,128L256,32.491C258.813,33.185 261.383,34.636 263.431,36.686L347.314,120.569ZM336,480L48,480C39.163,480 32,472.837 32,464L32,48C32,39.163 39.163,32 48,32L224,32L224,136C224,149.255 234.745,160 248,160L352,160L352,464C352,472.837 344.837,480 336,480ZM301.533,269.051L166.742,402.761C162.042,407.424 154.454,407.403 149.779,402.715L82.421,335.163C77.738,330.466 77.749,322.862 82.445,318.178L90.95,309.698C95.647,305.015 103.251,305.026 107.934,309.722L158.376,360.309L276.158,243.472C280.867,238.801 288.471,238.831 293.143,243.54L301.601,252.067C306.273,256.776 306.242,264.38 301.533,269.051Z" style="fill-rule:nonzero;"/>
    </g>
</svg>
