<?xml version="1.0" encoding="UTF-8" standalone="no"?>
<!DOCTYPE svg PUBLIC "-//W3C//DTD SVG 1.1//EN" "http://www.w3.org/Graphics/SVG/1.1/DTD/svg11.dtd">
<svg width="100%" height="100%" viewBox="0 0 128 128" version="1.1" xmlns="http://www.w3.org/2000/svg" xmlns:xlink="http://www.w3.org/1999/xlink" xml:space="preserve" xmlns:serif="http://www.serif.com/" style="fill-rule:evenodd;clip-rule:evenodd;stroke-linejoin:round;stroke-miterlimit:2;">
    <path d="M104.992,27.582L85.66,8.249C83.586,6.175 80.775,5 77.848,5L30.819,5C24.713,5.023 19.759,9.977 19.759,16.083L19.759,111.94C19.759,118.046 24.713,123 30.819,123L97.181,123C103.287,123 108.241,118.046 108.241,111.94L108.241,35.416C108.241,32.49 107.066,29.655 104.992,27.582ZM99.785,32.812C100.269,33.296 100.591,33.872 100.753,34.517L78.747,34.517L78.747,12.512C79.392,12.673 79.968,12.996 80.452,13.48L99.785,32.812ZM97.181,115.626L30.819,115.626C28.791,115.626 27.132,113.967 27.132,111.94L27.132,16.083C27.132,14.056 28.791,12.397 30.819,12.397L71.374,12.397L71.374,36.361C71.374,39.425 73.839,41.891 76.904,41.891L100.868,41.891L100.868,111.94C100.868,113.967 99.209,115.626 97.181,115.626ZM86.121,59.403L86.121,61.246C86.121,62.767 84.876,64.012 83.356,64.012L44.644,64.012C43.124,64.012 41.879,62.767 41.879,61.246L41.879,59.403C41.879,57.882 43.124,56.638 44.644,56.638L83.356,56.638C84.876,56.638 86.121,57.882 86.121,59.403ZM86.121,74.15L86.121,75.994C86.121,77.514 84.876,78.759 83.356,78.759L44.644,78.759C43.124,78.759 41.879,77.514 41.879,75.994L41.879,74.15C41.879,72.629 43.124,71.385 44.644,71.385L83.356,71.385C84.876,71.385 86.121,72.629 86.121,74.15ZM86.121,88.897L86.121,90.741C86.121,92.261 84.876,93.506 83.356,93.506L44.644,93.506C43.124,93.506 41.879,92.261 41.879,90.741L41.879,88.897C41.879,87.376 43.124,86.132 44.644,86.132L83.356,86.132C84.876,86.132 86.121,87.376 86.121,88.897Z" style="fill-rule:nonzero;"/>
</svg>
