<?xml version="1.0" encoding="UTF-8" standalone="no"?>
<!DOCTYPE svg PUBLIC "-//W3C//DTD SVG 1.1//EN" "http://www.w3.org/Graphics/SVG/1.1/DTD/svg11.dtd">
<svg width="100%" height="100%" viewBox="0 0 128 128" version="1.1" xmlns="http://www.w3.org/2000/svg" xmlns:xlink="http://www.w3.org/1999/xlink" xml:space="preserve" xmlns:serif="http://www.serif.com/" style="fill-rule:evenodd;clip-rule:evenodd;stroke-linejoin:round;stroke-miterlimit:2;">
    <path d="M117.932,74.296L110.174,69.817C110.661,65.954 110.661,62.046 110.174,58.183L117.932,53.704C120.21,52.389 121.309,49.683 120.56,47.162C117.892,38.181 113.143,30.097 106.872,23.468C105.056,21.548 102.157,21.128 99.869,22.449L92.122,26.921C89.024,24.563 85.639,22.606 82.05,21.097L82.05,12.149C82.05,9.501 80.229,7.199 77.652,6.59C68.696,4.47 59.305,4.47 50.348,6.59C47.771,7.199 45.95,9.501 45.95,12.149L45.95,21.097C42.361,22.606 38.976,24.563 35.878,26.921L28.131,22.449C25.842,21.128 22.944,21.548 21.128,23.468C14.857,30.097 10.108,38.181 7.44,47.162C6.691,49.683 7.79,52.389 10.068,53.704L17.826,58.183C17.339,62.046 17.339,65.954 17.826,69.817L10.068,74.296C7.79,75.611 6.691,78.317 7.44,80.838C10.108,89.819 14.857,97.903 21.128,104.532C22.944,106.452 25.843,106.872 28.131,105.551L35.878,101.079C38.976,103.437 42.361,105.394 45.95,106.903L45.95,115.851C45.95,118.499 47.771,120.801 50.348,121.41C59.304,123.53 68.695,123.53 77.652,121.41C80.229,120.801 82.05,118.499 82.05,115.851L82.05,106.903C85.639,105.394 89.023,103.437 92.122,101.079L99.869,105.551C102.157,106.872 105.056,106.452 106.872,104.532C113.143,97.903 117.892,89.819 120.56,80.838C121.309,78.317 120.21,75.611 117.932,74.296ZM102.354,98.196L91.337,91.834C84.916,97.323 82.64,98.704 74.437,101.602L74.437,114.325C67.552,115.745 60.448,115.745 53.563,114.325L53.563,101.602C45.565,98.776 43.249,97.464 36.663,91.834L25.646,98.196C20.957,92.94 17.393,86.779 15.195,80.125L26.217,73.763C24.662,65.338 24.661,62.667 26.217,54.237L15.195,47.875C17.393,41.221 20.957,35.059 25.646,29.802L36.663,36.168C43.176,30.593 45.48,29.253 53.563,26.398L53.563,13.675C60.448,12.252 67.552,12.252 74.437,13.675L74.437,26.398C82.52,29.254 84.825,30.594 91.337,36.168L102.354,29.802C107.043,35.059 110.607,41.221 112.805,47.875L101.783,54.237C103.338,62.665 103.339,65.334 101.783,73.764L112.805,80.125C110.607,86.779 107.043,92.941 102.354,98.196ZM64,41.161C51.407,41.161 41.161,51.407 41.161,64C41.161,76.594 51.407,86.839 64,86.839C76.593,86.839 86.839,76.594 86.839,64C86.839,51.407 76.593,41.161 64,41.161ZM64,79.226C55.604,79.226 48.774,72.396 48.774,64C48.774,55.605 55.604,48.774 64,48.774C72.396,48.774 79.226,55.605 79.226,64C79.226,72.396 72.396,79.226 64,79.226Z" style="fill-rule:nonzero;"/>
</svg>
