<?xml version="1.0" encoding="UTF-8" standalone="no"?>
<!DOCTYPE svg PUBLIC "-//W3C//DTD SVG 1.1//EN" "http://www.w3.org/Graphics/SVG/1.1/DTD/svg11.dtd">
<svg width="100%" height="100%" viewBox="0 0 128 128" version="1.1" xmlns="http://www.w3.org/2000/svg" xmlns:xlink="http://www.w3.org/1999/xlink" xml:space="preserve" xmlns:serif="http://www.serif.com/" style="fill-rule:evenodd;clip-rule:evenodd;stroke-linejoin:round;stroke-miterlimit:2;">
    <g transform="matrix(0.184391,0,0,0.184391,5,16.7959)">
        <path d="M636.3,388.2L610.5,373.3C613.1,359.219 613.1,344.781 610.5,330.7L636.3,315.8C639.259,314.108 640.643,310.545 639.6,307.3C632.952,285.931 621.608,266.318 606.4,249.9C604.105,247.395 600.348,246.811 597.4,248.5L571.6,263.4C560.702,254.109 548.196,246.89 534.7,242.1L534.7,212.3C534.697,208.903 532.316,205.937 529,205.2C507.206,200.3 484.594,200.3 462.8,205.2C459.484,205.937 457.103,208.903 457.1,212.3L457.1,242.1C443.604,246.89 431.098,254.109 420.2,263.4L394.4,248.5C391.451,246.818 387.699,247.402 385.4,249.9C370.192,266.318 358.848,285.931 352.2,307.3C351.208,310.544 352.579,314.075 355.5,315.8L381.3,330.7C378.7,344.781 378.7,359.219 381.3,373.3L355.5,388.2C352.541,389.892 351.157,393.455 352.2,396.7C358.871,418.059 370.213,437.667 385.4,454.1C387.695,456.605 391.452,457.189 394.4,455.5L420.2,440.6C431.098,449.891 443.604,457.11 457.1,461.9L457.1,491.7C457.103,495.097 459.484,498.063 462.8,498.8C484.594,503.7 507.206,503.7 529,498.8C532.316,498.063 534.697,495.097 534.7,491.7L534.7,461.9C548.196,457.11 560.702,449.891 571.6,440.6L597.4,455.5C600.349,457.182 604.101,456.598 606.4,454.1C621.608,437.682 632.952,418.069 639.6,396.7C640.592,393.456 639.221,389.925 636.3,388.2ZM496,400.5C469.394,400.5 447.5,378.606 447.5,352C447.5,325.394 469.394,303.5 496,303.5C522.606,303.5 544.5,325.394 544.5,352C544.473,378.596 522.596,400.473 496,400.5Z" style="fill-opacity:0.4;fill-rule:nonzero;"/>
        <path d="M425.2,491.7L425.2,482.5C422.9,481.3 420.6,479.9 418.4,478.6L410.5,483.2C394.674,492.385 374.421,489.337 362,475.9C343.591,455.98 329.856,432.2 321.8,406.3C316.296,388.816 323.786,369.695 339.7,360.6L347.6,356C347.5,353.4 347.5,350.8 347.6,348.2L339.7,343.6C323.774,334.516 316.28,315.384 321.8,297.9C322.7,295 324,292.1 325,289.2C321.2,288.9 317.5,288 313.6,288L296.9,288C250.667,309.321 197.333,309.321 151.1,288L134.4,288C60.677,288.016 0.016,348.677 0,422.4L0,464C0,490.332 21.668,512 48,512L400,512C409.717,511.989 419.206,509.024 427.2,503.5C425.93,499.693 425.256,495.713 425.2,491.7ZM224,256C294.219,256 352,198.219 352,128C352,57.781 294.219,0 224,0C153.781,-0 96,57.781 96,128C96,198.219 153.781,256 224,256Z" style="fill-rule:nonzero;"/>
    </g>
</svg>
