<?xml version="1.0" encoding="UTF-8" standalone="no"?>
<!DOCTYPE svg PUBLIC "-//W3C//DTD SVG 1.1//EN" "http://www.w3.org/Graphics/SVG/1.1/DTD/svg11.dtd">
<svg width="100%" height="100%" viewBox="0 0 128 128" version="1.1" xmlns="http://www.w3.org/2000/svg" xmlns:xlink="http://www.w3.org/1999/xlink" xml:space="preserve" xmlns:serif="http://www.serif.com/" style="fill-rule:evenodd;clip-rule:evenodd;stroke-linejoin:round;stroke-miterlimit:2;">
    <g transform="matrix(0.184375,0,0,0.184375,5,16.8)">
        <path d="M496,224C417.004,224 352,289.004 352,368C352,446.996 417.004,512 496,512C574.996,512 640,446.996 640,368C640,367.97 640,367.94 640,367.91C640,288.963 575.037,224 496.09,224C496.06,224 496.03,224 496,224ZM560,374.3C559.962,379.607 555.607,383.962 550.3,384L489.7,384C484.393,383.962 480.038,379.607 480,374.3L480,297.7C480.038,292.393 484.393,288.038 489.7,288L502.3,288C507.607,288.038 511.962,292.393 512,297.7L512,352L550.3,352C555.607,352.038 559.962,356.393 560,361.7L560,374.3Z" style="fill-opacity:0.4;fill-rule:nonzero;"/>
        <path d="M224,256C294.219,256 352,198.219 352,128C352,57.781 294.219,0 224,0C153.781,-0 96,57.781 96,128C96,198.219 153.781,256 224,256ZM320,368C320.046,341.114 326.273,314.596 338.2,290.5C330.095,288.906 321.86,288.069 313.6,288L296.9,288C250.667,309.321 197.333,309.321 151.1,288L134.4,288C60.677,288.016 0.016,348.677 -0,422.4L0,464C0,490.332 21.668,512 48,512L395.1,512C349.8,480.1 320,427.5 320,368Z" style="fill-rule:nonzero;"/>
    </g>
</svg>
