<?xml version="1.0" encoding="UTF-8" standalone="no"?>
<!DOCTYPE svg PUBLIC "-//W3C//DTD SVG 1.1//EN" "http://www.w3.org/Graphics/SVG/1.1/DTD/svg11.dtd">
<svg width="100%" height="100%" viewBox="0 0 128 128" version="1.1" xmlns="http://www.w3.org/2000/svg" xmlns:xlink="http://www.w3.org/1999/xlink" xml:space="preserve" xmlns:serif="http://www.serif.com/" style="fill-rule:evenodd;clip-rule:evenodd;stroke-linejoin:round;stroke-miterlimit:2;">
    <g transform="matrix(0.184375,0,0,0.184375,5,16.8)">
        <path d="M608,217C590.525,201 567.693,192.082 544,192L544,64L96,64L96,192C72.307,192.083 49.476,201.002 32,217L32,49.59C32,22.25 53.53,0 80,0L560,0C586.47,0 608,22.25 608,49.59L608,217Z" style="fill-opacity:0.4;fill-rule:nonzero;"/>
        <path d="M576,384L512,384C476.891,384 448,412.891 448,448L448,480C448,497.555 462.445,512 480,512L608,512C625.555,512 640,497.555 640,480L640,448C640,412.891 611.109,384 576,384ZM544,352C579.109,352 608,323.109 608,288C608,252.891 579.109,224 544,224C508.891,224 480,252.891 480,288C480,323.109 508.891,352 544,352ZM352,384L288,384C252.891,384 224,412.891 224,448L224,480C224,497.555 238.445,512 256,512L384,512C401.555,512 416,497.555 416,480L416,448C416,412.891 387.109,384 352,384ZM128,384L64,384C28.891,384 -0,412.891 0,448L0,480C0,497.555 14.445,512 32,512L160,512C177.555,512 192,497.555 192,480L192,448C192,412.891 163.109,384 128,384ZM320,352C355.109,352 384,323.109 384,288C384,252.891 355.109,224 320,224C284.891,224 256,252.891 256,288C256,323.109 284.891,352 320,352ZM96,352C131.109,352 160,323.109 160,288C160,252.891 131.109,224 96,224C60.891,224 32,252.891 32,288C32,323.109 60.891,352 96,352Z" style="fill-rule:nonzero;"/>
    </g>
</svg>
