<?xml version="1.0" encoding="UTF-8" standalone="no"?>
<!DOCTYPE svg PUBLIC "-//W3C//DTD SVG 1.1//EN" "http://www.w3.org/Graphics/SVG/1.1/DTD/svg11.dtd">
<svg width="100%" height="100%" viewBox="0 0 128 128" version="1.1" xmlns="http://www.w3.org/2000/svg" xmlns:xlink="http://www.w3.org/1999/xlink" xml:space="preserve" xmlns:serif="http://www.serif.com/" style="fill-rule:evenodd;clip-rule:evenodd;stroke-linejoin:round;stroke-miterlimit:2;">
    <g transform="matrix(0.230469,0,0,0.230469,19.75,5.00002)">
        <path d="M377,105L279.1,7C274.589,2.504 268.469,-0.016 262.1,-0L256,0L256,128L384,128L384,121.9C383.998,115.564 381.479,109.482 377,105ZM224,136L224,0L24,0C23.98,-0 23.96,-0 23.94,-0C10.807,-0 -0,10.807 -0,23.94C-0,23.96 -0,23.98 0,24L0,488C-0,488.02 -0,488.04 -0,488.06C-0,501.193 10.807,512 23.94,512C23.96,512 23.98,512 24,512L360,512C360.02,512 360.04,512 360.06,512C373.193,512 384,501.193 384,488.06C384,488.04 384,488.02 384,488L384,160L248,160C234.848,159.962 224.038,149.152 224,136ZM296,312L296,328C296,336.777 288.777,344 280,344L216,344L216,408C216,416.777 208.777,424 200,424L184,424C175.223,424 168,416.777 168,408L168,344L104,344C95.223,344 88,336.777 88,328L88,312C88,303.223 95.223,296 104,296L168,296L168,232C168,223.223 175.223,216 184,216L200,216C208.777,216 216,223.223 216,232L216,296L280,296C288.777,296 296,303.223 296,312Z" style="fill-opacity:0.4;fill-rule:nonzero;"/>
        <path d="M296,312L296,328C296,336.777 288.777,344 280,344L216,344L216,408C216,416.777 208.777,424 200,424L184,424C175.223,424 168,416.777 168,408L168,344L104,344C95.223,344 88,336.777 88,328L88,312C88,303.223 95.223,296 104,296L168,296L168,232C168,223.223 175.223,216 184,216L200,216C208.777,216 216,223.223 216,232L216,296L280,296C288.777,296 296,303.223 296,312Z" style="fill-rule:nonzero;"/>
    </g>
</svg>
