<?xml version="1.0" encoding="UTF-8" standalone="no"?>
<!DOCTYPE svg PUBLIC "-//W3C//DTD SVG 1.1//EN" "http://www.w3.org/Graphics/SVG/1.1/DTD/svg11.dtd">
<svg width="100%" height="100%" viewBox="0 0 128 128" version="1.1" xmlns="http://www.w3.org/2000/svg" xmlns:xlink="http://www.w3.org/1999/xlink" xml:space="preserve" xmlns:serif="http://www.serif.com/" style="fill-rule:evenodd;clip-rule:evenodd;stroke-linejoin:round;stroke-miterlimit:2;">
    <g transform="matrix(0.184395,0,0,0.184395,5,16.7949)">
        <path d="M358.9,433.3L352.1,494.3C352.034,494.891 352,495.485 352,496.08C352,504.813 359.187,512 367.92,512C368.515,512 369.109,511.966 369.7,511.9L430.6,505.1L568.5,367.2L496.8,295.5L358.9,433.3ZM633,268.9L595.1,231C585.805,221.782 570.595,221.782 561.3,231L519.4,272.9L591.2,344.6L633,302.8C642.241,293.475 642.241,278.225 633,268.9Z" style="fill-opacity:0.4;fill-rule:nonzero;"/>
        <path d="M313.6,288L296.9,288C250.667,309.321 197.333,309.321 151.1,288L134.4,288C60.677,288.016 0.016,348.677 0,422.4L0,464C0,490.332 21.668,512 48,512L322.9,512C320.437,505.187 319.548,497.905 320.3,490.7L327.1,429.8L328.3,418.7L413.5,333.5C389,305.8 353.5,288 313.6,288ZM224,256C294.219,256 352,198.219 352,128C352,57.781 294.219,0 224,0C153.781,-0 96,57.781 96,128C96,198.219 153.781,256 224,256Z" style="fill-rule:nonzero;"/>
    </g>
</svg>
