<?xml version="1.0" encoding="UTF-8" standalone="no"?>
<!DOCTYPE svg PUBLIC "-//W3C//DTD SVG 1.1//EN" "http://www.w3.org/Graphics/SVG/1.1/DTD/svg11.dtd">
<svg width="100%" height="100%" viewBox="0 0 128 128" version="1.1" xmlns="http://www.w3.org/2000/svg" xmlns:xlink="http://www.w3.org/1999/xlink" xml:space="preserve" xmlns:serif="http://www.serif.com/" style="fill-rule:evenodd;clip-rule:evenodd;stroke-linejoin:round;stroke-miterlimit:2;">
    <g transform="matrix(0.230469,0,0,0.230469,5,5)">
        <path d="M512,128L512,488.12C511.967,501.23 501.171,512 488.06,512C488.04,512 488.02,512 488,512L151.88,512C138.77,511.967 128,501.171 128,488.06C128,488.04 128,488.02 128,488L128,352L255.63,352L255.63,416.9C255.63,431.17 272.91,438.24 283,428.17L378.56,332C385.082,325.417 385.082,314.653 378.56,308.07L283.07,211.82C272.98,201.75 255.7,208.82 255.7,223.09L255.7,288.09L128,288.09L128,23.88C128.033,10.77 138.829,-0 151.94,-0C151.96,-0 151.98,-0 152,0L384,0L384,112C384,120.777 391.223,128 400,128L512,128Z" style="fill-opacity:0.4;fill-rule:nonzero;"/>
        <path d="M505,105L407.1,7C402.589,2.504 396.469,-0.016 390.1,-0L384,0L384,112C384,120.777 391.223,128 400,128L512,128L512,121.9C512,115.564 509.48,109.48 505,105ZM283.07,211.82C272.98,201.75 255.7,208.82 255.7,223.09L255.7,288.09L16,288.09C7.223,288.09 -0,295.313 0,304.09L0,336C0,344.777 7.223,352 16,352L255.63,352L255.63,416.9C255.63,431.17 272.91,438.24 283,428.17L378.56,332C385.082,325.417 385.082,314.653 378.56,308.07L283.07,211.82Z" style="fill-rule:nonzero;"/>
    </g>
</svg>
