<?xml version="1.0" encoding="UTF-8" standalone="no"?>
<!DOCTYPE svg PUBLIC "-//W3C//DTD SVG 1.1//EN" "http://www.w3.org/Graphics/SVG/1.1/DTD/svg11.dtd">
<svg width="100%" height="100%" viewBox="0 0 128 128" version="1.1" xmlns="http://www.w3.org/2000/svg" xmlns:xlink="http://www.w3.org/1999/xlink" xml:space="preserve" xmlns:serif="http://www.serif.com/" style="fill-rule:evenodd;clip-rule:evenodd;stroke-linejoin:round;stroke-miterlimit:2;">
    <g transform="matrix(0.184386,0,0,0.184386,5,16.8069)">
        <path d="M630.6,364.9L540.3,274.7C528.284,262.708 511.976,255.976 495,256L415.7,256C398.145,256 383.7,270.445 383.7,288L383.7,367.2C383.679,384.146 390.413,400.421 402.4,412.4L492.7,502.6C498.701,508.613 506.855,511.995 515.35,511.995C523.845,511.995 531.999,508.613 538,502.6L630.5,410.1C636.552,404.121 639.962,395.958 639.962,387.45C639.962,378.991 636.591,370.872 630.6,364.9ZM447.8,343.9C434.634,343.9 423.8,333.066 423.8,319.9C423.8,306.734 434.634,295.9 447.8,295.9C460.966,295.9 471.8,306.734 471.8,319.9C471.8,319.92 471.8,319.94 471.8,319.96C471.8,333.093 460.993,343.9 447.86,343.9C447.84,343.9 447.82,343.9 447.8,343.9Z" style="fill-opacity:0.4;fill-rule:nonzero;"/>
        <path d="M379.9,435C361.847,417.036 351.721,392.568 351.8,367.1L351.8,294C339.6,290.4 326.9,287.8 313.6,287.8L296.9,287.8C250.667,309.121 197.333,309.121 151.1,287.8L134.4,287.8C60.67,287.899 0.044,348.57 0,422.3L0,463.9C0,490.232 21.668,511.9 48,511.9L400,511.9C414.877,511.849 428.908,504.852 437.9,493L379.9,435ZM224,255.9C294.219,255.9 352,198.119 352,127.9C352,57.681 294.219,-0.1 224,-0.1C153.781,-0.1 96,57.681 96,127.9C96,127.933 96,127.967 96,128C96.055,198.181 153.819,255.9 224,255.9Z" style="fill-rule:nonzero;"/>
    </g>
</svg>
