<?xml version="1.0" encoding="UTF-8" standalone="no"?>
<!DOCTYPE svg PUBLIC "-//W3C//DTD SVG 1.1//EN" "http://www.w3.org/Graphics/SVG/1.1/DTD/svg11.dtd">
<svg width="100%" height="100%" viewBox="0 0 128 128" version="1.1" xmlns="http://www.w3.org/2000/svg" xmlns:xlink="http://www.w3.org/1999/xlink" xml:space="preserve" xmlns:serif="http://www.serif.com/" style="fill-rule:evenodd;clip-rule:evenodd;stroke-linejoin:round;stroke-miterlimit:2;">
    <g transform="matrix(0.204861,0,0,0.204861,5,11.5556)">
        <path d="M288,256L32,256C14.445,256 -0,270.445 0,288L0,304C25.6,323.2 22.4,323.2 115.2,390.4C124.8,396.8 144,416 160,416C176,416 195.2,396.8 204.8,393.6C297.6,326.4 294.4,326.4 320,307.2L320,288C320,270.445 305.555,256 288,256ZM160,448C134.4,448 108.8,425.6 96,416C32,371.2 12.8,355.2 0,345.6L0,480C0,497.555 14.445,512 32,512L288,512C305.555,512 320,497.555 320,480L320,345.6C307.2,355.2 288,371.2 224,416C211.2,425.6 185.6,448 160,448ZM448,224L448,288L512,288L512,224L448,224Z" style="fill-opacity:0.4;fill-rule:nonzero;"/>
        <path d="M544,160L224,160C206.445,160 192,174.445 192,192L192,224L288,224C320.772,224.037 348.504,249.205 351.71,281.82L352,281.6L352,416L544,416C561.555,416 576,401.555 576,384L576,192C576,174.445 561.555,160 544,160ZM512,288L448,288L448,224L512,224L512,288ZM448,128L448,32C448,14.445 433.555,0 416,0L96,0C78.445,0 64,14.445 64,32L64,224L160,224L160,192C160.038,156.905 188.905,128.038 224,128L448,128Z" style="fill-rule:nonzero;"/>
    </g>
</svg>
