<?xml version="1.0" encoding="UTF-8" standalone="no"?>
<!DOCTYPE svg PUBLIC "-//W3C//DTD SVG 1.1//EN" "http://www.w3.org/Graphics/SVG/1.1/DTD/svg11.dtd">
<svg width="100%" height="100%" viewBox="0 0 128 128" version="1.1" xmlns="http://www.w3.org/2000/svg" xmlns:xlink="http://www.w3.org/1999/xlink" xml:space="preserve" xmlns:serif="http://www.serif.com/" style="fill-rule:evenodd;clip-rule:evenodd;stroke-linejoin:round;stroke-miterlimit:2;">
    <g transform="matrix(0.230465,0,0,0.230465,5,5.00107)">
        <path d="M180,448L96,448C43.336,448 0,404.664 0,352L0,160C-0,107.336 43.336,64 96,64L180,64C186.583,64 192,69.417 192,76L192,116C192,122.583 186.583,128 180,128L96,128C78.445,128 64,142.445 64,160L64,352C64,369.555 78.445,384 96,384L180,384C186.583,384 192,389.417 192,396L192,436C192,442.583 186.583,448 180,448Z" style="fill-opacity:0.4;fill-rule:nonzero;"/>
    </g>
    <g transform="matrix(0.230465,0,0,0.230465,5,5.00107)">
        <path d="M353,88.3L504.9,238.9C509.448,243.405 512.009,249.548 512.009,255.95C512.009,262.352 509.448,268.495 504.9,273L352.9,423.8C343.548,433.013 328.297,432.968 319,423.7L297.1,401.8C292.621,397.292 290.104,391.189 290.104,384.834C290.104,378.095 292.935,371.657 297.9,367.1L375.5,296L184,296C183.98,296 183.96,296 183.94,296C170.807,296 160,285.193 160,272.06C160,272.04 160,272.02 160,272L160,240C160,239.98 160,239.96 160,239.94C160,226.807 170.807,216 183.94,216C183.96,216 183.98,216 184,216L375.5,216L297.9,144.9C292.98,140.359 290.178,133.959 290.178,127.264C290.178,120.904 292.705,114.799 297.2,110.3L319.1,88.4C328.378,79.09 343.667,79.044 353,88.3Z" style="fill-rule:nonzero;"/>
    </g>
</svg>
