<?xml version="1.0" encoding="UTF-8" standalone="no"?>
<!DOCTYPE svg PUBLIC "-//W3C//DTD SVG 1.1//EN" "http://www.w3.org/Graphics/SVG/1.1/DTD/svg11.dtd">
<svg width="100%" height="100%" viewBox="0 0 128 128" version="1.1" xmlns="http://www.w3.org/2000/svg" xmlns:xlink="http://www.w3.org/1999/xlink" xml:space="preserve" xmlns:serif="http://www.serif.com/" style="fill-rule:evenodd;clip-rule:evenodd;stroke-linejoin:round;stroke-miterlimit:2;">
    <g transform="matrix(0.230469,0,0,0.230469,19.75,5.00002)">
        <path d="M384,128L272,128C263.223,128 256,120.777 256,112L256,0L24,0C23.98,-0 23.96,-0 23.94,-0C10.829,-0 0.033,10.77 0,23.88L0,488C-0,488.02 -0,488.04 -0,488.06C-0,501.171 10.77,511.967 23.88,512L360,512C360.02,512 360.04,512 360.06,512C373.171,512 383.967,501.23 384,488.12L384,128ZM300.45,347.36L204,443.06C197.396,449.596 186.604,449.596 180,443.06L83.58,347.36C73.42,337.29 80.54,320 94.82,320L160,320L160,240C160,231.223 167.223,224 176,224L208,224C216.777,224 224,231.223 224,240L224,320L289.18,320C303.46,320 310.58,337.29 300.45,347.36Z" style="fill-opacity:0.4;fill-rule:nonzero;"/>
        <path d="M377,105L279.1,7C274.589,2.504 268.469,-0.016 262.1,-0L256,0L256,112C256,120.777 263.223,128 272,128L384,128L384,121.9C384,115.564 381.48,109.48 377,105ZM289.18,320L224,320L224,240C224,231.223 216.777,224 208,224L176,224C167.223,224 160,231.223 160,240L160,320L94.82,320C80.54,320 73.42,337.29 83.58,347.36L180,443.06C186.604,449.596 197.396,449.596 204,443.06L300.45,347.36C310.58,337.29 303.46,320 289.18,320Z" style="fill-rule:nonzero;"/>
    </g>
</svg>
