<?xml version="1.0" encoding="UTF-8" standalone="no"?>
<!DOCTYPE svg PUBLIC "-//W3C//DTD SVG 1.1//EN" "http://www.w3.org/Graphics/SVG/1.1/DTD/svg11.dtd">
<svg width="100%" height="100%" viewBox="0 0 128 128" version="1.1" xmlns="http://www.w3.org/2000/svg" xmlns:xlink="http://www.w3.org/1999/xlink" xml:space="preserve" xmlns:serif="http://www.serif.com/" style="fill-rule:evenodd;clip-rule:evenodd;stroke-linejoin:round;stroke-miterlimit:2;">
    <g transform="matrix(0.230469,0,0,0.230469,12.375,4.76953)">
        <path d="M152,225L72,225L72,153C72,69.2 140.2,1 224,1C307.8,1 376,69.2 376,153L376,225L296,225L296,153C296,113.502 263.498,81 224,81C184.502,81 152,113.502 152,153L152,225Z" style="fill-opacity:0.4;fill-rule:nonzero;"/>
        <path d="M400,225L48,225C21.668,225 0,246.668 0,273L0,465C0,491.332 21.668,513 48,513L400,513C426.332,513 448,491.332 448,465L448,273C448,246.668 426.332,225 400,225ZM264,392C264,413.943 245.943,432 224,432C202.057,432 184,413.943 184,392L184,344C184,322.057 202.057,304 224,304C245.943,304 264,322.057 264,344L264,392Z" style="fill-rule:nonzero;"/>
    </g>
</svg>
