<?xml version="1.0" encoding="UTF-8" standalone="no"?>
<!DOCTYPE svg PUBLIC "-//W3C//DTD SVG 1.1//EN" "http://www.w3.org/Graphics/SVG/1.1/DTD/svg11.dtd">
<svg width="100%" height="100%" viewBox="0 0 128 128" version="1.1" xmlns="http://www.w3.org/2000/svg" xmlns:xlink="http://www.w3.org/1999/xlink" xml:space="preserve" xmlns:serif="http://www.serif.com/" style="fill-rule:evenodd;clip-rule:evenodd;stroke-linejoin:round;stroke-miterlimit:2;">
    <g transform="matrix(0.230469,0,0,0.230469,5.00002,5.00001)">
        <path d="M512,160L512,352C512,404.664 468.664,448 416,448L332,448C325.417,448 320,442.583 320,436L320,396C320,389.417 325.417,384 332,384L416,384C433.555,384 448,369.555 448,352L448,160C448,142.445 433.555,128 416,128L332,128C325.417,128 320,122.583 320,116L320,76C320,69.417 325.417,64 332,64L416,64C468.664,64 512,107.336 512,160Z" style="fill-opacity:0.4;fill-rule:nonzero;"/>
        <path d="M215.6,295.9L24,295.9C23.98,295.9 23.96,295.9 23.94,295.9C10.807,295.9 0,285.093 0,271.96C0,271.94 0,271.92 0,271.9L0,239.9C0,239.88 0,239.86 0,239.84C0,226.707 10.807,215.9 23.94,215.9C23.96,215.9 23.98,215.9 24,215.9L215.5,215.9L137.9,144.8C132.97,140.286 130.158,133.901 130.158,127.216C130.158,120.867 132.695,114.774 137.2,110.3L159.1,88.4C168.397,79.132 183.648,79.087 193,88.3L344.9,239C349.448,243.505 352.009,249.648 352.009,256.05C352.009,262.452 349.448,268.595 344.9,273.1L193,423.7C183.667,432.956 168.378,432.91 159.1,423.6L137.2,401.7C132.702,397.201 130.173,391.094 130.173,384.732C130.173,377.987 133.017,371.545 138,367L215.6,295.9Z" style="fill-rule:nonzero;"/>
    </g>
</svg>
