<?xml version="1.0" encoding="UTF-8" standalone="no"?>
<!DOCTYPE svg PUBLIC "-//W3C//DTD SVG 1.1//EN" "http://www.w3.org/Graphics/SVG/1.1/DTD/svg11.dtd">
<svg width="100%" height="100%" viewBox="0 0 128 128" version="1.1" xmlns="http://www.w3.org/2000/svg" xmlns:xlink="http://www.w3.org/1999/xlink" xml:space="preserve" xmlns:serif="http://www.serif.com/" style="fill-rule:evenodd;clip-rule:evenodd;stroke-linejoin:round;stroke-miterlimit:2;">
    <g transform="matrix(0.184375,0,0,0.184375,5,16.8)">
        <g transform="matrix(5.42373,0,0,5.42373,-23.2436,-76.9098)">
            <path d="M84.381,100.024C87.847,102.77 92.141,104.265 96.563,104.265C107.324,104.265 116.179,95.41 116.179,84.649C116.179,73.887 107.324,65.032 96.563,65.032C91.572,65.032 86.765,66.937 83.129,70.355L88.54,75.766C89.615,76.841 88.854,78.678 87.334,78.678L71.836,78.678C70.9,78.678 70.13,77.908 70.13,76.972L70.13,61.474C70.13,59.954 71.967,59.193 73.041,60.267L78.306,65.532C83.218,60.825 89.766,58.199 96.569,58.209C111.154,58.209 122.982,70.019 123.008,84.598C123.035,99.177 111.155,111.076 96.588,111.087C90.545,111.1 84.677,109.032 79.976,105.233C79.378,104.748 79.03,104.017 79.03,103.246C79.03,102.568 79.3,101.916 79.78,101.437L80.982,100.235C81.892,99.316 83.364,99.224 84.381,100.024ZM99.981,73.56L99.981,84.685L104.32,88.059C104.942,88.544 105.307,89.29 105.307,90.079C105.307,90.648 105.118,91.201 104.768,91.65L103.722,92.995C103.237,93.618 102.491,93.983 101.702,93.983C101.133,93.983 100.58,93.793 100.131,93.444L93.158,88.022L93.158,73.56C93.158,72.157 94.313,71.002 95.716,71.002L97.422,71.002C98.826,71.002 99.981,72.157 99.981,73.56Z" style="fill-opacity:0.4;fill-rule:nonzero;"/>
        </g>
        <path d="M224,256C294.219,256 352,198.219 352,128C352,57.781 294.219,0 224,0C153.781,-0 96,57.781 96,128C96,198.219 153.781,256 224,256ZM320,368C320.046,341.114 326.273,314.596 338.2,290.5C330.095,288.906 321.86,288.069 313.6,288L296.9,288C250.667,309.321 197.333,309.321 151.1,288L134.4,288C60.677,288.016 0.016,348.677 -0,422.4L0,464C0,490.332 21.668,512 48,512L395.1,512C349.8,480.1 320,427.5 320,368Z" style="fill-rule:nonzero;"/>
    </g>
</svg>
