<?xml version="1.0" encoding="UTF-8" standalone="no"?>
<!DOCTYPE svg PUBLIC "-//W3C//DTD SVG 1.1//EN" "http://www.w3.org/Graphics/SVG/1.1/DTD/svg11.dtd">
<svg width="100%" height="100%" viewBox="0 0 128 128" version="1.1" xmlns="http://www.w3.org/2000/svg" xmlns:xlink="http://www.w3.org/1999/xlink" xml:space="preserve" xmlns:serif="http://www.serif.com/" style="fill-rule:evenodd;clip-rule:evenodd;stroke-linejoin:round;stroke-miterlimit:2;">
    <g transform="matrix(0.230464,0,0,0.230464,5.00058,5.00142)">
        <path d="M400,288C416.73,288 432.68,285.09 448,280.71L448,299.29L266.64,381.49C259.881,384.569 252.109,384.569 245.35,381.49L12.41,275.9C-4.14,268.4 -4.14,243.4 12.41,235.9L226.28,138.9C239.28,223.32 312,288 400,288Z" style="fill-opacity:0.4;fill-rule:nonzero;"/>
        <path d="M499.59,364.1L441.05,337.57L279.86,410.63C264.708,417.52 247.292,417.52 232.14,410.63L71,337.57L12.41,364.1C-4.14,371.6 -4.14,396.6 12.41,404.1L245.35,509.69C252.109,512.769 259.881,512.769 266.64,509.69L499.64,404.1C516.14,396.6 516.14,371.6 499.59,364.1ZM304,144L368,144L368,208C368,216.777 375.223,224 384,224L416,224C424.777,224 432,216.777 432,208L432,144L496,144C504.777,144 512,136.777 512,128L512,96C512,87.223 504.777,80 496,80L432,80L432,16C432,7.223 424.777,0 416,0L384,0C375.223,0 368,7.223 368,16L368,80L304,80C295.223,80 288,87.223 288,96L288,128C288,136.777 295.223,144 304,144Z" style="fill-rule:nonzero;"/>
    </g>
</svg>
