<?xml version="1.0" encoding="UTF-8" standalone="no"?>
<!DOCTYPE svg PUBLIC "-//W3C//DTD SVG 1.1//EN" "http://www.w3.org/Graphics/SVG/1.1/DTD/svg11.dtd">
<svg width="100%" height="100%" viewBox="0 0 128 128" version="1.1" xmlns="http://www.w3.org/2000/svg" xmlns:xlink="http://www.w3.org/1999/xlink" xml:space="preserve" xmlns:serif="http://www.serif.com/" style="fill-rule:evenodd;clip-rule:evenodd;stroke-linejoin:round;stroke-miterlimit:2;">
    <g transform="matrix(0.230469,0,0,0.230469,19.75,5)">
        <path d="M336,64L256,64C291.109,64 320,92.891 320,128L64,128C64,92.891 92.891,64 128,64L48,64C21.668,64 0,85.668 0,112L0,464C0,490.332 21.668,512 48,512L336,512C362.332,512 384,490.332 384,464L384,112C384,85.668 362.332,64 336,64ZM65.6,241.4L78.3,228.8C79.307,227.792 80.675,227.224 82.1,227.224C83.525,227.224 84.893,227.792 85.9,228.8L106.5,249.6L154.1,202.4C155.107,201.392 156.475,200.824 157.9,200.824C159.325,200.824 160.693,201.392 161.7,202.4L174.3,215.1C175.308,216.107 175.876,217.475 175.876,218.9C175.876,220.325 175.308,221.693 174.3,222.7L110.1,286.3C109.093,287.308 107.725,287.876 106.3,287.876C104.875,287.876 103.507,287.308 102.5,286.3L65.6,249C64.592,247.993 64.024,246.625 64.024,245.2C64.024,243.775 64.592,242.407 65.6,241.4ZM96,392C82.834,392 72,381.166 72,368C72,354.834 82.834,344 96,344C109.166,344 120,354.834 120,368C120,368.02 120,368.04 120,368.06C120,381.193 109.193,392 96.06,392C96.04,392 96.02,392 96,392ZM320,376C320,380.389 316.389,384 312,384L168,384C163.611,384 160,380.389 160,376L160,360C160,355.611 163.611,352 168,352L312,352C316.389,352 320,355.611 320,360L320,376ZM320,280C320,284.4 315.7,288 310.4,288L154.1,288L186.4,256L310.4,256C315.7,256 320,259.6 320,264L320,280Z" style="fill-opacity:0.4;fill-rule:nonzero;"/>
        <path d="M96,344C82.834,344 72,354.834 72,368C72,381.166 82.834,392 96,392C109.166,392 120,381.166 120,368C120,367.98 120,367.96 120,367.94C120,354.807 109.193,344 96.06,344C96.04,344 96.02,344 96,344ZM161.7,202.4C160.693,201.392 159.325,200.824 157.9,200.824C156.475,200.824 155.107,201.392 154.1,202.4L106.5,249.6L85.9,228.8C84.893,227.792 83.525,227.224 82.1,227.224C80.675,227.224 79.307,227.792 78.3,228.8L65.6,241.4C64.592,242.407 64.024,243.775 64.024,245.2C64.024,246.625 64.592,247.993 65.6,249L102.5,286.3C103.507,287.308 104.875,287.876 106.3,287.876C107.725,287.876 109.093,287.308 110.1,286.3L174.3,222.7C175.308,221.693 175.876,220.325 175.876,218.9C175.876,217.475 175.308,216.107 174.3,215.1L161.7,202.4ZM256,64C256,28.891 227.109,0 192,0C156.891,0 128,28.891 128,64C92.891,64 64,92.891 64,128L320,128C320,92.891 291.109,64 256,64ZM192,88C178.834,88 168,77.166 168,64C168,50.834 178.834,40 192,40C205.166,40 216,50.834 216,64C216,64.02 216,64.04 216,64.06C216,77.193 205.193,88 192.06,88C192.04,88 192.02,88 192,88Z" style="fill-rule:nonzero;"/>
    </g>
</svg>
