<?xml version="1.0" encoding="UTF-8" standalone="no"?>
<!DOCTYPE svg PUBLIC "-//W3C//DTD SVG 1.1//EN" "http://www.w3.org/Graphics/SVG/1.1/DTD/svg11.dtd">
<svg width="100%" height="100%" viewBox="0 0 128 128" version="1.1" xmlns="http://www.w3.org/2000/svg" xmlns:xlink="http://www.w3.org/1999/xlink" xml:space="preserve" xmlns:serif="http://www.serif.com/" style="fill-rule:evenodd;clip-rule:evenodd;stroke-linejoin:round;stroke-miterlimit:2;">
    <g transform="matrix(0.230469,0,0,0.230469,12.375,5.00004)">
        <path d="M32,464C32,490.332 53.668,512 80,512L368,512C394.332,512 416,490.332 416,464L416,96L32,96L32,464ZM304,176C304,167.223 311.223,160 320,160C328.777,160 336,167.223 336,176L336,400C336,408.777 328.777,416 320,416C311.223,416 304,408.777 304,400L304,176ZM208,176C208,167.223 215.223,160 224,160C232.777,160 240,167.223 240,176L240,400C240,408.777 232.777,416 224,416C215.223,416 208,408.777 208,400L208,176ZM112,176C112,167.223 119.223,160 128,160C136.777,160 144,167.223 144,176L144,400C144,408.777 136.777,416 128,416C119.223,416 112,408.777 112,400L112,176Z" style="fill-opacity:0.4;fill-rule:nonzero;"/>
        <path d="M432,32L312,32L302.6,13.3C298.545,5.158 290.196,-0.007 281.1,0L166.8,0C157.722,-0.035 149.388,5.145 145.4,13.3L136,32L16,32C7.223,32 -0,39.223 0,48L0,80C0,88.777 7.223,96 16,96L432,96C440.777,96 448,88.777 448,80L448,48C448,39.223 440.777,32 432,32ZM128,160C119.223,160 112,167.223 112,176L112,400C112,408.777 119.223,416 128,416C136.777,416 144,408.777 144,400L144,176C144,167.223 136.777,160 128,160ZM224,160C215.223,160 208,167.223 208,176L208,400C208,408.777 215.223,416 224,416C232.777,416 240,408.777 240,400L240,176C240,167.223 232.777,160 224,160ZM320,160C311.223,160 304,167.223 304,176L304,400C304,408.777 311.223,416 320,416C328.777,416 336,408.777 336,400L336,176C336,167.223 328.777,160 320,160Z" style="fill-rule:nonzero;"/>
    </g>
</svg>
