<?xml version="1.0" encoding="UTF-8" standalone="no"?>
<!DOCTYPE svg PUBLIC "-//W3C//DTD SVG 1.1//EN" "http://www.w3.org/Graphics/SVG/1.1/DTD/svg11.dtd">
<svg width="100%" height="100%" viewBox="0 0 128 128" version="1.1" xmlns="http://www.w3.org/2000/svg" xmlns:xlink="http://www.w3.org/1999/xlink" xml:space="preserve" xmlns:serif="http://www.serif.com/" style="fill-rule:evenodd;clip-rule:evenodd;stroke-linejoin:round;stroke-miterlimit:2;">
    <g transform="matrix(0.237903,0,0,0.237903,3.09678,3.09678)">
        <path d="M141.68,400.23C174.188,425.985 214.468,440.008 255.943,440.008C356.882,440.008 439.943,356.947 439.943,256.008C439.943,155.068 356.882,72.008 255.943,72.008C209.131,72.008 164.04,89.871 129.93,121.93L180.69,172.69C190.77,182.77 183.63,200 169.37,200L24,200C15.223,200 8,192.777 8,184L8,38.63C8,24.37 25.23,17.23 35.31,27.31L84.69,76.69C130.764,32.545 192.191,7.915 256,8C392.81,8 503.75,118.78 504,255.53C504.25,392.28 392.82,503.9 256.18,504C199.489,504.125 144.448,484.729 100.36,449.09C94.749,444.536 91.485,437.683 91.485,430.456C91.485,424.091 94.018,417.98 98.52,413.48L109.79,402.21C118.33,393.584 132.138,392.727 141.68,400.23Z" style="fill-opacity:0.4;fill-rule:nonzero;"/>
        <path d="M288,152L288,256.35L328.7,288C334.542,292.544 337.966,299.544 337.966,306.945C337.966,312.281 336.186,317.468 332.91,321.68L323.09,334.3C318.546,340.142 311.546,343.566 304.145,343.566C298.809,343.566 293.622,341.786 289.41,338.51L224,287.65L224,152C224,138.834 234.834,128 248,128L264,128C277.166,128 288,138.834 288,152Z" style="fill-rule:nonzero;"/>
    </g>
</svg>
