<?xml version="1.0" encoding="UTF-8" standalone="no"?>
<!DOCTYPE svg PUBLIC "-//W3C//DTD SVG 1.1//EN" "http://www.w3.org/Graphics/SVG/1.1/DTD/svg11.dtd">
<svg width="100%" height="100%" viewBox="0 0 128 128" version="1.1" xmlns="http://www.w3.org/2000/svg" xmlns:xlink="http://www.w3.org/1999/xlink" xml:space="preserve" xmlns:serif="http://www.serif.com/" style="fill-rule:evenodd;clip-rule:evenodd;stroke-linejoin:round;stroke-miterlimit:2;">
    <g transform="matrix(0.230469,0,0,0.230469,5,5)">
        <path d="M306.67,352L205.33,352C192.164,352 181.33,362.834 181.33,376L181.33,456C181.33,469.166 192.164,480 205.33,480L306.67,480C319.836,480 330.67,469.166 330.67,456L330.67,376C330.67,362.834 319.836,352 306.67,352ZM488,192L386.67,192C373.504,192 362.67,202.834 362.67,216L362.67,296C362.67,309.166 373.504,320 386.67,320L488,320C501.166,320 512,309.166 512,296L512,216C512,202.834 501.166,192 488,192ZM306.67,32L205.33,32C192.164,32 181.33,42.834 181.33,56L181.33,136C181.33,149.166 192.164,160 205.33,160L306.67,160C319.836,160 330.67,149.166 330.67,136L330.67,56C330.67,42.834 319.836,32 306.67,32ZM125.33,192L24,192C10.834,192 -0,202.834 0,216L0,296C0,309.166 10.834,320 24,320L125.33,320C138.496,320 149.33,309.166 149.33,296L149.33,216C149.33,202.834 138.496,192 125.33,192Z" style="fill-opacity:0.4;fill-rule:nonzero;"/>
    </g>
    <g transform="matrix(0.230469,0,0,0.230469,5,5)">
        <path d="M488,352L386.67,352C373.504,352 362.67,362.834 362.67,376L362.67,456C362.67,469.166 373.504,480 386.67,480L488,480C501.166,480 512,469.166 512,456L512,376C512,362.834 501.166,352 488,352ZM306.67,192L205.33,192C192.164,192 181.33,202.834 181.33,216L181.33,296C181.33,309.166 192.164,320 205.33,320L306.67,320C319.836,320 330.67,309.166 330.67,296L330.67,216C330.67,202.834 319.836,192 306.67,192ZM488,32L386.67,32C373.504,32 362.67,42.834 362.67,56L362.67,136C362.67,149.166 373.504,160 386.67,160L488,160C501.166,160 512,149.166 512,136L512,56C512,42.834 501.166,32 488,32ZM125.33,32L24,32C10.834,32 -0,42.834 0,56L0,136C0,149.166 10.834,160 24,160L125.33,160C138.496,160 149.33,149.166 149.33,136L149.33,56C149.33,42.834 138.496,32 125.33,32ZM125.33,352L24,352C10.834,352 -0,362.834 0,376L0,456C0,469.166 10.834,480 24,480L125.33,480C138.496,480 149.33,469.166 149.33,456L149.33,376C149.33,362.834 138.496,352 125.33,352Z" style="fill-rule:nonzero;"/>
    </g>
</svg>
