<?xml version="1.0" encoding="UTF-8" standalone="no"?>
<!DOCTYPE svg PUBLIC "-//W3C//DTD SVG 1.1//EN" "http://www.w3.org/Graphics/SVG/1.1/DTD/svg11.dtd">
<svg width="100%" height="100%" viewBox="0 0 128 128" version="1.1" xmlns="http://www.w3.org/2000/svg" xmlns:xlink="http://www.w3.org/1999/xlink" xml:space="preserve" xmlns:serif="http://www.serif.com/" style="fill-rule:evenodd;clip-rule:evenodd;stroke-linecap:round;stroke-linejoin:round;stroke-miterlimit:1.5;">
    <g transform="matrix(0.0352033,0,0,0.0352033,4.26558,30.5394)">
        <path d="M1294.42,228.876L1805.15,98.743L1805.33,85.413L1811.44,84.39L1800.67,65.209L1837.2,65.289L1847.8,38.761L1868.24,52.617L1868.29,41.097L1861.6,41.243L1861.38,29.249L1880.23,36.407L1883.8,46.401L1895.45,41.142L1929.43,43.717L1946.79,63.851L1966.62,72.173L1983.34,62.225L1988.84,52.363L2001.16,57.267L2017,52.526L2025.14,74.993L2034.81,81.508L2029.23,108.445L2039.87,136.116L2056.18,140.602L2055.97,149.554L2049.52,149.216L2045.96,155.273L2051.78,177.319L2049.09,191.445L2031.45,187.495L2047.11,221.693L2057.06,209.609L2071.41,212.662L2072.15,221.333L2091.61,221.16L2093.27,206.057L2107.59,206.75L2119.24,222.007L2132.09,209.377L2121.89,201.069L2125.4,192.779L2113.22,187.024L2124.86,168.826L2147.47,181.784L2147.09,205.973L2159.41,211.788L2156.12,221.18L2144.3,222.966L2149.8,228.297L2142.43,242.703L2154.29,248.88L2159.32,237.079L2173.23,242.271L2178.08,228.96L2169.69,225.856L2176.76,217.452L2195.6,221.097L2195.83,229.182L2201.5,229.113L2202.29,237.454L2218.44,242.783L2223.56,235.43L2223.46,230.307L2233.4,236.831L2232.41,221.489L2247.26,224.645L2258.68,227.527L2254.16,254.179L2233.42,251.66L2233.45,261.511L2224.22,264.014L2223.93,277.975L2217.35,279.775L2216.2,295.35L2229,301.308L2248.82,297.336L2250.25,287.457L2264.12,293.852L2270.86,283.117L2284.34,285.838L2283.41,294.967L2298.71,291.826L2302.51,304.499L2310.26,310.589L2319.25,294.662L2312.74,291.293L2315.83,276.983L2330.67,280.713L2332.39,268.436L2341.58,271.386L2342.74,258.636L2365.61,263.406L2396.58,239.191L2391.16,224.896L2417.39,218.187L2457.84,199.963L2463.57,183.429L2480.02,190.459L2497.39,187.875L2502.11,175.737L2518.15,170.198L2521.24,176.48L2507.59,181.733L2515.45,192.125L2505.65,212.048L2495.03,218.387L2492.86,211.534L2478.44,211.115L2483.25,229.499L2599.35,333.141L2735.64,587.03L2777.67,673.774L2776.82,658.04L2786.6,662.576L2786.88,652.795L2811.79,642.466L2806.42,611.605L2824.13,612.786L2826.26,597.478L2847.27,605.042L2847.08,611.246L2856.76,615.966L2861.93,610.578L2867.56,621.709L2857.2,646.669L2886.61,642.727L2893.08,662.965L2889.1,671.243L2912.49,671.466L2916.15,662.49L2918.78,668.52L2934.78,666.576L2949.6,674.114L2963.9,667.444L2980.37,672.76L2995.37,659.65L2995.35,647.97L3014.78,655.063L3026.95,637.662L3053.83,637.534L3057.64,645.972L3070.33,645.689L3075.02,653.967L3085.55,653.956C3094.8,672.661 3105.91,688.11 3118.92,700.228L3115.4,708.687L3126.1,740.648L3137.55,736.691L3151.85,741.366L3169.02,757.071L3183.93,761.799L3179.59,780.07L3197.34,800.768L3202.4,820.834L3212.74,815.487L3220.79,819.952L3229.72,816.955L3236.12,825.142L3257.37,823.814L3260.3,834.39L3272.92,829.186L3280.44,836.276L3279.56,821.432L3289.12,813.456L3302.04,797.953L3302.21,785.379C3316.05,773.475 3327.9,772.708 3336.55,789.951L3336.09,804.267L3326.16,807.126L3322.85,819.75L3339.33,822.511L3331.3,838L3340.88,842.231L3339.35,851.514L3348.27,863.749L3372.82,864.166L3367.73,879.605L3337.21,877.889L3324.09,903.761L3329.84,915.431L3320.78,938.872L3311.98,949.801L3285.59,960.74L3282.08,966.426L3243.27,967.729L3226.16,1000.33L3231.18,1074.96L3239.3,1093.94L3227.43,1133.85L3198.84,1133.31L3177.9,1157.12L3157.98,1138.5L3091.31,1143.92L3063.66,1134.1L3047.23,1118.59L3019.74,1112.4L2973.21,1260.86L2962.29,1266.52L2956.87,1308.96L2979.05,1327.08L2981.18,1352.12L2973.72,1356.36L2958.06,1348.16L2945.47,1352.49L2940.28,1347.78L2928.47,1349.81L2912.42,1332.64L2845.83,1361.7L2830.74,1357.29L2821.91,1363.89L2810.65,1361.27L2804.07,1370.45L2778.59,1370.38L2778.77,1376.4L2761.52,1387.63L2769.14,1389.88L2769.17,1399.5L2784.8,1394.71L2788.41,1406.87L2804.45,1419.69L2799.32,1435.65L2804.82,1455.9L2803.27,1468.61L2808.83,1487.42L2807.7,1493.68L2812.85,1509.8L2833.73,1553.11L2826.08,1567.31L2835.92,1569.49L2836.04,1588.7L2819.3,1588.48L2801.8,1601.64L2820.76,1616.63L2803.01,1622.78L2791.77,1623.13L2784.22,1647.33L2793.47,1656.81L2787.78,1667.19L2794.18,1688.02L2785.11,1692.2L2759.54,1670.03L2731.53,1665.75L2705.13,1642.13L2705.27,1625.54L2691.42,1631.97L2670.63,1624.84L2661.41,1625.68L2647.56,1615.52L2636.59,1621.08L2609.85,1620.92L2570.76,1610.93L2544.23,1614.79L2539.22,1609.81L2511.56,1606.86L2502.67,1614.72L2485.34,1612.73L2470.36,1620.31L2466.19,1614.08L2444.4,1614.18L2437.71,1608.81L2428.26,1610.52L2424.26,1619.44L2419.27,1627.35L2382.18,1619.73L2336.19,1601.16L2303.33,1576.9L2294.79,1574.35L2294.73,1583.35L2281.36,1584.84L2276.11,1579.41L2270.49,1592.48L2264.02,1589.7L2250.68,1602.16L2249.14,1624.28L2241.21,1645.38L2243.73,1662.28L2239.8,1669.88L2224.6,1669.31L2221.33,1657.95L2187.78,1657.27L2169.42,1641.16L2156.33,1641.37L2134.94,1629.32L2125.49,1634.9L2106.24,1622.42L2082.91,1630.81L2071.93,1627.54L2054.3,1629.15L2045.07,1651.19L2033.53,1651.13L2040.28,1661.27L2031.36,1661.21L2023.22,1679.59L2028.72,1686.29L2022.75,1689.81L2011.73,1694.75L2002.54,1714.74L1990.49,1703.6L1980.41,1707.35L1966.48,1730.78L1943.51,1747.75L1919.56,1752.34L1912.06,1764.37L1905.42,1763.51L1901.12,1769.99L1906.82,1774.78L1885.23,1774.82L1882.97,1782.32L1870.7,1784.9L1870.78,1802.88L1862.62,1810.82L1857.08,1817.47L1861.3,1823.95L1845.15,1827.89L1834.09,1814.84L1830.34,1811.09L1820.6,1816.09L1818.8,1821.25L1828.81,1836.08L1839.17,1855.59L1826.93,1871.74L1781.09,1845.74L1792.33,1838.16L1791.64,1831.63L1786.12,1827.07L1795.57,1811.81L1790.57,1807.27L1769.22,1822.38L1769.11,1809.43L1680.21,1809.91L1666.26,1729.89L1621.81,1723.2L1643.2,1681.12L1629.99,1610.26L1609.3,1619.97L1584.89,1569.88L1555.73,1549.82L1541.2,1523.88L1534.23,1521.72L1502.73,1539.38L1398.64,1531.07L1333.86,1545.35L1293.47,1546.98L1223.49,1466.61L1221.12,1449.87L1128.5,1375.22L1017.59,1309.33L802.034,1375.53L801.17,1790.04L771.875,1793.41L770.609,1799.2L754.058,1794.95L706.191,1715.23L654.969,1674.31L599.38,1683.93L555.143,1702.09C555.143,1702.09 525.55,1728.06 514.603,1737.67C513.864,1738.32 512.817,1738.48 511.912,1738.1C511.007,1737.71 510.403,1736.84 510.359,1735.86C510.269,1733.82 510.172,1731.62 510.103,1730.08C510.045,1728.75 510.359,1727.44 511.01,1726.28C511.807,1724.86 512.941,1722.85 513.862,1721.21C514.843,1719.47 514.837,1717.34 513.846,1715.6C512.413,1713.08 510.304,1709.38 508.77,1706.68C507.57,1704.58 507.65,1701.98 508.975,1699.95C510.707,1697.3 512.849,1694.03 512.849,1694.03C512.849,1694.03 530.129,1656.42 533.256,1649.62C533.574,1648.93 533.755,1648.18 533.788,1647.42C533.89,1645.1 534.121,1639.82 534.269,1636.45C534.35,1634.59 533.401,1632.83 531.798,1631.88C527.332,1629.22 518.292,1623.85 514.19,1621.41C512.873,1620.63 511.25,1620.56 509.873,1621.23C507.861,1622.21 504.97,1623.62 503.408,1624.38C502.702,1624.73 501.889,1624.78 501.145,1624.53C499.158,1623.86 495.084,1622.5 492.63,1621.67C491.393,1621.26 490.479,1620.2 490.245,1618.92C490.102,1618.14 489.94,1617.25 489.797,1616.48C489.586,1615.32 488.532,1614.51 487.358,1614.6C484.783,1614.81 480.48,1615.15 478.489,1615.32C477.819,1615.37 477.217,1615.75 476.879,1616.33C476.474,1617.02 475.906,1618 475.399,1618.87C474.677,1620.11 473.319,1620.84 471.886,1620.76C470.104,1620.66 467.626,1620.52 465.649,1620.41C463.772,1620.31 462.246,1618.86 462.039,1616.99C461.838,1615.18 461.6,1613.04 461.453,1611.71C461.366,1610.93 460.916,1610.23 460.237,1609.83C459.273,1609.25 457.848,1608.4 456.76,1607.76C455.782,1607.17 455.145,1606.15 455.048,1605.02C454.89,1603.16 454.643,1600.27 454.476,1598.31C454.375,1597.12 453.386,1596.2 452.189,1596.18C451.417,1596.17 450.521,1596.15 449.655,1596.14C447.612,1596.11 445.939,1594.51 445.819,1592.47C445.691,1590.32 445.532,1587.62 445.414,1585.63C445.318,1584.01 444.065,1582.69 442.448,1582.51C439.586,1582.2 435.247,1581.73 432.963,1581.48C431.969,1581.37 430.967,1581.58 430.103,1582.08C427.95,1583.34 423.58,1585.88 419.971,1587.99C418.774,1588.68 417.297,1588.7 416.088,1588.02C414.879,1587.34 414.117,1586.08 414.084,1584.69C414.005,1581.36 413.915,1577.52 413.857,1575.07C413.819,1573.48 414.482,1571.95 415.668,1570.9C416.238,1570.39 416.87,1569.83 417.462,1569.3C418.883,1568.04 419.664,1566.2 419.591,1564.3C419.344,1557.79 418.78,1542.95 418.78,1542.95C418.78,1542.95 397.859,1519.94 393.166,1514.78C392.577,1514.13 392.294,1513.26 392.389,1512.39C392.649,1510.01 393.191,1505.05 393.557,1501.7C393.766,1499.8 392.458,1498.05 390.567,1497.72C388.822,1497.41 386.692,1497.03 384.926,1496.72C382.883,1496.36 381.379,1494.61 381.334,1492.53C381.247,1488.5 381.108,1482.06 381.035,1478.72C381.01,1477.53 380.032,1476.57 378.834,1476.57C378.833,1476.57 378.833,1476.57 378.832,1476.57C376.998,1476.57 375.484,1475.13 375.389,1473.3C375.331,1472.2 375.27,1471.02 375.222,1470.1C375.173,1469.17 374.452,1468.41 373.523,1468.32C372.93,1468.26 372.236,1468.19 371.559,1468.12C369.753,1467.94 368.246,1466.66 367.767,1464.91C367.585,1464.25 367.389,1463.53 367.197,1462.83C366.545,1460.44 364.355,1458.81 361.883,1458.86C358.014,1458.93 352.165,1459.05 347.35,1459.15C342.072,1459.25 337.028,1456.98 333.619,1452.94C332.244,1451.32 330.846,1449.67 329.748,1448.37C328.385,1446.76 327.597,1444.74 327.509,1442.63C327.37,1439.28 327.155,1434.08 327.015,1430.72C326.927,1428.6 327.62,1426.52 328.962,1424.88C330.371,1423.15 332.256,1420.85 333.827,1418.92C335.717,1416.61 338.594,1415.33 341.578,1415.48C347.591,1415.79 357.183,1416.27 357.183,1416.27C357.183,1416.27 370.114,1416.47 376.94,1416.57C379.529,1416.61 381.951,1417.86 383.488,1419.94C386.29,1423.74 390.857,1429.94 393.629,1433.7C395.109,1435.71 397.491,1436.85 399.983,1436.74C401.608,1436.67 403.516,1436.59 405.277,1436.52C408.569,1436.38 411.343,1434.01 412.002,1430.79C412.453,1428.58 412.969,1426.05 413.409,1423.89C414.062,1420.69 413.266,1417.37 411.235,1414.81C406.558,1408.93 398.043,1398.21 394.582,1393.86C393.594,1392.62 393.047,1391.08 393.029,1389.49C392.999,1386.88 392.95,1382.61 392.906,1378.83C392.854,1374.29 396.034,1370.36 400.481,1369.46C401.833,1369.19 403.221,1368.91 404.513,1368.65C407.959,1367.95 410.514,1365.04 410.751,1361.53C410.935,1358.82 411.146,1355.69 411.306,1353.32C411.467,1350.93 412.511,1348.69 414.234,1347.03C416.915,1344.45 420.995,1340.52 423.526,1338.08C424.982,1336.68 426.951,1335.94 428.97,1336.03C431.302,1336.13 434.437,1336.28 436.627,1336.38C438.301,1336.45 439.935,1335.86 441.172,1334.73C443.585,1332.52 447.69,1328.77 450.077,1326.59C451.28,1325.49 452.859,1324.89 454.49,1324.91C459.477,1324.99 470.399,1325.16 474.215,1325.21C475.092,1325.23 475.943,1325.52 476.65,1326.03C478.323,1327.26 481.534,1329.62 483.418,1331.01C484.372,1331.71 485.548,1332.05 486.729,1331.95C492.301,1331.51 509.084,1330.16 515.903,1329.62C517.813,1329.47 519.727,1329.87 521.41,1330.79C522.482,1331.37 523.771,1332.07 525.042,1332.76C526.477,1333.55 528.177,1333.68 529.717,1333.13C531.257,1332.59 532.493,1331.42 533.118,1329.91C533.947,1327.9 534.83,1325.77 535.493,1324.17C536.174,1322.52 536.191,1320.68 535.542,1319.02C534.677,1316.82 533.42,1313.61 532.427,1311.07C531.471,1308.63 531.983,1305.86 533.748,1303.92C536.221,1301.21 539.723,1297.37 541.929,1294.95C543.309,1293.44 544.477,1291.74 545.403,1289.92C547.081,1286.61 549.808,1281.23 550.895,1279.08C551.204,1278.47 551.371,1277.8 551.384,1277.12C551.412,1275.62 551.465,1272.79 551.506,1270.63C551.539,1268.88 550.563,1267.25 548.994,1266.46C546.922,1265.41 544.228,1264.05 543.445,1263.65C543.298,1263.58 543.145,1263.51 542.989,1263.46C541.879,1263.06 537.041,1261.32 533.2,1259.94C532.004,1259.51 531.073,1258.55 530.679,1257.34C530.284,1256.13 530.469,1254.81 531.18,1253.76C532.278,1252.13 533.479,1250.35 534.404,1248.98C535.392,1247.52 536.985,1246.58 538.744,1246.41C541.052,1246.2 544.245,1245.9 546.081,1245.73C547.023,1245.64 547.846,1245.05 548.239,1244.19C549.495,1241.5 551.313,1213.55 552.086,1206.11C552.693,1200.26 549.847,1194.59 544.794,1191.58C543.356,1190.73 541.936,1189.88 540.73,1189.16C538.648,1187.92 537.373,1185.68 537.373,1183.26L537.373,1176.57C537.373,1171.86 534.414,1167.65 529.977,1166.05C528.47,1165.51 526.874,1164.94 525.335,1164.38C520.157,1162.52 514.373,1163.65 510.282,1167.34C509.486,1168.05 508.654,1168.8 507.808,1169.56C500.089,1176.51 489.13,1178.55 479.43,1174.84C465.769,1169.62 446.721,1162.34 436.921,1158.59C432.726,1156.99 428.351,1155.91 423.892,1155.37C406.856,1153.2 389.821,1150.35 372.785,1160.52C372.785,1160.52 368.93,1163.31 365.271,1165.96C361.236,1168.88 356.019,1169.61 351.337,1167.91C349.268,1167.16 347.579,1166.55 347.579,1166.55C347.579,1166.55 346.004,1166.2 344.07,1165.76C339.599,1164.76 334.916,1165.83 331.318,1168.66C324.135,1174.33 311.888,1183.99 305.058,1189.37C301.9,1191.86 299.993,1195.61 299.842,1199.63C299.53,1207.93 299.003,1221.96 298.829,1226.6C298.792,1227.59 298.395,1228.53 297.713,1229.25C297.158,1229.83 296.439,1230.59 295.693,1231.38C294.698,1232.42 293.293,1232.98 291.85,1232.9C290.407,1232.83 289.071,1232.12 288.195,1230.97C288.195,1230.97 288.194,1230.97 288.193,1230.97C285.661,1227.64 281.016,1226.79 277.47,1229C272.875,1231.86 267.431,1235.25 267.431,1235.25L243.651,1214.99L213.147,1203.64L210.972,1194.7L190.248,1193.16L195.833,1186.69L185.385,1179.8L190.441,1169.52L199.243,1168.16L206.356,1177.28L217.147,1177.46L228.763,1168.36L204.019,1128.63L189.132,1089.97L180.49,1089.32L163.169,1057.56L148.711,1047.82L117.086,1048.11L97.684,1038.75L95.175,1057.44L82.402,1049.94L67.925,1019.12L80.799,1011.16L71.049,1006.22L73.016,986.296L106.9,988.876L73.016,986.296L20.862,965.764L44.015,904.485L61.383,891.283L67.051,873.629L44.682,852.354L54.68,785.145L77.194,777.034L90.392,760.677L91.501,753.533L83.594,744.275L91.01,738.228L87.15,729.563L107.631,709.129L115.558,709.048L154.2,756.754L163.967,784.978L172.031,785.159L181.282,793.988L218.721,766.479L215.999,756.006L208.017,756.005L211.952,746.602L205.12,736.831L199.937,694.024L192.266,687.368L195.592,683.674L211.963,691.624L237.415,667.078L261.722,659.498L261.735,645.775L255.127,641.609L259.353,627.42L264.638,623.514L290.428,625.765L302.162,613.041L339.608,596.16L339.573,583.454L349.791,583.354L355.426,576.884L356.347,554.999L369.573,556.738L372.145,537.986L381.436,541.009L381.835,549.528L413.529,549.26L416.541,555.798L422.999,555.655L422.712,565.527L410.938,565.479L414.648,575.389L432.356,576.023L440.306,567.651L445.197,580.608L457.783,574.619L454.335,562.773L461.2,551.338L481.549,552.644L487.572,543.133L502.301,538.01L518.817,579.84L525.999,575.401L530.052,579.596L537.056,571.198L540.944,575.182L546.728,572.771L544.915,576.956L550.09,574.873L551.644,579.922L553.281,575.192L569.726,575.22L569.756,568.299L577.584,576.22L588.087,576.237L591.253,582.38L602.286,582.341L611.956,609.409L639.697,617.58L649.732,625.511L649.834,638.438L660.491,645.687L660.581,652.597L672.224,662.331L674.934,692.628L682.57,700.202L697.991,688.135L701.076,663.875L686.529,646.439L685.622,635.717L698.488,633.325L711.643,647.916L727.092,648.436L730.556,654.127L723.683,662.538L750.349,683.98L761.81,681.809L763.129,688.819L778.097,697.578L812.558,672.18L816.203,646.816L822.884,650.693L830.625,650.884L831.284,643.626L839.614,643.544L842.99,628.06L852.602,641.486L861.592,642.394L859.365,629.033L882.803,631.446L898.456,623.672L900.848,634.312L907.543,633.76L910.522,647.211L925.654,655.766L929.832,647.588L945.62,650.141L947.462,621.14L960.297,628.72L972.449,622.673L972.73,630.217L980.55,630.75L982.13,622.485L993.965,616.605L996.814,629.567L1008.79,628.814L1014.39,633.829L1013.89,656.867L1022.33,654.063L1019.6,664.733L1028.26,663.203L1040.19,679.707L1066.71,682.431L1069.71,686.934L1086.58,686.099L1093.89,692.976L1085.18,693.282L1089.66,705.03L1114.07,699.964L1129.11,682.208L1127.02,668.797L1133.13,659.866L1144.12,661.306L1141.85,665.432L1157.02,683.42L1196.86,684.161L1248.95,664.43L1257.13,607.368L1265.68,605.35L1256.9,597.048L1251.16,585.626L1206.11,577.067L1205.92,558.664L1163.04,555.594L1158.06,548.527L1170.04,535.498L1143.52,522.928L1143.57,527.271L1134.32,527.214L1128.68,507.209L1148.67,507.098L1170.08,486.5L1189.11,486.403L1193.25,476.497L1215.4,461.911L1211.02,444.267L1211.43,438.673L1197.79,438.446L1197.78,423.005L1191,424.105L1187.49,419.579L1187.49,403.889L1198.01,403.8L1199.42,394.432L1216.13,382.944L1210.82,376.082L1222.26,376.107L1231.41,367.111L1237.24,372.518L1251.85,367.374L1263.44,378.619L1268.5,372.24L1282.05,372.316L1289.97,379.769L1303.07,374.155L1303.1,358.346L1285.51,354.525L1267.35,337.69L1255.25,343.937L1224.41,330.675L1224.09,315.864L1230.89,309.165L1238.03,308.48L1246.6,313.59L1260.62,310.44L1263.17,298.596L1257.32,286.568L1242.17,286.784L1233.02,291.488L1202.82,288.258L1202.8,280.118L1214.44,282.6L1214.54,273.108L1229.36,263.355L1222.54,248.833L1210.11,248.804L1213.97,238.625L1225.09,238.732L1227.48,244.801L1232.11,244.79L1232.1,228.326L1241.18,223.005L1251.61,223.094L1258.08,238.582L1263.3,233.666L1271.45,230.47L1275.59,236.585L1281.34,230.17L1281.63,240.18L1296.62,240.55L1294.42,228.876Z" style="fill:rgb(238,242,244);stroke:rgb(52,60,76);stroke-width:41.43px;"/>
    </g>
</svg>
