<?xml version="1.0" encoding="UTF-8" standalone="no"?>
<!DOCTYPE svg PUBLIC "-//W3C//DTD SVG 1.1//EN" "http://www.w3.org/Graphics/SVG/1.1/DTD/svg11.dtd">
<svg width="100%" height="100%" viewBox="0 0 128 128" version="1.1" xmlns="http://www.w3.org/2000/svg" xmlns:xlink="http://www.w3.org/1999/xlink" xml:space="preserve" xmlns:serif="http://www.serif.com/" style="fill-rule:evenodd;clip-rule:evenodd;stroke-linejoin:round;stroke-miterlimit:2;">
    <g transform="matrix(0.666667,0,0,0.666667,-13.7559,-6.4e-05)">
        <g transform="matrix(1.5,0,0,1.5,21.3184,-0.0660125)">
            <path d="M82.975,123.044L16.6,123.044C10.532,123.044 5.538,118.05 5.538,111.982L5.538,30.857C5.538,24.788 10.532,19.794 16.6,19.794L35.038,19.794L34.848,19.795C33.249,19.826 31.667,20.098 30.158,20.634C25.986,22.115 22.609,25.493 21.127,29.664C20.57,31.233 20.298,32.881 20.288,34.544L79.288,34.544C79.288,26.453 72.629,19.794 64.538,19.794L82.975,19.794C89.044,19.794 94.038,24.788 94.038,30.857L94.038,39.882L59.284,39.882C54.866,39.882 51.284,43.464 51.284,47.882L51.284,49.294L44.257,49.294C43.26,49.307 42.413,50.132 42.413,51.138C42.413,52.367 42.413,53.596 42.413,54.825C42.413,55.604 42.93,56.32 43.668,56.572C43.858,56.636 44.056,56.666 44.257,56.669L51.284,56.669L51.284,71.419L44.257,71.419C43.26,71.432 42.413,72.257 42.413,73.263C42.413,74.492 42.413,75.721 42.413,76.95C42.413,77.729 42.93,78.445 43.668,78.697C43.858,78.762 44.056,78.792 44.257,78.794L51.284,78.794L51.284,93.544L44.257,93.544C44.056,93.547 43.858,93.577 43.668,93.642C42.93,93.893 42.413,94.61 42.413,95.388C42.413,96.617 42.413,97.846 42.413,99.075C42.413,100.081 43.26,100.906 44.257,100.919L51.284,100.907C51.29,101.813 51.435,106.852 51.736,107.707C52.534,109.972 54.361,111.799 56.625,112.596C57.481,112.897 58.378,113.043 59.284,113.049L93.986,113.049C93.442,118.625 88.684,123.044 82.975,123.044ZM114.574,45.014C118.401,45.014 121.549,48.057 121.549,51.754L121.549,101.178C121.549,104.875 118.401,107.918 114.574,107.918L63.425,107.918C59.598,107.918 56.45,104.875 56.45,101.178L56.45,51.754C56.45,48.057 59.598,45.014 63.425,45.014L114.574,45.014ZM27.677,102.763C30.703,102.763 33.194,100.272 33.194,97.245L33.194,97.232C33.194,94.197 30.697,91.7 27.663,91.7C24.628,91.7 22.131,94.197 22.131,97.232C22.131,100.266 24.628,102.763 27.663,102.763L27.677,102.763ZM89,94.438C86.449,94.438 84.35,92.41 84.35,89.945C84.35,87.48 86.449,85.452 89,85.452C91.551,85.452 93.65,87.48 93.65,89.945C93.65,92.41 91.551,94.438 89,94.438ZM90.383,80.959C91.571,80.959 92.578,80.079 92.696,78.936L94.556,60.963C94.564,60.889 94.568,60.815 94.568,60.74C94.568,59.508 93.518,58.494 92.243,58.494L85.756,58.494C84.483,58.497 83.437,59.51 83.437,60.74C83.437,60.815 83.441,60.889 83.449,60.963L85.309,78.936C85.427,80.079 86.434,80.959 87.622,80.959L90.383,80.959ZM27.677,80.638C30.703,80.638 33.194,78.147 33.194,75.12L33.194,75.107C33.194,72.072 30.697,69.575 27.663,69.575C24.628,69.575 22.131,72.072 22.131,75.107C22.131,78.141 24.628,80.638 27.663,80.638L27.677,80.638ZM27.677,58.513C30.703,58.513 33.194,56.022 33.194,52.995L33.194,52.982C33.194,49.947 30.697,47.45 27.663,47.45C24.628,47.45 22.131,49.947 22.131,52.982C22.131,56.016 24.628,58.513 27.663,58.513L27.677,58.513Z" style="fill-opacity:0.4;fill-rule:nonzero;"/>
        </g>
        <g transform="matrix(1.5,0,0,1.5,21.3184,-0.0660125)">
            <path d="M27.677,91.7C30.703,91.7 33.194,94.191 33.194,97.218L33.194,97.232C33.194,100.266 30.697,102.763 27.663,102.763C24.628,102.763 22.131,100.266 22.131,97.232C22.131,94.197 24.628,91.7 27.663,91.7L27.677,91.7ZM89,85.452C86.449,85.452 84.35,87.48 84.35,89.945C84.35,92.41 86.449,94.438 89,94.438C91.551,94.438 93.65,92.41 93.65,89.945C93.65,87.48 91.551,85.452 89,85.452ZM92.243,58.494C93.516,58.497 94.562,59.51 94.562,60.74C94.562,60.815 94.558,60.889 94.55,60.963L92.69,78.936C92.572,80.079 91.566,80.959 90.377,80.959L87.616,80.959C86.428,80.959 85.421,80.079 85.303,78.936L83.443,60.963C83.435,60.889 83.431,60.815 83.431,60.74C83.431,59.508 84.481,58.494 85.756,58.494L92.243,58.494ZM27.677,69.575C30.703,69.575 33.194,72.066 33.194,75.093L33.194,75.107C33.194,78.141 30.697,80.638 27.663,80.638C24.628,80.638 22.131,78.141 22.131,75.107C22.131,72.072 24.628,69.575 27.663,69.575L27.677,69.575ZM27.677,47.45C30.703,47.45 33.194,49.941 33.194,52.968L33.194,52.982C33.194,56.016 30.697,58.513 27.663,58.513C24.628,58.513 22.131,56.016 22.131,52.982C22.131,49.947 24.628,47.45 27.663,47.45L27.677,47.45ZM64.538,19.794C64.538,11.702 57.879,5.044 49.788,5.044C41.696,5.044 35.038,11.702 35.038,19.794C26.946,19.794 20.288,26.453 20.288,34.544L79.288,34.544C79.288,26.453 72.629,19.794 64.538,19.794ZM49.802,25.325C52.828,25.325 55.319,22.835 55.319,19.808L55.319,19.794C55.319,16.76 52.822,14.263 49.788,14.263C46.753,14.263 44.257,16.76 44.257,19.794C44.257,22.828 46.753,25.325 49.788,25.325L49.802,25.325Z" style="fill-rule:nonzero;"/>
        </g>
    </g>
</svg>
