<?xml version="1.0" encoding="UTF-8" standalone="no"?>
<!DOCTYPE svg PUBLIC "-//W3C//DTD SVG 1.1//EN" "http://www.w3.org/Graphics/SVG/1.1/DTD/svg11.dtd">
<svg width="100%" height="100%" viewBox="0 0 128 128" version="1.1" xmlns="http://www.w3.org/2000/svg" xmlns:xlink="http://www.w3.org/1999/xlink" xml:space="preserve" xmlns:serif="http://www.serif.com/" style="fill-rule:evenodd;clip-rule:evenodd;stroke-linejoin:round;stroke-miterlimit:2;">
    <g transform="matrix(0.0539581,0,0,0.0539581,52.2031,50.4765)">
        <g transform="matrix(3.79661,0,0,3.79661,-874.823,-721.302)">
            <path d="M569.52,440L329.58,24C311.14,-8 264.89,-8 246.42,24L6.48,440C-11.94,471.94 11.12,512 48.05,512L527.94,512C564.81,512 588,472 569.52,440ZM288,448C270.445,448 256,433.555 256,416C256,398.445 270.445,384 288,384C305.555,384 320,398.445 320,416C320,433.555 305.555,448 288,448ZM326.24,209.59L313.44,337.59C312.627,345.728 305.699,352 297.52,352L278.52,352C270.341,352 263.413,345.728 262.6,337.59L249.8,209.59C249.747,209.062 249.721,208.531 249.721,208C249.721,199.238 256.918,192.022 265.68,192L310.32,192C319.097,192 326.319,199.223 326.319,208C326.319,208.531 326.293,209.062 326.24,209.59Z" style="fill-opacity:0.4;fill-rule:nonzero;"/>
            <path d="M310.32,192L265.68,192C256.903,192 249.681,199.223 249.681,208C249.681,208.531 249.707,209.062 249.76,209.59L262.56,337.59C263.373,345.728 270.301,352 278.48,352L297.48,352C305.659,352 312.587,345.728 313.4,337.59L326.2,209.59C326.253,209.062 326.279,208.531 326.279,208C326.279,199.238 319.082,192.022 310.32,192ZM288,384C270.445,384 256,398.445 256,416C256,433.555 270.445,448 288,448C305.555,448 320,433.555 320,416C320,398.445 305.555,384 288,384Z" style="fill-rule:nonzero;"/>
        </g>
    </g>
</svg>
