<?xml version="1.0" encoding="UTF-8" standalone="no"?>
<!DOCTYPE svg PUBLIC "-//W3C//DTD SVG 1.1//EN" "http://www.w3.org/Graphics/SVG/1.1/DTD/svg11.dtd">
<svg width="100%" height="100%" viewBox="0 0 128 128" version="1.1" xmlns="http://www.w3.org/2000/svg" xmlns:xlink="http://www.w3.org/1999/xlink" xml:space="preserve" xmlns:serif="http://www.serif.com/" style="fill-rule:evenodd;clip-rule:evenodd;stroke-linejoin:round;stroke-miterlimit:2;">
    <g transform="matrix(0.184375,0,0,0.184375,5,16.8)">
        <path d="M104,320L56,320L56,262.41C56.022,241.347 73.347,224.022 94.41,224L296,224L296,160L344,160L344,224L545.59,224C566.651,224.027 583.973,241.349 584,262.41L584,320L536,320L536,272L344,272L344,320L296,320L296,272L104,272L104,320Z" style="fill-opacity:0.4;fill-rule:nonzero;"/>
        <path d="M128,352L32,352C14.445,352 -0,366.445 0,384L0,480C0,497.555 14.445,512 32,512L128,512C145.555,512 160,497.555 160,480L160,384C160,366.445 145.555,352 128,352ZM384,0L256,0C238.445,0 224,14.445 224,32L224,128C224,145.555 238.445,160 256,160L384,160C401.555,160 416,145.555 416,128L416,32C416,14.445 401.555,0 384,0ZM608,352L512,352C494.445,352 480,366.445 480,384L480,480C480,497.555 494.445,512 512,512L608,512C625.555,512 640,497.555 640,480L640,384C640,366.445 625.555,352 608,352ZM368,352L272,352C254.445,352 240,366.445 240,384L240,480C240,497.555 254.445,512 272,512L368,512C385.555,512 400,497.555 400,480L400,384C400,366.445 385.555,352 368,352Z" style="fill-rule:nonzero;"/>
    </g>
</svg>
