<?xml version="1.0" encoding="UTF-8" standalone="no"?>
<!DOCTYPE svg PUBLIC "-//W3C//DTD SVG 1.1//EN" "http://www.w3.org/Graphics/SVG/1.1/DTD/svg11.dtd">
<svg width="100%" height="100%" viewBox="0 0 128 128" version="1.1" xmlns="http://www.w3.org/2000/svg" xmlns:xlink="http://www.w3.org/1999/xlink" xml:space="preserve" xmlns:serif="http://www.serif.com/" style="fill-rule:evenodd;clip-rule:evenodd;stroke-linejoin:round;stroke-miterlimit:2;">
    <g transform="matrix(0.184396,0,0,0.184396,5,16.7946)">
        <path d="M635.2,194.4L589.6,240L635.2,285.6C638.225,288.621 639.927,292.725 639.927,297C639.927,301.275 638.225,305.379 635.2,308.4L612.4,331.2C609.379,334.225 605.275,335.927 601,335.927C596.725,335.927 592.621,334.225 589.6,331.2L544,285.6L498.4,331.2C495.379,334.225 491.275,335.927 487,335.927C482.725,335.927 478.621,334.225 475.6,331.2L452.8,308.4C449.775,305.379 448.073,301.275 448.073,297C448.073,292.725 449.775,288.621 452.8,285.6L498.4,240L452.8,194.4C449.775,191.379 448.073,187.275 448.073,183C448.073,178.725 449.775,174.621 452.8,171.6L475.6,148.8C478.621,145.775 482.725,144.073 487,144.073C491.275,144.073 495.379,145.775 498.4,148.8L544,194.4L589.6,148.8C592.621,145.775 596.725,144.073 601,144.073C605.275,144.073 609.379,145.775 612.4,148.8L635.2,171.6C638.225,174.621 639.927,178.725 639.927,183C639.927,187.275 638.225,191.379 635.2,194.4Z" style="fill-opacity:0.4;fill-rule:nonzero;"/>
        <path d="M313.6,288L296.9,288C250.667,309.321 197.333,309.321 151.1,288L134.4,288C60.677,288.016 0.016,348.677 0,422.4L0,464C0,490.332 21.668,512 48,512L400,512C426.332,512 448,490.332 448,464L448,422.4C447.984,348.677 387.323,288.016 313.6,288ZM224,256C294.219,256 352,198.219 352,128C352,57.781 294.219,0 224,0C153.781,-0 96,57.781 96,128C96,198.219 153.781,256 224,256Z" style="fill-rule:nonzero;"/>
    </g>
</svg>
