<?xml version="1.0" encoding="UTF-8" standalone="no"?>
<!DOCTYPE svg PUBLIC "-//W3C//DTD SVG 1.1//EN" "http://www.w3.org/Graphics/SVG/1.1/DTD/svg11.dtd">
<svg width="100%" height="100%" viewBox="0 0 128 128" version="1.1" xmlns="http://www.w3.org/2000/svg" xmlns:xlink="http://www.w3.org/1999/xlink" xml:space="preserve" xmlns:serif="http://www.serif.com/" style="fill-rule:evenodd;clip-rule:evenodd;stroke-linejoin:round;stroke-miterlimit:2;">
    <g transform="matrix(0.230469,0,0,0.230469,5.00001,5)">
        <path d="M303.06,348.91L303.16,349L279.16,376C274.597,381.101 268.064,384.015 261.22,384L224,384L224,424C224,437.166 213.166,448 200,448L160,448L160,488C160,501.166 149.166,512 136,512L24,512C10.834,512 0,501.166 0,488L0,410C-0.016,403.631 2.504,397.511 7,393L168.83,231.17L168.72,230.82C188.688,291.59 240.232,336.899 303.06,348.91Z" style="fill:rgb(255,43,0);fill-opacity:0.4;fill-rule:nonzero;"/>
        <path d="M336,0C239.449,0 160,79.449 160,176C160,272.551 239.449,352 336,352C432.551,352 512,272.551 512,176C512,79.449 432.551,0 336,0ZM384,176C357.668,176 336,154.332 336,128C336,101.668 357.668,80 384,80C410.332,80 432,101.668 432,128C432,154.332 410.332,176 384,176Z" style="fill:rgb(255,43,0);fill-rule:nonzero;"/>
    </g>
</svg>
