<?xml version="1.0" encoding="UTF-8" standalone="no"?>
<!DOCTYPE svg PUBLIC "-//W3C//DTD SVG 1.1//EN" "http://www.w3.org/Graphics/SVG/1.1/DTD/svg11.dtd">
<svg width="100%" height="100%" viewBox="0 0 128 128" version="1.1" xmlns="http://www.w3.org/2000/svg" xmlns:xlink="http://www.w3.org/1999/xlink" xml:space="preserve" xmlns:serif="http://www.serif.com/" style="fill-rule:evenodd;clip-rule:evenodd;stroke-linejoin:round;stroke-miterlimit:2;">
    <g transform="matrix(0.230469,0,0,0.230469,5,5)">
        <path d="M256.47,352L255.53,352C225.43,352 195.12,328.58 172.99,311.48C169.39,308.7 24.77,202.7 0,183.33L0,400C0,426.332 21.668,448 48,448L464,448C490.332,448 512,426.332 512,400L512,183.36C487.54,202.53 342.6,308.7 339,311.48C316.88,328.58 286.57,352 256.47,352ZM464,64L48,64C21.668,64 0,85.668 0,112L0,131C0.01,138.372 3.404,145.345 9.2,149.9C39.8,173.8 49.9,182.3 182.6,278.6C199.4,290.8 232.8,320.4 256,320C279.2,320.4 312.6,290.8 329.4,278.6C462.1,182.3 472.2,173.9 502.8,149.9C508.614,145.359 512.013,138.377 512,131L512,112C512,85.668 490.332,64 464,64Z" style="fill-rule:nonzero;"/>
        <path d="M512,131L512,183.36C487.54,202.53 342.6,308.7 339,311.48C316.88,328.58 286.57,352 256.47,352L255.53,352C225.43,352 195.12,328.58 172.99,311.48C169.39,308.7 24.77,202.7 0,183.33L0,131C0.01,138.372 3.404,145.345 9.2,149.9C39.8,173.8 49.9,182.3 182.6,278.6C199.29,290.72 232.35,320 255.53,320L256.47,320C279.65,320 312.71,290.72 329.4,278.6C462.1,182.3 472.2,173.9 502.8,149.9C508.614,145.359 512.013,138.377 512,131Z" style="fill-opacity:0.4;fill-rule:nonzero;"/>
    </g>
</svg>
