<?xml version="1.0" encoding="UTF-8" standalone="no"?>
<!DOCTYPE svg PUBLIC "-//W3C//DTD SVG 1.1//EN" "http://www.w3.org/Graphics/SVG/1.1/DTD/svg11.dtd">
<svg width="100%" height="100%" viewBox="0 0 128 128" version="1.1" xmlns="http://www.w3.org/2000/svg" xmlns:xlink="http://www.w3.org/1999/xlink" xml:space="preserve" xmlns:serif="http://www.serif.com/" style="fill-rule:evenodd;clip-rule:evenodd;stroke-linejoin:round;stroke-miterlimit:2;">
    <g transform="matrix(0.204879,0,0,0.204879,5.00002,11.5511)">
        <path d="M384,352.05L384,488.12C383.967,501.23 373.171,512 360.06,512C360.04,512 360.02,512 360,512L23.88,512C10.77,511.967 -0,501.171 -0,488.06C-0,488.04 -0,488.02 0,488L0,23.88C0.033,10.77 10.829,-0 23.94,-0C23.96,-0 23.98,-0 24,0L256,0L256,112C256,120.777 263.223,128 272,128L384,128L384,288.05L208,288.05C199.223,288.05 192,295.273 192,304.05L192,336.05C192,344.827 199.223,352.05 208,352.05L384,352.05Z" style="fill-opacity:0.4;fill-rule:nonzero;"/>
        <path d="M272,128L384,128L384,121.9C384,115.564 381.48,109.48 377,105L279.1,7C274.589,2.504 268.469,-0.016 262.1,-0L256,0L256,112C256,120.777 263.223,128 272,128ZM571,308.05L475.39,211.55C465.29,201.45 447.98,208.55 447.98,222.85L447.98,288.05L208,288.05C199.223,288.05 192,295.273 192,304.05L192,336.05C192,344.827 199.223,352.05 208,352.05L447.93,352.05L447.93,417.15C447.93,431.45 465.24,438.55 475.34,428.45L571.05,332.05C577.604,325.446 577.581,314.626 571,308.05Z" style="fill-rule:nonzero;"/>
    </g>
</svg>
