<?xml version="1.0" encoding="UTF-8" standalone="no"?>
<!DOCTYPE svg PUBLIC "-//W3C//DTD SVG 1.1//EN" "http://www.w3.org/Graphics/SVG/1.1/DTD/svg11.dtd">
<svg width="100%" height="100%" viewBox="0 0 128 128" version="1.1" xmlns="http://www.w3.org/2000/svg" xmlns:xlink="http://www.w3.org/1999/xlink" xml:space="preserve" xmlns:serif="http://www.serif.com/" style="fill-rule:evenodd;clip-rule:evenodd;stroke-linejoin:round;stroke-miterlimit:2;">
    <g transform="matrix(0.263393,0,0,0.263393,5,-3.42857)">
        <path d="M400,32L48,32C21.668,32 0,53.668 0,80L0,432C0,458.332 21.668,480 48,480L400,480C426.332,480 448,458.332 448,432L448,80C448,53.668 426.332,32 400,32ZM224,384C206.445,384 192,369.555 192,352C192,334.445 206.445,320 224,320C241.555,320 256,334.445 256,352C256,369.555 241.555,384 224,384ZM262.24,145.59L249.44,273.59C248.627,281.728 241.699,288 233.52,288L214.52,288C206.341,288 199.413,281.728 198.6,273.59L185.8,145.59C185.747,145.062 185.721,144.531 185.721,144C185.721,135.238 192.918,128.022 201.68,128L246.32,128C255.097,128 262.319,135.223 262.319,144C262.319,144.531 262.293,145.062 262.24,145.59Z" style="fill-opacity:0.4;fill-rule:nonzero;"/>
        <path d="M246.32,128L201.68,128C192.903,128 185.681,135.223 185.681,144C185.681,144.531 185.707,145.062 185.76,145.59L198.56,273.59C199.373,281.728 206.301,288 214.48,288L233.48,288C241.659,288 248.587,281.728 249.4,273.59L262.2,145.59C262.253,145.062 262.279,144.531 262.279,144C262.279,135.238 255.082,128.022 246.32,128ZM224,320C206.445,320 192,334.445 192,352C192,369.555 206.445,384 224,384C241.555,384 256,369.555 256,352C256,334.445 241.555,320 224,320Z" style="fill-rule:nonzero;"/>
    </g>
</svg>
