<?xml version="1.0" encoding="UTF-8" standalone="no"?>
<!DOCTYPE svg PUBLIC "-//W3C//DTD SVG 1.1//EN" "http://www.w3.org/Graphics/SVG/1.1/DTD/svg11.dtd">
<svg width="100%" height="100%" viewBox="0 0 128 128" version="1.1" xmlns="http://www.w3.org/2000/svg" xmlns:xlink="http://www.w3.org/1999/xlink" xml:space="preserve" xmlns:serif="http://www.serif.com/" style="fill-rule:evenodd;clip-rule:evenodd;stroke-linejoin:round;stroke-miterlimit:2;">
    <g transform="matrix(0.204604,0,0,0.204604,5.00114,11.695)">
        <path d="M510.62,92.63L415.3,168.91C415.706,171.253 415.94,173.623 416,176C416,202.332 394.332,224 368,224C341.668,224 320,202.332 320,176C320.058,173.619 320.295,171.245 320.71,168.9L225.38,92.63C215.958,96.492 205.501,97.053 195.72,94.22L94.22,195.72C95.265,199.696 95.794,203.789 95.794,207.9C95.794,234.177 74.172,255.8 47.894,255.8C21.617,255.8 -0.006,234.177 -0.006,207.9C-0.006,181.623 21.617,160 47.894,160C47.93,160 47.965,160 48,160C52.153,160.058 56.281,160.656 60.28,161.78L161.78,60.28C160.656,56.281 160.058,52.153 160,48C160,21.668 181.668,0 208,0C234.332,-0 256,21.668 256,48C255.942,50.381 255.705,52.755 255.29,55.1L350.61,131.36C361.757,126.868 374.223,126.868 385.37,131.36L480.71,55.09C480.3,52.747 480.063,50.378 480,48C479.999,47.88 479.999,47.761 479.999,47.641C479.999,21.111 501.829,-0.719 528.359,-0.719C554.888,-0.719 576.719,21.111 576.719,47.641C576.719,74.17 554.888,96.001 528.359,96.001C522.287,96.001 516.269,94.857 510.62,92.63Z" style="fill-opacity:0.4;fill-rule:nonzero;"/>
        <path d="M400,320L336,320C327.223,320 320,327.223 320,336L320,496C320,504.777 327.223,512 336,512L400,512C408.777,512 416,504.777 416,496L416,336C416,327.223 408.777,320 400,320ZM560,192L496,192C487.223,192 480,199.223 480,208L480,496C480,504.777 487.223,512 496,512L560,512C568.777,512 576,504.777 576,496L576,208C576,199.223 568.777,192 560,192ZM240,192L176,192C167.223,192 160,199.223 160,208L160,496C160,504.777 167.223,512 176,512L240,512C248.777,512 256,504.777 256,496L256,208C256,199.223 248.777,192 240,192ZM80,352L16,352C7.223,352 -0,359.223 0,368L0,496C0,504.777 7.223,512 16,512L80,512C88.777,512 96,504.777 96,496L96,368C96,359.223 88.777,352 80,352Z" style="fill-rule:nonzero;"/>
    </g>
</svg>
