<?xml version="1.0" encoding="UTF-8" standalone="no"?>
<!DOCTYPE svg PUBLIC "-//W3C//DTD SVG 1.1//EN" "http://www.w3.org/Graphics/SVG/1.1/DTD/svg11.dtd">
<svg width="100%" height="100%" viewBox="0 0 128 128" version="1.1" xmlns="http://www.w3.org/2000/svg" xmlns:xlink="http://www.w3.org/1999/xlink" xml:space="preserve" xmlns:serif="http://www.serif.com/" style="fill-rule:evenodd;clip-rule:evenodd;stroke-linejoin:round;stroke-miterlimit:2;">
    <g transform="matrix(0.230469,0,0,0.230469,19.75,5)">
        <path d="M336,64L256,64C291.109,64 320,92.891 320,128L64,128C64,92.891 92.891,64 128,64L48,64C21.668,64 0,85.668 0,112L0,464C0,490.332 21.668,512 48,512L336,512C362.332,512 384,490.332 384,464L384,112C384,85.668 362.332,64 336,64ZM96,424C82.834,424 72,413.166 72,400C72,386.834 82.834,376 96,376C109.166,376 120,386.834 120,400C120,400.02 120,400.04 120,400.06C120,413.193 109.193,424 96.06,424C96.04,424 96.02,424 96,424ZM96,328C82.834,328 72,317.166 72,304C72,290.834 82.834,280 96,280C109.166,280 120,290.834 120,304C120,304.02 120,304.04 120,304.06C120,317.193 109.193,328 96.06,328C96.04,328 96.02,328 96,328ZM96,232C82.834,232 72,221.166 72,208C72,194.834 82.834,184 96,184C109.166,184 120,194.834 120,208C120,208.02 120,208.04 120,208.06C120,221.193 109.193,232 96.06,232C96.04,232 96.02,232 96,232ZM320,408C320,412.389 316.389,416 312,416L168,416C163.611,416 160,412.389 160,408L160,392C160,387.611 163.611,384 168,384L312,384C316.389,384 320,387.611 320,392L320,408ZM320,312C320,316.389 316.389,320 312,320L168,320C163.611,320 160,316.389 160,312L160,296C160,291.611 163.611,288 168,288L312,288C316.389,288 320,291.611 320,296L320,312ZM320,216C320,220.389 316.389,224 312,224L168,224C163.611,224 160,220.389 160,216L160,200C160,195.611 163.611,192 168,192L312,192C316.389,192 320,195.611 320,200L320,216Z" style="fill-opacity:0.4;fill-rule:nonzero;"/>
        <path d="M96,376C82.834,376 72,386.834 72,400C72,413.166 82.834,424 96,424C109.166,424 120,413.166 120,400C120,399.98 120,399.96 120,399.94C120,386.807 109.193,376 96.06,376C96.04,376 96.02,376 96,376ZM96,280C82.834,280 72,290.834 72,304C72,317.166 82.834,328 96,328C109.166,328 120,317.166 120,304C120,303.98 120,303.96 120,303.94C120,290.807 109.193,280 96.06,280C96.04,280 96.02,280 96,280ZM96,184C82.834,184 72,194.834 72,208C72,221.166 82.834,232 96,232C109.166,232 120,221.166 120,208C120,207.98 120,207.96 120,207.94C120,194.807 109.193,184 96.06,184C96.04,184 96.02,184 96,184ZM256,64C256,28.891 227.109,0 192,0C156.891,0 128,28.891 128,64C92.891,64 64,92.891 64,128L320,128C320,92.891 291.109,64 256,64ZM192,88C178.834,88 168,77.166 168,64C168,50.834 178.834,40 192,40C205.166,40 216,50.834 216,64C216,64.02 216,64.04 216,64.06C216,77.193 205.193,88 192.06,88C192.04,88 192.02,88 192,88Z" style="fill-rule:nonzero;"/>
    </g>
</svg>
