<?xml version="1.0" encoding="UTF-8" standalone="no"?>
<!DOCTYPE svg PUBLIC "-//W3C//DTD SVG 1.1//EN" "http://www.w3.org/Graphics/SVG/1.1/DTD/svg11.dtd">
<svg width="100%" height="100%" viewBox="0 0 128 128" version="1.1" xmlns="http://www.w3.org/2000/svg" xmlns:xlink="http://www.w3.org/1999/xlink" xml:space="preserve" xmlns:serif="http://www.serif.com/" style="fill-rule:evenodd;clip-rule:evenodd;stroke-linejoin:round;stroke-miterlimit:2;">
    <g id="GRID">
    </g>
    <g transform="matrix(0.184391,0,0,0.184391,5,16.8144)">
        <path d="M636.3,356.1L610.5,341.2C613.1,327.119 613.1,312.681 610.5,298.6L636.3,283.7C639.259,282.008 640.643,278.445 639.6,275.2C632.952,253.831 621.608,234.218 606.4,217.8C604.105,215.295 600.348,214.711 597.4,216.4L571.6,231.3C560.702,222.009 548.196,214.79 534.7,210L534.7,180.2C534.697,176.803 532.316,173.837 529,173.1C507.206,168.2 484.594,168.2 462.8,173.1C459.484,173.837 457.103,176.803 457.1,180.2L457.1,210C443.604,214.79 431.098,222.009 420.2,231.3L394.4,216.4C391.451,214.718 387.699,215.302 385.4,217.8C370.192,234.218 358.848,253.831 352.2,275.2C351.208,278.444 352.579,281.975 355.5,283.7L381.3,298.6C378.7,312.681 378.7,327.119 381.3,341.2L355.5,356.1C352.541,357.792 351.157,361.355 352.2,364.6C358.871,385.959 370.213,405.567 385.4,422C387.695,424.505 391.452,425.089 394.4,423.4L420.2,408.5C431.098,417.791 443.604,425.01 457.1,429.8L457.1,459.6C457.103,462.997 459.484,465.963 462.8,466.7C484.594,471.6 507.206,471.6 529,466.7C532.316,465.963 534.697,462.997 534.7,459.6L534.7,429.8C548.196,425.01 560.702,417.791 571.6,408.5L597.4,423.4C600.349,425.082 604.101,424.498 606.4,422C621.608,405.582 632.952,385.969 639.6,364.6C640.592,361.356 639.221,357.825 636.3,356.1ZM496,368.4C469.394,368.4 447.5,346.506 447.5,319.9C447.5,293.294 469.394,271.4 496,271.4C522.606,271.4 544.5,293.294 544.5,319.9C544.473,346.496 522.596,368.373 496,368.4Z" style="fill-opacity:0.4;fill-rule:nonzero;"/>
        <path d="M320,255.9C321.9,255.9 323.7,255.4 325.6,255.3C333.84,233.446 346.159,213.355 361.9,196.1C369.357,188.066 379.838,183.496 390.8,183.5C397.69,183.478 404.46,185.309 410.4,188.8L418.3,193.4C419.1,192.9 419.9,192.5 420.7,192C427.993,177.046 431.822,160.638 431.9,144C431.9,143.967 431.9,143.933 431.9,143.9C431.9,82.459 381.341,31.9 319.9,31.9C258.459,31.9 207.9,82.459 207.9,143.9C207.9,205.341 258.459,255.9 319.9,255.9C319.933,255.9 319.967,255.9 320,255.9ZM173.1,274.5C161.128,262.576 144.897,255.882 128,255.9L64,255.9C28.903,255.933 0.033,284.803 0,319.9L0,351.9C0,369.455 14.445,383.9 32,383.9L97.9,383.9C104.075,337.562 132.05,296.865 173.1,274.5ZM96,223.9C131.109,223.9 160,195.009 160,159.9C160,124.791 131.109,95.9 96,95.9C60.891,95.9 32,124.791 32,159.9C32.033,194.997 60.903,223.867 96,223.9ZM425.2,450.4C422.9,449.2 420.6,447.8 418.4,446.5C410.2,451.3 403.1,456.3 390.9,456.3C379.947,456.263 369.481,451.7 362,443.7C343.591,423.78 329.856,400 321.8,374.1C311.1,339.6 346.7,324.4 347.6,323.8C347.5,321.2 347.5,318.6 347.6,316L339.7,311.4C336.029,309.23 332.722,306.496 329.9,303.3C326.6,303.5 323.4,303.9 320.1,303.9C295.5,303.9 272.5,297.9 251.6,287.9L243.3,287.9C243.283,287.9 243.267,287.9 243.25,287.9C180.045,287.9 128.027,339.895 128,403.1L128,431.9C128,458.232 149.668,479.9 176,479.9L431.4,479.9C427.472,473.849 425.324,466.813 425.2,459.6L425.2,450.4Z" style="fill-rule:nonzero;"/>
    </g>
</svg>
