<?xml version="1.0" encoding="UTF-8" standalone="no"?>
<!DOCTYPE svg PUBLIC "-//W3C//DTD SVG 1.1//EN" "http://www.w3.org/Graphics/SVG/1.1/DTD/svg11.dtd">
<svg width="100%" height="100%" viewBox="0 0 128 128" version="1.1" xmlns="http://www.w3.org/2000/svg" xmlns:xlink="http://www.w3.org/1999/xlink" xml:space="preserve" xmlns:serif="http://www.serif.com/" style="fill-rule:evenodd;clip-rule:evenodd;stroke-linejoin:round;stroke-miterlimit:2;">
    <g transform="matrix(0.230469,0,0,0.230469,5,5)">
        <path d="M512,400L512,432C512,440.777 504.777,448 496,448L32,448C14.445,448 0,433.555 0,416L0,80C-0,71.223 7.223,64 16,64L48,64C56.777,64 64,71.223 64,80L64,384L496,384C504.777,384 512,391.223 512,400Z" style="fill-opacity:0.4;fill-rule:nonzero;"/>
        <path d="M275.2,96L236.8,96C230.4,96 224,102.4 224,108.8L224,307.2C224,313.6 230.4,320 236.8,320L275.2,320C281.6,320 288,313.6 288,307.2L288,108.8C288,102.4 281.6,96 275.2,96ZM179.2,224L140.8,224C134.4,224 128,230.4 128,236.8L128,307.2C128,313.6 134.4,320 140.8,320L179.2,320C185.6,320 192,313.6 192,307.2L192,236.8C192,230.4 185.6,224 179.2,224ZM467.2,64L428.8,64C422.4,64 416,70.4 416,76.8L416,307.2C416,313.6 422.4,320 428.8,320L467.2,320C473.6,320 480,313.6 480,307.2L480,76.8C480,70.4 473.6,64 467.2,64ZM371.2,160L332.8,160C326.4,160 320,166.4 320,172.8L320,307.2C320,313.6 326.4,320 332.8,320L371.2,320C377.6,320 384,313.6 384,307.2L384,172.8C384,166.4 377.6,160 371.2,160Z" style="fill-rule:nonzero;"/>
    </g>
</svg>
