<?xml version="1.0" encoding="UTF-8" standalone="no"?>
<!DOCTYPE svg PUBLIC "-//W3C//DTD SVG 1.1//EN" "http://www.w3.org/Graphics/SVG/1.1/DTD/svg11.dtd">
<svg width="100%" height="100%" viewBox="0 0 128 128" version="1.1" xmlns="http://www.w3.org/2000/svg" xmlns:xlink="http://www.w3.org/1999/xlink" xml:space="preserve" xmlns:serif="http://www.serif.com/" style="fill-rule:evenodd;clip-rule:evenodd;stroke-linejoin:round;stroke-miterlimit:2;">
    <g transform="matrix(0.184375,0,0,0.184375,5,16.8)">
        <path d="M480,256C532.664,256 576,212.664 576,160C576,107.336 532.664,64 480,64C427.336,64 384,107.336 384,160C384,212.664 427.336,256 480,256ZM528,288L524.2,288C510.3,292.8 495.6,296 480,296C464.4,296 449.7,292.8 435.8,288L432,288C411.6,288 392.8,293.9 376.3,303.4C400.7,329.7 416,364.6 416,403.2L416,441.6C416,443.8 415.5,445.9 415.4,448L592,448C618.332,448 640,426.332 640,400C640,399.98 640,399.96 640,399.94C640,338.532 589.468,288 528.06,288C528.04,288 528.02,288 528,288Z" style="fill-opacity:0.4;fill-rule:nonzero;"/>
        <path d="M192,256C253.441,256 304,205.441 304,144C304,82.559 253.441,32 192,32C130.559,32 80,82.559 80,144C80,144.02 80,144.04 80,144.06C80,205.468 130.532,256 191.94,256C191.96,256 191.98,256 192,256ZM268.8,288L260.5,288C239.165,298.428 215.746,303.898 192,304C167.4,304 144.4,298 123.5,288L115.2,288C52.009,288.016 0.016,340.009 0,403.2L0,432C0,458.332 21.668,480 48,480L336,480C362.332,480 384,458.332 384,432L384,403.2C383.984,340.009 331.991,288.016 268.8,288Z" style="fill-rule:nonzero;"/>
    </g>
</svg>
