<?xml version="1.0" encoding="UTF-8" standalone="no"?>
<!DOCTYPE svg PUBLIC "-//W3C//DTD SVG 1.1//EN" "http://www.w3.org/Graphics/SVG/1.1/DTD/svg11.dtd">
<svg width="100%" height="100%" viewBox="0 0 128 128" version="1.1" xmlns="http://www.w3.org/2000/svg" xmlns:xlink="http://www.w3.org/1999/xlink" xml:space="preserve" xmlns:serif="http://www.serif.com/" style="fill-rule:evenodd;clip-rule:evenodd;stroke-linejoin:round;stroke-miterlimit:2;">
    <g transform="matrix(0.230469,0,0,0.230469,19.75,5.00002)">
        <path d="M384,128L272,128C263.223,128 256,120.777 256,112L256,0L24,0C23.98,-0 23.96,-0 23.94,-0C10.829,-0 0.033,10.77 0,23.88L0,488C-0,488.02 -0,488.04 -0,488.06C-0,501.171 10.77,511.967 23.88,512L360,512C360.02,512 360.04,512 360.06,512C373.171,512 383.967,501.23 384,488.12L384,128ZM288,372C288,378.583 282.583,384 276,384L108,384C101.417,384 96,378.583 96,372L96,364C96,357.417 101.417,352 108,352L276,352C282.583,352 288,357.417 288,364L288,372ZM288,308C288,314.583 282.583,320 276,320L108,320C101.417,320 96,314.583 96,308L96,300C96,293.417 101.417,288 108,288L276,288C282.583,288 288,293.417 288,300L288,308ZM288,244C288,250.583 282.583,256 276,256L108,256C101.417,256 96,250.583 96,244L96,236C96,229.417 101.417,224 108,224L276,224C282.583,224 288,229.417 288,236L288,244Z" style="fill-opacity:0.4;fill-rule:nonzero;"/>
        <path d="M377,105L279.1,7C274.589,2.504 268.469,-0.016 262.1,-0L256,0L256,112C256,120.777 263.223,128 272,128L384,128L384,121.9C384,115.564 381.48,109.48 377,105ZM276,352L108,352C101.417,352 96,357.417 96,364L96,372C96,378.583 101.417,384 108,384L276,384C282.583,384 288,378.583 288,372L288,364C288,357.417 282.583,352 276,352ZM276,288L108,288C101.417,288 96,293.417 96,300L96,308C96,314.583 101.417,320 108,320L276,320C282.583,320 288,314.583 288,308L288,300C288,293.417 282.583,288 276,288ZM276,224L108,224C101.417,224 96,229.417 96,236L96,244C96,250.583 101.417,256 108,256L276,256C282.583,256 288,250.583 288,244L288,236C288,229.417 282.583,224 276,224Z" style="fill-rule:nonzero;"/>
    </g>
</svg>
