<?xml version="1.0" encoding="UTF-8" standalone="no"?>
<!DOCTYPE svg PUBLIC "-//W3C//DTD SVG 1.1//EN" "http://www.w3.org/Graphics/SVG/1.1/DTD/svg11.dtd">
<svg width="100%" height="100%" viewBox="0 0 128 128" version="1.1" xmlns="http://www.w3.org/2000/svg" xmlns:xlink="http://www.w3.org/1999/xlink" xml:space="preserve" xmlns:serif="http://www.serif.com/" style="fill-rule:evenodd;clip-rule:evenodd;stroke-linejoin:round;stroke-miterlimit:2;">
    <g transform="matrix(0.184375,0,0,0.184375,5,16.8)">
        <path d="M640,224L640,256C640,264.777 632.777,272 624,272L560,272L560,336C560,344.777 552.777,352 544,352L512,352C503.223,352 496,344.777 496,336L496,272L432,272C423.223,272 416,264.777 416,256L416,224C416,215.223 423.223,208 432,208L496,208L496,144C496,135.223 503.223,128 512,128L544,128C552.777,128 560,135.223 560,144L560,208L624,208C632.777,208 640,215.223 640,224Z" style="fill-opacity:0.4;fill-rule:nonzero;"/>
        <path d="M224,256C294.219,256 352,198.219 352,128C352,57.781 294.219,0 224,0C153.781,-0 96,57.781 96,128C96,198.219 153.781,256 224,256ZM313.6,288L296.9,288C250.667,309.321 197.333,309.321 151.1,288L134.4,288C60.677,288.016 0.016,348.677 0,422.4L0,464C0,490.332 21.668,512 48,512L400,512C426.332,512 448,490.332 448,464L448,422.4C447.984,348.677 387.323,288.016 313.6,288Z" style="fill-rule:nonzero;"/>
    </g>
</svg>
