<?xml version="1.0" encoding="UTF-8" standalone="no"?>
<!DOCTYPE svg PUBLIC "-//W3C//DTD SVG 1.1//EN" "http://www.w3.org/Graphics/SVG/1.1/DTD/svg11.dtd">
<svg width="100%" height="100%" viewBox="0 0 128 128" version="1.1" xmlns="http://www.w3.org/2000/svg" xmlns:xlink="http://www.w3.org/1999/xlink" xml:space="preserve" xmlns:serif="http://www.serif.com/" style="fill-rule:evenodd;clip-rule:evenodd;stroke-linejoin:round;stroke-miterlimit:2;">
    <g transform="matrix(0.184375,0,0,0.184375,5,16.8)">
        <path d="M96,224C131.109,224 160,195.109 160,160C160,124.891 131.109,96 96,96C60.891,96 32,124.891 32,160C32.033,195.097 60.903,223.967 96,224ZM576,256L512,256C495.103,255.982 478.872,262.676 466.9,274.6C507.953,296.943 535.905,337.66 542,384L608,384C625.555,384 640,369.555 640,352L640,320C639.967,284.903 611.097,256.033 576,256ZM64,256C28.903,256.033 0.033,284.903 0,320L0,352C0,369.555 14.445,384 32,384L97.9,384C104.075,337.662 132.05,296.965 173.1,274.6C161.128,262.676 144.897,255.982 128,256L64,256ZM544,224C579.109,224 608,195.109 608,160C608,124.891 579.109,96 544,96C508.891,96 480,124.891 480,160C480.033,195.097 508.903,223.967 544,224Z" style="fill-opacity:0.4;fill-rule:nonzero;"/>
        <path d="M396.8,288L388.5,288C367.165,298.428 343.746,303.898 320,304C295.4,304 272.4,298 251.5,288L243.2,288C180.009,288.016 128.016,340.009 128,403.2L128,432C128,458.332 149.668,480 176,480L464,480C490.332,480 512,458.332 512,432L512,403.2C511.984,340.009 459.991,288.016 396.8,288ZM320,256C381.441,256 432,205.441 432,144C432,82.559 381.441,32 320,32C258.559,32 208,82.559 208,144C208,144.02 208,144.04 208,144.06C208,205.468 258.532,256 319.94,256C319.96,256 319.98,256 320,256Z" style="fill-rule:nonzero;"/>
    </g>
</svg>
