<?xml version="1.0" encoding="UTF-8" standalone="no"?>
<!DOCTYPE svg PUBLIC "-//W3C//DTD SVG 1.1//EN" "http://www.w3.org/Graphics/SVG/1.1/DTD/svg11.dtd">
<svg width="100%" height="100%" viewBox="0 0 128 128" version="1.1" xmlns="http://www.w3.org/2000/svg" xmlns:xlink="http://www.w3.org/1999/xlink" xml:space="preserve" xmlns:serif="http://www.serif.com/" style="fill-rule:evenodd;clip-rule:evenodd;stroke-linejoin:round;stroke-miterlimit:2;">
    <path d="M109.889,18.111L18.111,18.111C10.88,18.111 5,23.991 5,31.222L5,96.778C5,104.009 10.88,109.889 18.111,109.889L109.889,109.889C117.12,109.889 123,104.009 123,96.778L123,31.222C123,23.991 117.12,18.111 109.889,18.111ZM116.444,96.778C116.444,100.383 113.494,103.333 109.889,103.333L18.111,103.333C14.506,103.333 11.556,100.383 11.556,96.778L11.556,31.222C11.556,27.617 14.506,24.667 18.111,24.667L109.889,24.667C113.494,24.667 116.444,27.617 116.444,31.222L116.444,96.778ZM101.694,70.556L78.75,70.556C77.849,70.556 77.111,71.293 77.111,72.194L77.111,75.472C77.111,76.374 77.849,77.111 78.75,77.111L101.694,77.111C102.596,77.111 103.333,76.374 103.333,75.472L103.333,72.194C103.333,71.293 102.596,70.556 101.694,70.556ZM101.694,57.444L78.75,57.444C77.849,57.444 77.111,58.182 77.111,59.083L77.111,62.361C77.111,63.263 77.849,64 78.75,64L101.694,64C102.596,64 103.333,63.263 103.333,62.361L103.333,59.083C103.333,58.182 102.596,57.444 101.694,57.444ZM101.694,44.333L78.75,44.333C77.849,44.333 77.111,45.071 77.111,45.972L77.111,49.25C77.111,50.151 77.849,50.889 78.75,50.889L101.694,50.889C102.596,50.889 103.333,50.151 103.333,49.25L103.333,45.972C103.333,45.071 102.596,44.333 101.694,44.333ZM47.611,70.556C56.666,70.556 64,63.222 64,54.167C64,45.112 56.666,37.778 47.611,37.778C38.556,37.778 31.222,45.112 31.222,54.167C31.222,63.222 38.556,70.556 47.611,70.556ZM47.611,44.333C53.04,44.333 57.444,48.738 57.444,54.167C57.444,59.595 53.04,64 47.611,64C42.182,64 37.778,59.595 37.778,54.167C37.778,48.738 42.182,44.333 47.611,44.333ZM57.199,73.833C53.204,73.833 52.2,75.267 47.611,75.267C43.022,75.267 42.018,73.833 38.024,73.833C33.681,73.833 29.46,75.759 27.002,79.447C25.527,81.639 24.667,84.281 24.667,87.129L24.667,91.861C24.667,92.763 25.404,93.5 26.306,93.5L29.583,93.5C30.485,93.5 31.222,92.763 31.222,91.861L31.222,87.129C31.222,85.695 31.652,84.302 32.451,83.114C33.599,81.413 35.688,80.409 38.044,80.409C40.584,80.409 42.305,81.843 47.632,81.843C52.937,81.843 54.658,80.409 57.219,80.409C59.575,80.409 61.665,81.434 62.812,83.114C63.611,84.302 64.041,85.695 64.041,87.129L64.041,91.861C64.041,92.763 64.778,93.5 65.68,93.5L68.958,93.5C69.859,93.5 70.597,92.763 70.597,91.861L70.597,87.129C70.597,84.281 69.736,81.639 68.261,79.447C65.741,75.759 61.521,73.833 57.199,73.833Z" style="fill-rule:nonzero;"/>
</svg>
