<svg id="Слой_1" data-name="Слой 1" xmlns="http://www.w3.org/2000/svg" viewBox="0 0 1868.12 1028.66"><defs><style>.cls-1{fill:#eef2f4;}.cls-1,.cls-2,.cls-3{stroke:#343b4c;stroke-linecap:round;stroke-linejoin:round;stroke-width:4px;fill-rule:evenodd;}.cls-2{fill:#d5392e;}.cls-3{fill:#234478;}</style></defs><path class="cls-1" d="M846,514.83l3.45-14.73L883.18,508l15.07-12.73L909,498.37,920.91,481l10.26-5,4.5-15.45,12.16-8.3,18.33-25.37,11.27-10.23.67-8.62L993,403.8l8.6-10.68,1.12-11.29,14,2,10.29-9,18-1.14L1038.47,412l15,7.11,18.92-16.48L1082.74,415l38.15-6.3L1125,390l8.28-.2,4-9.57,9.42-2,5.26-9.07,17.66,2.79-2.07,11.48-.09,7.19,8.68-3.2,8.68,3.9,4.25-9.25,8.88,2.24,5.14-10.44,18.65-14.59,19.75-8.75,9.13-9.33-18.49-9.39,12.65-4.23,12.48,1.67,19,16.76.1,18.47-6.63,5-1.06,5.76,32.52,1.77,20,27.64-13.25,8.17,3.45,12.73,22.69-15.1,60.24-9,6.8-23.75,12.52.35,18.31,8.61,5.73,5.91-2.51,11.72,4.31,4.42L1415.9,428l-2.93,20.3,2.7,8.82-.2,4.69,10.47,5.74L1424,479.39,1411,490.48l14.1,21.69-10.61,17.66-8.46.28-5.39,8.37,10.48,6.23,8.61,15.84-10.3,12.65-1.89,27.34L1403,615.88l4.8,8.93,11.43-6.53,10.71,2.09,2.23,43.7-26.67,2.74-52-13.13-42.49,6.4-9.51,15-26,23-316.51,1.06-3-10.94L888,686.74l-21.27-19.51-9.21,2.37-21.44-14.94L787,638.55,769.88,626l-16,3.82,7.09-7.92,23.86-22.56,28.58-15.29,12.78-13.89-11.74-17.31,11.26-11-1.37-7.63,12.87-5.89-3.94-10.29Z" transform="translate(-16.4 -14.27)"/><path class="cls-1" d="M1528.17,326.46l-24.2,6c-15.89,4.12-21,11.7-19.34,21.42l5.92,22c5.64,15.1,4.78,29.67-4.27,43.76l-18.37,6.21L1456,425.8l-20.88-21.52,2.51-11.72-5.73-5.91L1413.57,378l-12.52-.35-6.8,23.75-60.24,9-22.69,15.1-3.45-12.73,13.25-8.17-20-27.64-32.52-1.77,1.06-5.76,6.63-5-.1-18.47-19-16.76L1268.59,315l13.7-2.23-8.86-7-10.19-1.11L1262,291l9.87-7.31-3.73-45.77-8.85-13.44,10.41-1.67,1.93-9-7-1.85-12.55,5.66L1248.65,202l9.62-9.53-6-4.06-8.62,3-2-6.29,1.17-2.13,6.34-1.64-2.41-6.78-.2-3.87,10.87-5.33.79-5.5,7.72,3.56,3.75-6,7.49,1.51-.52,5.08,8.51-1.75,2.12,7.05,4.31,3.39,5-8.86L1293,162l1.73-8,8.25,2.07,1-6.83,5.11,1.65.65-7.1,12.72,2.66L1339.6,133l-3-8,14.58-3.73,22.5-10.13,3.19-9.2,9.14,3.91,9.66-1.44,2.63-6.75,8.92-3.08,1.72,3.5-7.59,2.92,4.37,5.78-5.45,11.08-5.91,3.52-1.2-3.81-8-.23,2.68,10.22,64.57,57.64Z" transform="translate(-16.4 -14.27)"/><path class="cls-1" d="M1441.16,622.57l-21.92-4.29-11.43,6.53-4.8-8.93,4.49-15.34,1.89-27.34,10.3-12.65-8.61-15.84-10.48-6.23,5.39-8.37,8.46-.28,10.61-17.66L1411,490.48,1424,479.39l1.92-11.81-10.47-5.74.2-4.69-2.7-8.82,2.93-20.3,23.51-19.33L1456,425.8l11.93.07,18.37-6.21c9-14.11,9.9-28.67,4.27-43.76l-5.92-22c-1.66-9.73,3.46-17.26,19.34-21.42l24.2-6,15.58,32.31,7.31,7.18,5.6-2.91,13.85-5.75-3-17.16,9.86.66,1.18-8.52,11.68,4.21-.1,3.45,5.38,2.63,2.87-3,3.13,6.19-5.76,13.88,16.36-2.19,3.6,11.25,10.8,4.73,2-5,1.46,3.35,8.9-1.08,8.24,4.19,7.95-3.71,9.17,3,8.33-7.29v-6.5l10.81,3.95,6.77-9.68,14.94-.07,2.12,4.69,7.06-.15,2.61,4.6h5.85q7.73,15.61,18.56,25.74l-2,4.7,5.94,17.77,6.38-2.2,7.94,2.6,9.56,8.74,8.29,2.63-2.42,10.16,9.87,11.51,2.82,11.16,5.75-3L1798,456l5-1.67,3.57,4.55,11.81-.73,1.63,5.88,7-2.9,4.18,3.95-.49-8.26,5.31-4.43,7.19-8.63.1-7c7.69-6.62,14.28-7,19.09,2.54l-.25,8-5.52,1.59-1.84,7,9.16,1.53-4.46,8.62,5.32,2.35-.85,5.16,5,6.8,13.66.24-2.84,8.58-17-.95-7.29,14.39,3.19,6.49-5,13-4.89,6.08L1834,534.29l-2,3.17-21.58.72L1801,556.31l2.8,41.5,4.51,10.56-6.6,22.2-15.9-.3-11.65,13.24L1763,633.15l-37.08,3-15.38-5.47-9.13-8.62-15.29-3.44-25.88,82.55-6.07,3.15-3,23.61-5.62.66-.85-12.29-27.89-39.76,2.56-8.17-4.25-5-6.45,2.62-4.45-3.08-10.79.55-12.86-3.84-6-6.38-14.28-2.2-9.11-11.19-31.14,5.62-12-20-17,1.71-27.9-15.29-7.32,8.78-7.63-4.6Z" transform="translate(-16.4 -14.27)"/><path class="cls-1" d="M1265.09,714.71l10.36-16.54,26-23,9.51-15,42.49-6.4,52,13.13,26.67-2.74-2.23-43.7,11.21,2.2,7.07-6.47,7.63,4.6,7.32-8.78,27.9,15.29,17-1.71,12,20,31.14-5.62,9.11,11.19,14.28,2.2,6,6.38,12.86,3.84,10.79-.55,4.45,3.08,6.45-2.62,4.25,5-2.56,8.17,27.89,39.76.85,12.29,5.62-.66L1663.53,738l1.18,13.93-4.15,2.35-8.71-4.56-7,2.41-2.89-2.62-6.57,1.13-8.92-9.55-37,16.16-8.39-2.45-4.91,3.67-6.26-1.46-3.66,5.11-14.17,0,.1,3.35-9.59,6.25,4.23,1.25,0,5.35,8.69-2.66,2,6.76,8.92,7.13-2.85,8.88,3.06,11.26-.86,7.06,3.08,10.46-.63,3.49,2.87,9,11.62,24.09-4.26,7.89,5.47,1.22.06,10.68-9.3-.12-9.74,7.32,10.55,8.33-9.87,3.42-6.25.2-4.2,13.45,5.14,5.28-3.16,5.77,3.56,11.59-5,2.32-14.22-12.33-15.58-2.38-14.68-13.14.08-9.22-7.7,3.58-11.56-4-5.13.47-7.7-5.66-6.1,3.1-14.87-.09-21.74-5.56L1421.71,898l-2.79-2.77-15.37-1.64-5,4.37-9.64-1.11-8.33,4.22-2.32-3.47-12.11.06-3.72-3-5.26,1-2.22,5-8.61-9.19-.3-5.86-9.89-4.72-4.28-8,2.13-8-5.27-10.52-7.3-4.4,3.81-4.24-4.62-10,5.17-23.32-6.52-5.9-22-9.55-2.74-17.63L1276.35,766l.47-15.35-9.76-22Z" transform="translate(-16.4 -14.27)"/><path class="cls-1" d="M1046.9,698.92l2.88,9,5.41,4.89-1.27,7.09c9.07,21.83,18.19,48.21,27.11,86.16l-9.22,40.3-8.74,13.11,5.28,11.31,23.75,8.17,7.82,15.63-.78,11,22.21,16.61,10.35,17.61,3.33-2-3.06-3.73,4.52-10.23,5,0-3.75-5.63,6.42,0,5.13-12.26,9.8-.89,6.11,1.82,13-4.66,10.71,6.94,5.26-3.11,11.89,6.7,7.28-.12,10.21,9,18.66.38,1.82,6.32,8.45.32,2.18-4.23-1.39-9.4,4.4-11.73.86-12.31,7.42-6.92,3.6,1.54,3.13-7.27,2.91,3,7.44-.83,0-5,4.75,1.42L1306,890.45l25.58,10.33,20.62,4.23,2.78-4.39-8.61-9.19-.3-5.86-9.89-4.72-4.28-8,2.13-8-5.27-10.52-7.3-4.4,3.81-4.24-4.62-10,5.17-23.32-6.52-5.9-22-9.55-2.74-17.63L1276.35,766l.47-15.35-9.76-22-2-13.94,10.36-16.54Z" transform="translate(-16.4 -14.27)"/><path class="cls-1" d="M959,699.23l88-.31,2.88,9,5.41,4.89-1.27,7.09A538.77,538.77,0,0,1,1081,806.05l-9.22,40.3-8.74,13.11,5.28,11.31,23.75,8.17,7.82,15.63-.78,11,22.21,16.61,10.35,17.61-6.12,2.75-5.11,11.11-6.7-6.19-5.61,2.08-7.75,13L1087.64,972l-13.32,2.55-4.17,6.69-3.7-.48-2.38,3.61,3.16,2.66-12,0L1054,991.2l-6.82,1.43,0,10-4.54,4.42-3.08,3.69,2.34,3.61-9,2.19-6.15-7.25-2.08-2.09-5.42,2.77-1,2.88,5.57,8.24,5.76,10.86-6.81,9-25.49-14.46,6.25-4.22-.38-3.63-3.07-2.54,5.25-8.49-2.78-2.52-11.87,8.41-.06-7.2-49.44.26L933.45,962l-24.72-3.72.25-26.23,4.22-1v-3l74.41-52.63-3.09-8.07-4.89-.21,7.69-6.18,3.11-15,10.19-18.48L989,818.91,985.64,811l-14-5.44L972.79,753l-4.47.18-11-12.91,5.88-9.21,3.63-20.5-6.34-5.93Z" transform="translate(-16.4 -14.27)"/><path class="cls-1" d="M572.71,728.15l3.55-16.83,5.39-7,7.2.47,5.23-18.89,24.65-31.54,18.79-16.74,8.57-.85,2.59-21.44,26.44.93,18.18-39.69,29.27,1.57,9.54,15.92,8.63.68L750,609.28l.66,7.75L761,621.94l-7.09,7.92,16-3.82L787,638.55l49.14,16.11,21.44,14.94,9.21-2.37L888,686.74l67.89,1.55,4.56,16.37,6.34,5.93-3.63,20.5-5.88,9.21,11,12.91,4.47-.18-1.11,52.53,14,5.44,3.32,7.91,11.65,8.63L990.42,846l-3.11,15-7.69,6.18,4.89.21,3.09,8.07-74.41,52.63.09-32.58-11.51,5.4-13.58-27.86L872,861.9l-8.08-14.43-3.88-1.2-17.51,9.82-57.89-4.62-36,7.94-22.46.91-38.92-44.69-1.31-9.31-51.51-41.53Z" transform="translate(-16.4 -14.27)"/><path class="cls-1" d="M705.79,332l10.24-.81,5.14,14.42,6.15-5.72,5.8,5.86-4.51,4.47,12.68,12.82-6.3.44a1.67,1.67,0,0,0-1.34.86L731,369.24a.8.8,0,0,0,.1.93l3.2,3.68a1.65,1.65,0,0,0,1.66.5l4.62-1.27a1.77,1.77,0,0,1,2.14,1.14c1.68,4.95,6.7,19.8,6.7,19.8l16,24.16-2.77,11.51-5.8-3.27L749,433.05l-.72,7.32-6.1,3.88,2.34,10.26-6.32.37,7.7,22.14-6.59-1.43L737,482.21l8.21,2.94.88,7.34L761,506l3.57-2.95,6.37.9-1.74,11,32.69,19.28,24.34,35.9-12.78,13.89-28.58,15.29L761,621.94,750.61,617l-.66-7.75-9.21-14.53-8.63-.68-9.54-15.92-29.27-1.57-18.18,39.69-26.44-.93-2.59,21.44-8.57.85-18.79,16.74-24.65,31.54-5.23,18.89-7.2-.47-5.39,7-3.55,16.83-2.28-1.63-86,27.67-8.16-54.68-6.58-10.78-8.55-23L426,652.27,404.57,622l2.81-56.41-7.18-11.3,1.12-9.78-4.4-9.5,3.09-20.4-13-5.05-5.58,10.75-22.87-8.08-2.65-26.71-15.83-7.31,1.79-17.71,13.49-7.22,12.23,3.5,11.33-6-2.72-9.94,11.11-17.32-12.82-24.2,7.64-14.08,4.24,4.21,8.58-6.71,1.71-13.49-8.09-9.7-.5-6,7.16-1.33,7.31,8.11,8.59.29,1.93,3.17-3.82,4.68,14.83,11.92,6.37-1.21.73,3.9,8.33,4.87,19.16-14.12,2-14.11,3.72,2.16,4.3.1.37-4,4.63-.05,1.88-8.61,5.34,7.47,5,.5-1.24-7.43,13,1.34,8.7-4.32,1.33,5.92,3.73-.31,1.65,7.48,8.42,4.76,2.32-4.55,8.78,1.42,1-16.13,7.14,4.22,6.75-3.36.16,4.19,4.35.3.88-4.6,6.58-3.27,1.58,7.21,6.66-.42,3.12,2.79-.28,12.81,4.69-1.56-1.51,5.94,4.81-.85,6.63,9.17L600,379.52l1.66,2.5,9.38-.46,4.07,3.82-4.85.17,2.49,6.54,13.58-2.82,8.37-9.88-1.16-7.45,3.39-5,6.11.8-1.26,2.3,8.44,10,22.15.41,29-11,4.55-31.74,4.76-1.12Z" transform="translate(-16.4 -14.27)"/><path class="cls-1" d="M908.38,82.36l3.14-1,4.17,17.38-5.08,10.82,9.79,3,.94,10-8.05.08-6.2,6.79,3.17,36.6,10.24,1.59-3.7,13.93,2.26,8.93-9.21,14.89,13.57-.61.16,5.94-13,7-3.46,46.53-10.76,9.36-5,17.4-12.15,1.42-2.49,8,9.46,3L875,337.7l7.67,8.63,3.2,18.53,7,.24,7.34-10.66,14.48,7.45L919,372l20.81,7.87,10.11-4.1.17,9.87-5.82,8.18,8.63,4.54,24-8.18,10.16.25L994,383l7.67,10.14L993,403.8l-14.92,4.14-.67,8.62-11.27,10.23-18.33,25.37-12.16,8.3-4.5,15.45-10.26,5L909,498.37l-10.77-3.11L883.18,508l-33.75-7.89L846,514.83l-12.69,3.29,3.94,10.29-12.87,5.89,1.37,7.63-11.25,11L801.87,534.3,769.18,515l1.74-11-6.37-.9L761,506,746,492.49l-.88-7.34L737,482.21l2.32-6.62,6.59,1.43-7.7-22.14,6.32-.37-2.34-10.26,6.1-3.88.72-7.32,7.88-6.63,5.8,3.27,2.77-11.51-16-24.16-6.52-19.28a2.35,2.35,0,0,0-2.85-1.51l-4,1.09a1.76,1.76,0,0,1-1.81-.54l-3.1-3.56a.92.92,0,0,1-.11-1c.59-1.07,1.87-3.43,2.57-4.72a1.88,1.88,0,0,1,1.5-1l6.19-.43-12.68-12.82,4.51-4.47-5.8-5.86-6.15,5.72L716,331.22l-10.24.81-3.19-6.35-25.05-4.76-.1-10.23L653.6,309l-2.77-3.93,6.66-7.25-14.75-7,0,2.42-5.15,0-3.13-11.13,11.12-.06,11.9-11.45,10.58-.06,2.3-5.51,12.33-8.11-2.44-9.81.23-3.11-7.59-.13v-8.59l-3.78.62-1.95-2.52v-8.73l5.84-.05.79-5.21,9.29-6.38-3-3.82h6.36l5.09-5,3.24,3,8.12-2.86,6.45,6.25,2.82-3.55,7.53,0,4.41,4.15,7.28-3.12v-8.79l-9.77-2.13L711.6,187.8l-6.73,3.47-17.15-7.37-.17-8.24,3.78-3.72,4-.39,4.76,2.85,7.81-1.76,1.41-6.58L706,159.37l-8.43.12-5.09,2.61-16.79-1.79,0-4.53,6.48,1.38.06-5.28,8.24-5.42-3.79-8.08h-6.92l2.15-5.66,6.18.06,1.33,3.37H692V127l5-3,5.8,0,3.6,8.61,2.9-2.73,4.54-1.78,2.3,3.4,3.19-3.57.16,5.57,8.34.21-1.22-6.5,10.84-.47,4.57.32-.75,7.16L739.85,140l13.61,1.24-1.29-14.79L766,121.64l12-.14.6-5.25,30.3-6.68,8.1,5.77-.33-8.42,25.84-4.2,3.58-3.8,5.87,3.71,10-5.52,6,7.28,6-.08-.33-16.43L886,85.81l-.28-6.89L899,82.83l2.63-7.31,6.34-1Z" transform="translate(-16.4 -14.27)"/><path class="cls-1" d="M1268.17,237.87l-13.06,0-7.61-9.38L1226.88,227l-3.57-23.76-23.15,5-4,6.47-24.73-2.11,2.63-21.7-11.24-12.59-15.6,7.92-8.83-9.72-18.46.55-3.34,12.11-19.45-12,3.41-8.51-10.89-.9L1085.51,153l-16.84,5.25-1.07,11.14-10.93-12.56-15.87,2.22-15.46,18.63,17.82,24.93L1034.49,213l4.33,10.64-32,21.52,3.12,8.71-10.32,13.2-14.23-16.17-12.64,3.77,1.62,13.3-37.06-4.72-3-8.13L921.19,259l-12.79-11.5-1.23,16.73-10.76,9.36-5,17.4-12.15,1.42-2.48,8,9.45,3L875,337.7l7.66,8.63,3.2,18.53,7,.24,7.33-10.66,14.49,7.45L919,372l20.81,7.87,10.11-4.1.17,9.87-5.83,8.18,8.64,4.54,24-8.18,10.16.25L994,383l7.66,10.14,1.13-11.29,14,2,10.29-9,18-1.14L1038.46,412l15,7.11,18.92-16.48L1082.73,415l38.17-6.3,4-18.68,8.28-.2,4-9.57,9.42-2,5.25-9.07,17.66,2.79-2.06,11.48-.09,7.19,8.68-3.2,8.68,3.9,4.25-9.25,8.89,2.24,5.12-10.44,18.66-14.59,19.76-8.75,9.12-9.33-18.49-9.39,12.65-4.23,12.48,1.67L1268.59,315l13.7-2.23-8.86-7-10.19-1.11L1262,291l9.87-7.31Z" transform="translate(-16.4 -14.27)"/><path class="cls-1" d="M312.87,679.93l44.09,2,17.37-8.66,56.43,6.78,12.08-10.38,8.22,8.38L454,688l15.71.69,6.58,10.78,8.16,54.68L452.83,765l-.48,230.52-16.29,1.87-.71,3.22-9.2-2.36-26.62-44.33L371,931.13l-30.91,5.35-24.6,10.1L293,966.36a1.42,1.42,0,0,1-2.36-1c-.05-1.13-.1-2.35-.14-3.21A4,4,0,0,1,291,960c.45-.78,1.08-1.91,1.59-2.82a3.16,3.16,0,0,0,0-3.12l-2.82-5a3.59,3.59,0,0,1,.11-3.75L292,942.1l11.35-24.7a3.46,3.46,0,0,0,.29-1.23c.06-1.28.19-4.22.27-6.09a2.79,2.79,0,0,0-1.38-2.54c-2.48-1.49-7.51-4.47-9.79-5.83a2.55,2.55,0,0,0-2.4-.1l-3.59,1.76a1.77,1.77,0,0,1-1.26.08l-4.74-1.59a2,2,0,0,1-1.32-1.54l-.25-1.35a1.27,1.27,0,0,0-1.36-1l-4.93.39a1.15,1.15,0,0,0-.9.57l-.82,1.41a2.11,2.11,0,0,1-1.95,1.05l-3.47-.2a2.12,2.12,0,0,1-2-1.89c-.11-1-.24-2.21-.33-2.94a1.37,1.37,0,0,0-.67-1.05l-1.94-1.15a2,2,0,0,1-.95-1.53c-.09-1-.22-2.64-.32-3.73a1.28,1.28,0,0,0-1.27-1.18l-1.41,0a2.18,2.18,0,0,1-2.13-2c-.07-1.2-.16-2.7-.23-3.81a1.85,1.85,0,0,0-1.65-1.73l-5.27-.58a2.6,2.6,0,0,0-1.59.34l-5.64,3.28a2.16,2.16,0,0,1-2.16,0,2.19,2.19,0,0,1-1.11-1.85c0-1.85-.09-4-.13-5.35a3,3,0,0,1,1-2.32l1-.89a3.53,3.53,0,0,0,1.18-2.78c-.13-3.62-.45-11.87-.45-11.87l-14.24-15.67a1.66,1.66,0,0,1-.43-1.33c.14-1.32.44-4.08.65-5.94a2,2,0,0,0-1.67-2.22l-3.14-.55a2.42,2.42,0,0,1-2-2.33c-.05-2.25-.13-5.83-.17-7.68a1.22,1.22,0,0,0-1.22-1.2h0a1.92,1.92,0,0,1-1.92-1.82c0-.61-.07-1.27-.09-1.77a1.05,1.05,0,0,0-.95-1l-1.09-.1a2.47,2.47,0,0,1-2.11-1.79c-.1-.37-.21-.77-.31-1.16a3,3,0,0,0-3-2.21l-8.08.16a9.75,9.75,0,0,1-7.64-3.45l-2.15-2.54a5.27,5.27,0,0,1-1.25-3.19c-.07-1.87-.19-4.76-.27-6.63a4.81,4.81,0,0,1,1.08-3.24l2.71-3.32a5.25,5.25,0,0,1,4.31-1.91l8.68.43,11,.17a4.66,4.66,0,0,1,3.65,1.88c1.55,2.11,4.09,5.56,5.64,7.65a4.14,4.14,0,0,0,3.53,1.69l2.94-.13a4,4,0,0,0,3.74-3.18c.25-1.23.54-2.64.79-3.83a6.15,6.15,0,0,0-1.21-5l-9.27-11.66a4,4,0,0,1-.86-2.43c0-1.45,0-3.82-.07-5.92a5.24,5.24,0,0,1,4.22-5.21l2.24-.46a4.34,4.34,0,0,0,3.47-3.95c.1-1.52.22-3.25.31-4.57a5.41,5.41,0,0,1,1.62-3.5l5.17-5a4,4,0,0,1,3-1.14l4.26.18a3.44,3.44,0,0,0,2.52-.91l5-4.53a3.52,3.52,0,0,1,2.45-.93l11,.17a2.39,2.39,0,0,1,1.36.46l3.76,2.76a2.69,2.69,0,0,0,1.84.52l16.22-1.29a5.46,5.46,0,0,1,3.07.65l2,1.1a3.21,3.21,0,0,0,4.49-1.59l1.32-3.19a3.85,3.85,0,0,0,0-2.87l-1.74-4.42a3.83,3.83,0,0,1,.74-4l4.55-5a12.7,12.7,0,0,0,1.93-2.8c.93-1.85,2.45-4.84,3.05-6a2.45,2.45,0,0,0,.28-1.09c0-.84,0-2.41.06-3.61a2.55,2.55,0,0,0-1.39-2.32L309,702.75l-.25-.11-5.45-1.95a2.3,2.3,0,0,1-1.12-3.44c.61-.91,1.28-1.89,1.79-2.66a3.3,3.3,0,0,1,2.42-1.43l4.08-.38a1.45,1.45,0,0,0,1.2-.85c.7-1.5,2.13-4.76,2-6.37C313.53,683.44,312.87,679.93,312.87,679.93Z" transform="translate(-16.4 -14.27)"/><path class="cls-1" d="M155.52,687,142.3,675.69l-17-6.31-1.21-5-11.52-.86,3.11-3.6-5.82-3.83,2.82-5.72,4.89-.75,4,5.07,6,.1,6.46-5.06-13.76-22.1L112,606.16l-4.81-.36-9.63-17.66-8-5.42-17.59.16-10.79-5.21-1.39,10.4-7.11-4.17-8-17.14,7.16-4.43-5.42-2.74,1.09-11.08L79.8,551l66.5,15.3,27.88-5.83,15.93-19.18,46.45-27,17.89,2.8,3.49,8.41,31.27,5.54L303.45,493l28.46-.66,8.19-14.16,15.83,7.31,2.65,26.71,22.87,8.08L387,509.52l13,5.05L396.92,535l4.4,9.5-1.12,9.78,7.18,11.3L404.57,622,426,652.27l35.16,13.45,8.55,23L454,688l-2.94-10-8.22-8.38-12.08,10.38-56.43-6.78L357,681.94l-44.09-2s.53-5,1-9.18a8.41,8.41,0,0,0-4.06-8.08l-2.26-1.34a3.83,3.83,0,0,1-1.87-3.29v-3.71a6.2,6.2,0,0,0-4.11-5.85l-2.58-.93a8.29,8.29,0,0,0-8.37,1.64l-1.38,1.24a15.39,15.39,0,0,1-15.78,2.93l-23.64-9a30.23,30.23,0,0,0-7.24-1.8c-9.48-1.2-18.95-2.79-28.43,2.87l-4.18,3a8.36,8.36,0,0,1-7.74,1.09l-2.09-.76-2-.44a8.48,8.48,0,0,0-7.09,1.62l-14.6,11.51a7.61,7.61,0,0,0-2.9,5.71c-.18,4.61-.47,12.42-.57,15a2.27,2.27,0,0,1-.62,1.48l-1.12,1.18a2.72,2.72,0,0,1-2.14.85,2.76,2.76,0,0,1-2-1.07h0a4.5,4.5,0,0,0-6-1.1Z" transform="translate(-16.4 -14.27)"/><path class="cls-1" d="M47.4,548.51l-29-11.42L31.28,503l9.65-7.34,3.16-9.82L31.65,474l5.56-37.38,12.52-4.51,7.34-9.1.61-4-4.39-5.15,4.12-3.36-2.15-4.82,11.39-11.36,4.41-.05,21.49,26.53L98,436.55l4.49.1,5.14,4.91,20.82-15.3-1.51-5.82h-4.44l2.19-5.23-3.8-5.44L118,386l-4.27-3.71,1.85-2.05,9.11,4.42L138.83,371l13.52-4.21v-7.64l-3.68-2.31,2.35-7.89,2.94-2.18L168.31,348l6.53-7.08,20.82-9.39,0-7.06,5.69-.06,3.13-3.6.51-12.17,7.36,1,1.43-10.43,5.16,1.68.23,4.74,17.62-.15,1.68,3.63L242,309l-.16,5.49-6.55,0,2.06,5.51,9.85.35,4.42-4.65,2.72,7.2,7-3.33L259.47,313l3.81-6.36,11.32.73,3.35-5.29,8.19-2.85,9.19,23.26,4-2.46,2.25,2.33,3.9-4.67,2.16,2.21,3.22-1.34-1,2.33,2.88-1.16.86,2.81.91-2.63,9.15,0v-3.85l4.36,4.4h5.84l1.76,3.42,6.13,0,5.38,15.05,15.43,4.54,5.58,4.41.06,7.19,5.92,4,.05,3.85,6.48,5.41,1.51,16.85-7.64,14.08,12.82,24.2-11.11,17.32,2.72,9.94-11.33,6-12.23-3.5-13.49,7.22-1.79,17.71-8.19,14.16-28.46.66-14.24,38.07-31.27-5.54-3.49-8.41-17.89-2.8-46.45,27-15.93,19.18-27.88,5.83L79.8,551Z" transform="translate(-16.4 -14.27)"/><path class="cls-1" d="M911.52,81.36l33.22-11.44,12,.12,6.82-3,4-.64,1.74-4.08,20.85-.76,3.54-8.76,17,2.12.1-7.41,3.4-.57-6-10.67,20.32.05,5.89-14.75,11.37,7.7,0-6.41-3.72.09-.12-6.67,10.49,4,2,5.56,6.48-2.93,18.9,1.43,9.65,11.2,11,4.63,9.29-5.53,3.07-5.49,6.84,2.73,8.82-2.64,4.52,12.5,5.38,3.62-3.1,15,5.92,15.39,9.07,2.49-.12,5-3.59-.19-2,3.37,3.24,12.26-1.49,7.86-9.82-2.2,8.71,19,5.54-6.72,8,1.7.41,4.82L1170,123l.92-8.4,8,.39,6.47,8.48,7.15-7-5.67-4.62,2-4.61L1182,104l6.47-10.12,12.57,7.2-.21,13.46,6.85,3.23-1.82,5.22-6.58,1,3.06,3-4.09,8,6.59,3.44,2.8-6.56,7.73,2.88,2.7-7.4-4.67-1.73,3.94-4.67,10.47,2,.13,4.49,3.16,0,.43,4.63,9,3,2.85-4.09-.05-2.85,5.52,3.63-.54-8.53,8.25,1.75,6.35,1.6-2.51,14.83L1248.86,140l0,5.48-5.13,1.4-.16,7.76-3.66,1-.64,8.66,7.11,3.32.36,7,2.41,6.78-6.34,1.64-1.17,2.13,2,6.29,8.62-3,6,4.06-9.62,9.53,3.42,15.52,12.55-5.66,7,1.85-1.93,9-10.41,1.67,8.85,13.44-13.07,0-7.6-9.38L1226.87,227l-3.56-23.76-23.15,5-4,6.47-24.73-2.11,2.63-21.7-11.23-12.59-15.6,7.92-8.84-9.72-18.46.55-3.34,12.11-19.45-12,3.41-8.51-10.89-.9L1085.51,153l-16.83,5.25-1.08,11.14-10.92-12.56-15.87,2.22-15.47,18.63,17.82,24.93L1034.5,213l4.31,10.64-32,21.52,3.11,8.71-10.32,13.2-14.23-16.17-12.64,3.77,1.62,13.3-37.06-4.72-3-8.13L921.19,259l-12.79-11.5,2.23-29.8,13-7-.16-5.94-13.57.61,9.21-14.89-2.26-8.93,3.7-13.93L910.26,166l-3.17-36.6,6.2-6.79,8.05-.08-.94-10-9.79-3,5.08-10.82Z" transform="translate(-16.4 -14.27)"/><path class="cls-2" d="M1090.28,299.16,1095.2,284l27.09-21,31.91,10.31,16,.14L1170,284l5.32,15.31,16.27,16,5.15,15.57h-15.62l-5.11,5.19-43.19,26.36-26.69-5.1-16.08-10.76Z" transform="translate(-16.4 -14.27)"/><path class="cls-3" d="M994.69,923.3l25.48-29.46,12.91-4.31,29.57,8.16,17,16.92,21.79,13.07-.06,13.09-12.85,4.14-.08,12.14-12.71-3.87-8.39,4.13-17,17.4-25.79-.11-21.23-29.69,0-8.55Z" transform="translate(-16.4 -14.27)"/><path class="cls-3" d="M1385.19,801l-6.17-5.62,12.27-20,21,2,21.46-12.74,19,5.81-6.41,42.73,6.29.25,6,18.25,19,6.47L1465,850.13l.14,36.91-12.55.18-18.47-6.31-12-12.27-36.67-18.45Z" transform="translate(-16.4 -14.27)"/></svg>