<?xml version="1.0" encoding="utf-8"?>
<!-- Generator: Adobe Illustrator 24.1.0, SVG Export Plug-In . SVG Version: 6.00 Build 0)  -->
<svg version="1.1" id="Слой_1" xmlns:serif="http://www.serif.com/"
	 xmlns="http://www.w3.org/2000/svg" xmlns:xlink="http://www.w3.org/1999/xlink" x="0px" y="0px" viewBox="0 0 1920 1080"
	 style="enable-background:new 0 0 1920 1080;" xml:space="preserve">
<style type="text/css">
	
		.st0{fill-rule:evenodd;clip-rule:evenodd;fill:#EEF2F4;stroke:#343B4C;stroke-width:4;stroke-linecap:round;stroke-linejoin:round;stroke-miterlimit:10;}
	
		.st1{fill-rule:evenodd;clip-rule:evenodd;fill:#D5392E;stroke:#343B4C;stroke-width:4;stroke-linecap:round;stroke-linejoin:round;stroke-miterlimit:10;}
	
		.st2{fill-rule:evenodd;clip-rule:evenodd;fill:#234478;stroke:#343B4C;stroke-width:4;stroke-linecap:round;stroke-linejoin:round;stroke-miterlimit:10;}
</style>
<path class="st0" d="M846,514.8l3.4-14.7l33.7,7.9l15.1-12.7l10.8,3.1l11.9-17.4l10.3-5l4.5-15.5l12.2-8.3l18.3-25.4l11.3-10.2
	l0.7-8.6l14.9-4.1l8.6-10.7l1.1-11.3l14,2l10.3-9l18-1.1l-6.5,38.3l15,7.1l18.9-16.5l10.4,12.3l38.2-6.3l4.1-18.7l8.3-0.2l4-9.6
	l9.4-2l5.3-9.1l17.7,2.8l-2.1,11.5l-0.1,7.2l8.7-3.2l8.7,3.9l4.3-9.3l8.9,2.2l5.1-10.4l18.6-14.6l19.8-8.7l9.1-9.3l-18.5-9.4
	l12.6-4.2l12.5,1.7l19,16.8l0.1,18.5l-6.6,5l-1.1,5.8l32.5,1.8l20,27.6l-13.3,8.2l3.5,12.7l22.7-15.1l60.2-9l6.8-23.7l12.5,0.3
	l18.3,8.6l5.7,5.9l-2.5,11.7l4.3,4.4l-23.5,19.3l-2.9,20.3l2.7,8.8l-0.2,4.7l10.5,5.7l-1.9,11.8l-13.1,11.1l14.1,21.7l-10.6,17.7
	l-8.5,0.3l-5.4,8.4l10.5,6.2l8.6,15.8l-10.3,12.7l-1.9,27.3l-4.5,15.3l4.8,8.9l11.4-6.5l10.7,2.1l2.2,43.7l-26.7,2.7l-52-13.1
	l-42.5,6.4l-9.5,15l-26,23l-316.5,1.1l-3-10.9l-67.9-1.5l-21.3-19.5l-9.2,2.4l-21.4-14.9L787,638.5L769.9,626l-16,3.8l7.1-7.9
	l23.9-22.6l28.6-15.3l12.8-13.9l-11.7-17.3l11.3-11l-1.4-7.6l12.9-5.9l-3.9-10.3L846,514.8z"/>
<path class="st0" d="M1528.2,326.5l-24.2,6c-15.9,4.1-21,11.7-19.3,21.4l5.9,22c5.6,15.1,4.8,29.7-4.3,43.8l-18.4,6.2l-11.9-0.1
	l-20.9-21.5l2.5-11.7l-5.7-5.9l-18.3-8.6l-12.5-0.3l-6.8,23.7l-60.2,9l-22.7,15.1l-3.5-12.7l13.3-8.2l-20-27.6l-32.5-1.8l1.1-5.8
	l6.6-5l-0.1-18.5l-19-16.8l11.4-14.3l13.7-2.2l-8.9-7l-10.2-1.1l-1.2-13.7l9.9-7.3l-3.7-45.8l-8.9-13.4l10.4-1.7l1.9-9l-7-1.9
	l-12.6,5.7l-3.4-15.5l9.6-9.5l-6-4.1l-8.6,3l-2-6.3l1.2-2.1l6.3-1.6l-2.4-6.8l-0.2-3.9l10.9-5.3l0.8-5.5l7.7,3.6l3.7-6l7.5,1.5
	l-0.5,5.1l8.5-1.7l2.1,7l4.3,3.4l5-8.9l-3.6-1.9l1.7-8l8.3,2.1l1-6.8l5.1,1.6l0.7-7.1l12.7,2.7l17.2-13.5l-3-8l14.6-3.7l22.5-10.1
	l3.2-9.2l9.1,3.9l9.7-1.4l2.6-6.8l8.9-3.1l1.7,3.5l-7.6,2.9l4.4,5.8l-5.5,11.1l-5.9,3.5l-1.2-3.8l-8-0.2l2.7,10.2l64.6,57.6
	L1528.2,326.5z"/>
<path class="st0" d="M1441.2,622.6l-21.9-4.3l-11.4,6.5l-4.8-8.9l4.5-15.3l1.9-27.3l10.3-12.7l-8.6-15.8l-10.5-6.2l5.4-8.4l8.5-0.3
	l10.6-17.7l-14.1-21.7l13.1-11.1l1.9-11.8l-10.5-5.7l0.2-4.7l-2.7-8.8l2.9-20.3l23.5-19.3l16.6,17.1l11.9,0.1l18.4-6.2
	c9-14.1,9.9-28.7,4.3-43.8l-5.9-22c-1.7-9.7,3.5-17.3,19.3-21.4l24.2-6l15.6,32.3l7.3,7.2l5.6-2.9l13.9-5.7l-3-17.2l9.9,0.7l1.2-8.5
	l11.7,4.2l-0.1,3.5l5.4,2.6l2.9-3l3.1,6.2l-5.8,13.9l16.4-2.2l3.6,11.3l10.8,4.7l2-5l1.5,3.4l8.9-1.1l8.2,4.2l8-3.7l9.2,3l8.3-7.3
	l0-6.5l10.8,3.9l6.8-9.7l14.9-0.1l2.1,4.7l7.1-0.2l2.6,4.6l5.9,0c5.1,10.4,11.3,19,18.6,25.7l-2,4.7l5.9,17.8l6.4-2.2l7.9,2.6
	l9.6,8.7l8.3,2.6l-2.4,10.2l9.9,11.5l2.8,11.2l5.8-3l4.5,2.5l5-1.7l3.6,4.6l11.8-0.7l1.6,5.9l7-2.9l4.2,3.9l-0.5-8.3l5.3-4.4
	l7.2-8.6l0.1-7c7.7-6.6,14.3-7,19.1,2.5l-0.3,8l-5.5,1.6l-1.8,7l9.2,1.5l-4.5,8.6l5.3,2.4l-0.9,5.2l5,6.8l13.7,0.2l-2.8,8.6l-17-1
	l-7.3,14.4l3.2,6.5l-5,13l-4.9,6.1l-14.7,6.1l-2,3.2l-21.6,0.7l-9.5,18.1l2.8,41.5l4.5,10.6l-6.6,22.2l-15.9-0.3l-11.7,13.2
	l-11.1-10.4l-37.1,3l-15.4-5.5l-9.1-8.6l-15.3-3.4l-25.9,82.6l-6.1,3.2l-3,23.6l-5.6,0.7l-0.9-12.3l-27.9-39.8l2.6-8.2l-4.2-5
	l-6.5,2.6l-4.5-3.1l-10.8,0.5l-12.9-3.8l-6-6.4l-14.3-2.2l-9.1-11.2l-31.1,5.6l-11.9-20l-17,1.7l-27.9-15.3l-7.3,8.8l-7.6-4.6
	L1441.2,622.6z"/>
<path class="st0" d="M1265.1,714.7l10.4-16.5l26-23l9.5-15l42.5-6.4l52,13.1l26.7-2.7l-2.2-43.7l11.2,2.2l7.1-6.5l7.6,4.6l7.3-8.8
	l27.9,15.3l17-1.7l11.9,20l31.1-5.6l9.1,11.2l14.3,2.2l6,6.4l12.9,3.8l10.8-0.5l4.5,3.1l6.5-2.6l4.2,5l-2.6,8.2l27.9,39.8l0.9,12.3
	l5.6-0.7l12.3,10.1l1.2,13.9l-4.1,2.4l-8.7-4.6l-7,2.4l-2.9-2.6l-6.6,1.1l-8.9-9.5l-37,16.2l-8.4-2.5l-4.9,3.7l-6.3-1.5l-3.7,5.1
	l-14.2,0l0.1,3.4l-9.6,6.2l4.2,1.2l0,5.3l8.7-2.7l2,6.8l8.9,7.1l-2.9,8.9l3.1,11.3l-0.9,7.1l3.1,10.5l-0.6,3.5l2.9,9l11.6,24.1
	l-4.3,7.9l5.5,1.2l0.1,10.7l-9.3-0.1l-9.7,7.3l10.6,8.3l-9.9,3.4l-6.3,0.2l-4.2,13.5l5.1,5.3l-3.2,5.8l3.6,11.6l-5,2.3l-14.2-12.3
	l-15.6-2.4l-14.7-13.1l0.1-9.2l-7.7,3.6l-11.6-4l-5.1,0.5l-7.7-5.7l-6.1,3.1l-14.9-0.1l-21.7-5.6l-14.8,2.1l-2.8-2.8l-15.4-1.6
	l-4.9,4.4l-9.6-1.1l-8.3,4.2l-2.3-3.5l-12.1,0.1l-3.7-3l-5.3,1l-2.2,5l-8.6-9.2l-0.3-5.9l-9.9-4.7l-4.3-8l2.1-8l-5.3-10.5l-7.3-4.4
	l3.8-4.2l-4.6-10l5.2-23.3l-6.5-5.9l-22-9.5l-2.7-17.6l-18.2-13.3l0.5-15.3l-9.8-22L1265.1,714.7z"/>
<path class="st0" d="M1046.9,698.9l2.9,9l5.4,4.9l-1.3,7.1c9.1,21.8,18.2,48.2,27.1,86.2l-9.2,40.3l-8.7,13.1l5.3,11.3l23.8,8.2
	l7.8,15.6l-0.8,11l22.2,16.6l10.4,17.6l3.3-1.9l-3.1-3.7l4.5-10.2l5,0l-3.8-5.6l6.4,0l5.1-12.3l9.8-0.9l6.1,1.8l13-4.7l10.7,6.9
	l5.3-3.1l11.9,6.7l7.3-0.1l10.2,9l18.7,0.4l1.8,6.3l8.5,0.3l2.2-4.2l-1.4-9.4l4.4-11.7l0.9-12.3l7.4-6.9l3.6,1.5l3.1-7.3l2.9,3
	l7.4-0.8l0-5l4.7,1.4l18.3,13.5l25.6,10.3l20.6,4.2l2.8-4.4l-8.6-9.2l-0.3-5.9l-9.9-4.7l-4.3-8l2.1-8l-5.3-10.5l-7.3-4.4l3.8-4.2
	l-4.6-10l5.2-23.3l-6.5-5.9l-22-9.5l-2.7-17.6l-18.2-13.3l0.5-15.3l-9.8-22l-2-13.9l10.4-16.5L1046.9,698.9z"/>
<path class="st0" d="M959,699.2l87.9-0.3l2.9,9l5.4,4.9l-1.3,7.1c12.7,31.1,21,59.3,27.1,86.2l-9.2,40.3l-8.7,13.1l5.3,11.3
	l23.8,8.2l7.8,15.6l-0.8,11l22.2,16.6l10.4,17.6l-6.1,2.8l-5.1,11.1l-6.7-6.2l-5.6,2.1l-7.7,13l-12.8,9.4l-13.3,2.5l-4.2,6.7
	l-3.7-0.5l-2.4,3.6l3.2,2.7l-12,0l-1.3,4.2l-6.8,1.4l0,10l-4.5,4.4l-3.1,3.7l2.3,3.6l-9,2.2l-6.2-7.3l-2.1-2.1l-5.4,2.8l-1,2.9
	l5.6,8.2l5.8,10.9l-6.8,9l-25.5-14.5l6.3-4.2l-0.4-3.6l-3.1-2.5l5.3-8.5l-2.8-2.5l-11.9,8.4l-0.1-7.2l-49.4,0.3l-7.8-44.5l-24.7-3.7
	l0.3-26.2l4.2-1l0-3l74.4-52.6l-3.1-8.1l-4.9-0.2l7.7-6.2l3.1-15l10.2-18.5l-11.7-8.6l-3.3-7.9l-14-5.4l1.1-52.5l-4.5,0.2l-11-12.9
	l5.9-9.2l3.6-20.5l-6.3-5.9L959,699.2z"/>
<path class="st0" d="M572.7,728.1l3.5-16.8l5.4-7l7.2,0.5l5.2-18.9l24.7-31.5l18.8-16.7l8.6-0.8l2.6-21.4l26.4,0.9l18.2-39.7
	l29.3,1.6l9.5,15.9l8.6,0.7l9.2,14.5l0.7,7.7l10.4,4.9l-7.1,7.9l16-3.8l17.1,12.5l49.1,16.1l21.4,14.9l9.2-2.4l21.3,19.5l67.9,1.5
	l4.6,16.4l6.3,5.9l-3.6,20.5l-5.9,9.2l11,12.9l4.5-0.2l-1.1,52.5l14,5.4l3.3,7.9l11.7,8.6L990.4,846l-3.1,15l-7.7,6.2l4.9,0.2
	l3.1,8.1l-74.4,52.6l0.1-32.6l-11.5,5.4l-13.6-27.9L872,861.9l-8.1-14.4l-3.9-1.2l-17.5,9.8l-57.9-4.6l-36,7.9l-22.5,0.9l-38.9-44.7
	l-1.3-9.3l-51.5-41.5L572.7,728.1z"/>
<path class="st0" d="M705.8,332l10.2-0.8l5.1,14.4l6.2-5.7l5.8,5.9l-4.5,4.5l12.7,12.8c0,0-4.4,0.3-6.3,0.4c-0.6,0-1.1,0.4-1.3,0.9
	c-0.7,1.3-2.1,3.8-2.7,4.9c-0.2,0.3-0.1,0.7,0.1,0.9c0.7,0.8,2.3,2.6,3.2,3.7c0.4,0.5,1.1,0.7,1.7,0.5c1.2-0.3,3.2-0.9,4.6-1.3
	c0.9-0.2,1.8,0.3,2.1,1.1c1.7,4.9,6.7,19.8,6.7,19.8l16,24.2l-2.8,11.5l-5.8-3.3l-7.9,6.6l-0.7,7.3l-6.1,3.9l2.3,10.3l-6.3,0.4
	l7.7,22.1l-6.6-1.4l-2.3,6.6l8.2,2.9l0.9,7.3L761,506l3.6-2.9l6.4,0.9l-1.7,11l32.7,19.3l24.3,35.9l-12.8,13.9l-28.6,15.3L761,621.9
	l-10.4-4.9l-0.7-7.7l-9.2-14.5l-8.6-0.7l-9.5-15.9l-29.3-1.6l-18.2,39.7l-26.4-0.9l-2.6,21.4l-8.6,0.8l-18.8,16.7l-24.7,31.5
	l-5.2,18.9l-7.2-0.5l-5.4,7l-3.5,16.8l-2.3-1.6l-86,27.7l-8.2-54.7l-6.6-10.8l-8.5-23L426,652.3L404.6,622l2.8-56.4l-7.2-11.3
	l1.1-9.8l-4.4-9.5l3.1-20.4l-13-5.1l-5.6,10.8l-22.9-8.1l-2.7-26.7l-15.8-7.3l1.8-17.7l13.5-7.2l12.2,3.5l11.3-6l-2.7-9.9l11.1-17.3
	l-12.8-24.2l7.6-14.1l4.2,4.2l8.6-6.7l1.7-13.5l-8.1-9.7l-0.5-6l7.2-1.3l7.3,8.1l8.6,0.3l1.9,3.2l-3.8,4.7l14.8,11.9l6.4-1.2
	l0.7,3.9l8.3,4.9l19.2-14.1l2-14.1l3.7,2.2l4.3,0.1l0.4-4l4.6,0l1.9-8.6l5.3,7.5l5,0.5l-1.2-7.4l13,1.3l8.7-4.3l1.3,5.9l3.7-0.3
	l1.7,7.5l8.4,4.8l2.3-4.5l8.8,1.4l1-16.1l7.1,4.2l6.8-3.4l0.2,4.2l4.3,0.3l0.9-4.6l6.6-3.3l1.6,7.2l6.7-0.4l3.1,2.8l-0.3,12.8
	l4.7-1.6l-1.5,5.9l4.8-0.9l6.6,9.2l14.8,1.5l1.7,2.5l9.4-0.5l4.1,3.8l-4.8,0.2l2.5,6.5l13.6-2.8l8.4-9.9l-1.2-7.5l3.4-5l6.1,0.8
	l-1.3,2.3l8.4,10l22.2,0.4l29-11l4.5-31.7l4.8-1.1L705.8,332z"/>
<path class="st0" d="M908.4,82.4l3.1-1l4.2,17.4l-5.1,10.8l9.8,3l0.9,10l-8,0.1l-6.2,6.8l3.2,36.6l10.2,1.6l-3.7,13.9l2.3,8.9
	l-9.2,14.9l13.6-0.6l0.2,5.9l-12.9,7l-3.5,46.5l-10.8,9.4l-5,17.4l-12.2,1.4l-2.5,8l9.5,3L875,337.7l7.7,8.6l3.2,18.5l7,0.2
	l7.3-10.7l14.5,7.4L919,372l20.8,7.9l10.1-4.1l0.2,9.9l-5.8,8.2l8.6,4.5l24-8.2l10.2,0.3l6.9-7.5l7.7,10.1l-8.6,10.7l-14.9,4.1
	l-0.7,8.6l-11.3,10.2l-18.3,25.4l-12.2,8.3l-4.5,15.5l-10.3,5L909,498.4l-10.8-3.1L883.2,508l-33.7-7.9l-3.4,14.7l-12.7,3.3
	l3.9,10.3l-12.9,5.9l1.4,7.6l-11.2,11l-12.6-18.6L769.2,515l1.7-11l-6.4-0.9L761,506L746,492.5l-0.9-7.3l-8.2-2.9l2.3-6.6l6.6,1.4
	l-7.7-22.1l6.3-0.4l-2.3-10.3l6.1-3.9l0.7-7.3l7.9-6.6l5.8,3.3l2.8-11.5l-16-24.2c0,0-4.7-13.9-6.5-19.3c-0.4-1.2-1.6-1.8-2.8-1.5
	c-1.3,0.4-2.9,0.8-4,1.1c-0.7,0.2-1.4,0-1.8-0.5c-0.9-1-2.4-2.7-3.1-3.6c-0.2-0.3-0.3-0.7-0.1-1c0.6-1.1,1.9-3.4,2.6-4.7
	c0.3-0.6,0.9-0.9,1.5-1c2-0.1,6.2-0.4,6.2-0.4l-12.7-12.8l4.5-4.5l-5.8-5.9l-6.2,5.7l-5.1-14.4l-10.2,0.8l-3.2-6.4l-25.1-4.8
	l-0.1-10.2l-23.9-1.7l-2.8-3.9l6.7-7.2l-14.7-7l0,2.4l-5.1,0l-3.1-11.1l11.1-0.1l11.9-11.5l10.6-0.1l2.3-5.5l12.3-8.1l-2.4-9.8
	l0.2-3.1l-7.6-0.1v-8.6l-3.8,0.6l-2-2.5l0-8.7l5.8,0l0.8-5.2l9.3-6.4l-3-3.8l6.4,0l5.1-5l3.2,3l8.1-2.9l6.5,6.3l2.8-3.5l7.5,0
	l4.4,4.1l7.3-3.1l0-8.8l-9.8-2.1l-10.1-9.4l-6.7,3.5l-17.1-7.4l-0.2-8.2l3.8-3.7l4-0.4l4.8,2.8l7.8-1.8l1.4-6.6l-3.3-6.7l-8.4,0.1
	l-5.1,2.6l-16.8-1.8l0-4.5l6.5,1.4l0.1-5.3l8.2-5.4l-3.8-8.1l-6.9,0l2.2-5.7l6.2,0.1l1.3,3.4l2.6,0l0-9.2l5-3l5.8,0l3.6,8.6l2.9-2.7
	l4.5-1.8l2.3,3.4l3.2-3.6l0.2,5.6l8.3,0.2l-1.2-6.5l10.8-0.5l4.6,0.3l-0.7,7.2l-1.5,5.7l13.6,1.2l-1.3-14.8l13.8-4.8l12-0.1l0.6-5.2
	l30.3-6.7l8.1,5.8l-0.3-8.4l25.8-4.2l3.6-3.8l5.9,3.7l10-5.5l6,7.3l6-0.1l-0.3-16.4l12.5-2.1l-0.3-6.9l13.3,3.9l2.6-7.3l6.3-1
	L908.4,82.4z"/>
<path class="st0" d="M1268.2,237.9l-13.1,0l-7.6-9.4l-20.6-1.5l-3.6-23.8l-23.1,5l-4,6.5l-24.7-2.1l2.6-21.7l-11.2-12.6l-15.6,7.9
	l-8.8-9.7l-18.5,0.5l-3.3,12.1l-19.4-12l3.4-8.5l-10.9-0.9l-4.2-14.6l-16.8,5.3l-1.1,11.1l-10.9-12.6l-15.9,2.2l-15.5,18.6
	l17.8,24.9l-8.7,10.3l4.3,10.6l-32,21.5l3.1,8.7l-10.3,13.2l-14.2-16.2l-12.6,3.8l1.6,13.3l-37.1-4.7l-3-8.1l-13.1,3.8l-12.8-11.5
	l-1.2,16.7l-10.8,9.4l-5,17.4l-12.2,1.4l-2.5,8l9.5,3L875,337.7l7.7,8.6l3.2,18.5l7,0.2l7.3-10.7l14.5,7.4L919,372l20.8,7.9
	l10.1-4.1l0.2,9.9l-5.8,8.2l8.6,4.5l24-8.2l10.2,0.3l6.9-7.5l7.7,10.1l1.1-11.3l14,2l10.3-9l18-1.1l-6.5,38.3l15,7.1l18.9-16.5
	l10.4,12.3l38.2-6.3l4.1-18.7l8.3-0.2l4-9.6l9.4-2l5.3-9.1l17.7,2.8l-2.1,11.5l-0.1,7.2l8.7-3.2l8.7,3.9l4.3-9.3l8.9,2.2l5.1-10.4
	l18.7-14.6l19.8-8.7l9.1-9.3l-18.5-9.4l12.7-4.2l12.5,1.7l11.4-14.3l13.7-2.2l-8.9-7l-10.2-1.1l-1.2-13.7l9.9-7.3L1268.2,237.9z"/>
<path class="st0" d="M312.9,679.9l44.1,2l17.4-8.7l56.4,6.8l12.1-10.4l8.2,8.4l2.9,10l15.7,0.7l6.6,10.8l8.2,54.7L452.8,765
	l-0.5,230.5l-16.3,1.9l-0.7,3.2l-9.2-2.4l-26.6-44.3L371,931.1l-30.9,5.3l-24.6,10.1c0,0-16.5,14.4-22.5,19.8
	c-0.4,0.4-1,0.5-1.5,0.2c-0.5-0.2-0.8-0.7-0.9-1.2c-0.1-1.1-0.1-2.4-0.1-3.2c0-0.7,0.1-1.5,0.5-2.1c0.4-0.8,1.1-1.9,1.6-2.8
	c0.5-1,0.5-2.2,0-3.1c-0.8-1.4-2-3.5-2.8-5c-0.7-1.2-0.6-2.6,0.1-3.7c1-1.5,2.2-3.3,2.2-3.3s9.6-20.9,11.3-24.7
	c0.2-0.4,0.3-0.8,0.3-1.2c0.1-1.3,0.2-4.2,0.3-6.1c0-1-0.5-2-1.4-2.5c-2.5-1.5-7.5-4.5-9.8-5.8c-0.7-0.4-1.6-0.5-2.4-0.1
	c-1.1,0.5-2.7,1.3-3.6,1.8c-0.4,0.2-0.8,0.2-1.3,0.1c-1.1-0.4-3.4-1.1-4.7-1.6c-0.7-0.2-1.2-0.8-1.3-1.5c-0.1-0.4-0.2-0.9-0.2-1.4
	c-0.1-0.6-0.7-1.1-1.4-1c-1.4,0.1-3.8,0.3-4.9,0.4c-0.4,0-0.7,0.2-0.9,0.6c-0.2,0.4-0.5,0.9-0.8,1.4c-0.4,0.7-1.2,1.1-2,1.1
	c-1-0.1-2.4-0.1-3.5-0.2c-1-0.1-1.9-0.9-2-1.9c-0.1-1-0.2-2.2-0.3-2.9c0-0.4-0.3-0.8-0.7-1.1c-0.5-0.3-1.3-0.8-1.9-1.2
	c-0.5-0.3-0.9-0.9-1-1.5c-0.1-1-0.2-2.6-0.3-3.7c-0.1-0.7-0.6-1.2-1.3-1.2c-0.4,0-0.9,0-1.4,0c-1.1,0-2.1-0.9-2.1-2
	c-0.1-1.2-0.2-2.7-0.2-3.8c-0.1-0.9-0.8-1.6-1.6-1.7c-1.6-0.2-4-0.4-5.3-0.6c-0.6-0.1-1.1,0.1-1.6,0.3c-1.2,0.7-3.6,2.1-5.6,3.3
	c-0.7,0.4-1.5,0.4-2.2,0c-0.7-0.4-1.1-1.1-1.1-1.8c0-1.9-0.1-4-0.1-5.4c0-0.9,0.3-1.7,1-2.3c0.3-0.3,0.7-0.6,1-0.9
	c0.8-0.7,1.2-1.7,1.2-2.8c-0.1-3.6-0.5-11.9-0.5-11.9s-11.6-12.8-14.2-15.7c-0.3-0.4-0.5-0.8-0.4-1.3c0.1-1.3,0.4-4.1,0.7-5.9
	c0.1-1.1-0.6-2-1.7-2.2c-1-0.2-2.2-0.4-3.1-0.6c-1.1-0.2-2-1.2-2-2.3c0-2.2-0.1-5.8-0.2-7.7c0-0.7-0.6-1.2-1.2-1.2c0,0,0,0,0,0
	c-1,0-1.9-0.8-1.9-1.8c0-0.6-0.1-1.3-0.1-1.8c0-0.5-0.4-0.9-0.9-1c-0.3,0-0.7-0.1-1.1-0.1c-1-0.1-1.8-0.8-2.1-1.8
	c-0.1-0.4-0.2-0.8-0.3-1.2c-0.4-1.3-1.6-2.2-3-2.2c-2.2,0-5.4,0.1-8.1,0.2c-2.9,0.1-5.7-1.2-7.6-3.5c-0.8-0.9-1.5-1.8-2.2-2.5
	c-0.8-0.9-1.2-2-1.2-3.2c-0.1-1.9-0.2-4.8-0.3-6.6c0-1.2,0.3-2.3,1.1-3.2c0.8-1,1.8-2.2,2.7-3.3c1.1-1.3,2.7-2,4.3-1.9
	c3.3,0.2,8.7,0.4,8.7,0.4s7.2,0.1,11,0.2c1.4,0,2.8,0.7,3.6,1.9c1.6,2.1,4.1,5.6,5.6,7.7c0.8,1.1,2.1,1.7,3.5,1.7
	c0.9,0,2-0.1,2.9-0.1c1.8-0.1,3.4-1.4,3.7-3.2c0.3-1.2,0.5-2.6,0.8-3.8c0.4-1.8-0.1-3.6-1.2-5c-2.6-3.3-7.3-9.2-9.3-11.7
	c-0.5-0.7-0.9-1.5-0.9-2.4c0-1.5,0-3.8-0.1-5.9c0-2.5,1.7-4.7,4.2-5.2c0.8-0.2,1.5-0.3,2.2-0.5c1.9-0.4,3.3-2,3.5-4
	c0.1-1.5,0.2-3.2,0.3-4.6c0.1-1.3,0.7-2.6,1.6-3.5c1.5-1.4,3.8-3.6,5.2-5c0.8-0.8,1.9-1.2,3-1.1c1.3,0.1,3,0.1,4.3,0.2
	c0.9,0,1.8-0.3,2.5-0.9c1.3-1.2,3.6-3.3,5-4.5c0.7-0.6,1.5-0.9,2.5-0.9c2.8,0,8.8,0.1,11,0.2c0.5,0,1,0.2,1.4,0.5
	c0.9,0.7,2.7,2,3.8,2.8c0.5,0.4,1.2,0.6,1.8,0.5c3.1-0.2,12.4-1,16.2-1.3c1.1-0.1,2.1,0.1,3.1,0.6c0.6,0.3,1.3,0.7,2,1.1
	c0.8,0.4,1.7,0.5,2.6,0.2c0.9-0.3,1.5-1,1.9-1.8c0.5-1.1,1-2.3,1.3-3.2c0.4-0.9,0.4-1.9,0-2.9c-0.5-1.2-1.2-3-1.7-4.4
	c-0.5-1.4-0.2-2.9,0.7-4c1.4-1.5,3.3-3.6,4.5-5c0.8-0.8,1.4-1.8,1.9-2.8c0.9-1.8,2.4-4.8,3.1-6c0.2-0.3,0.3-0.7,0.3-1.1
	c0-0.8,0-2.4,0.1-3.6c0-1-0.5-1.9-1.4-2.3c-1.2-0.6-2.7-1.3-3.1-1.6c-0.1,0-0.2-0.1-0.3-0.1c-0.6-0.2-3.3-1.2-5.4-2
	c-0.7-0.2-1.2-0.8-1.4-1.4c-0.2-0.7-0.1-1.4,0.3-2c0.6-0.9,1.3-1.9,1.8-2.7c0.5-0.8,1.4-1.3,2.4-1.4c1.3-0.1,3.1-0.3,4.1-0.4
	c0.5,0,1-0.4,1.2-0.9c0.7-1.5,2.1-4.8,2-6.4C313.5,683.4,312.9,679.9,312.9,679.9z"/>
<path class="st0" d="M155.5,687l-13.2-11.3l-17-6.3l-1.2-5l-11.5-0.9l3.1-3.6l-5.8-3.8l2.8-5.7l4.9-0.8l4,5.1l6,0.1l6.5-5.1
	l-13.8-22.1l-8.3-21.5l-4.8-0.4l-9.6-17.7l-8-5.4l-17.6,0.2l-10.8-5.2l-1.4,10.4l-7.1-4.2l-8.1-17.1l7.2-4.4l-5.4-2.7l1.1-11.1
	l32.4,2.5l66.5,15.3l27.9-5.8l15.9-19.2l46.5-26.9l17.9,2.8l3.5,8.4l31.3,5.5l14.2-38.1l28.5-0.7l8.2-14.2l15.8,7.3l2.7,26.7
	l22.9,8.1l5.6-10.8l13,5.1l-3.1,20.4l4.4,9.5l-1.1,9.8l7.2,11.3l-2.8,56.4l21.4,30.3l35.2,13.5l8.5,23L454,688l-2.9-10l-8.2-8.4
	l-12.1,10.4l-56.4-6.8l-17.4,8.7l-44.1-2c0,0,0.5-5,1-9.2c0.3-3.3-1.2-6.4-4.1-8.1c-0.8-0.5-1.6-0.9-2.3-1.3
	c-1.2-0.7-1.9-1.9-1.9-3.3v-3.7c0-2.6-1.6-5-4.1-5.8c-0.8-0.3-1.7-0.6-2.6-0.9c-2.9-1-6.1-0.4-8.4,1.6c-0.4,0.4-0.9,0.8-1.4,1.2
	c-4.3,3.9-10.4,5-15.8,2.9c-7.6-2.9-18.2-7-23.6-9c-2.3-0.9-4.8-1.5-7.2-1.8c-9.5-1.2-18.9-2.8-28.4,2.9c0,0-2.1,1.6-4.2,3
	c-2.2,1.6-5.1,2-7.7,1.1c-1.2-0.4-2.1-0.8-2.1-0.8s-0.9-0.2-2-0.4c-2.5-0.6-5.1,0-7.1,1.6c-4,3.2-10.8,8.5-14.6,11.5
	c-1.8,1.4-2.8,3.5-2.9,5.7c-0.2,4.6-0.5,12.4-0.6,15c0,0.6-0.2,1.1-0.6,1.5c-0.3,0.3-0.7,0.7-1.1,1.2c-0.6,0.6-1.3,0.9-2.1,0.8
	c-0.8,0-1.5-0.4-2-1.1c0,0,0,0,0,0c-1.4-1.9-4-2.3-6-1.1C158.6,685.1,155.5,687,155.5,687z"/>
<path class="st0" d="M47.4,548.5l-29-11.4L31.3,503l9.7-7.3l3.2-9.8L31.6,474l5.6-37.4l12.5-4.5l7.3-9.1l0.6-4l-4.4-5.1l4.1-3.4
	l-2.1-4.8l11.4-11.4l4.4,0l21.5,26.5l5.4,15.7l4.5,0.1l5.1,4.9l20.8-15.3l-1.5-5.8l-4.4,0l2.2-5.2l-3.8-5.4L118,386l-4.3-3.7
	l1.8-2.1l9.1,4.4l14.2-13.7l13.5-4.2l0-7.6l-3.7-2.3l2.3-7.9l2.9-2.2l14.3,1.3l6.5-7.1l20.8-9.4l0-7.1l5.7-0.1l3.1-3.6l0.5-12.2
	l7.4,1l1.4-10.4l5.2,1.7l0.2,4.7l17.6-0.1l1.7,3.6l3.6-0.1l-0.2,5.5l-6.5,0l2.1,5.5l9.8,0.4l4.4-4.7l2.7,7.2l7-3.3l-1.9-6.6l3.8-6.4
	l11.3,0.7l3.3-5.3l8.2-2.8l9.2,23.3l4-2.5l2.3,2.3l3.9-4.7l2.2,2.2l3.2-1.3l-1,2.3l2.9-1.2l0.9,2.8l0.9-2.6l9.1,0l0-3.8l4.4,4.4
	l5.8,0l1.8,3.4l6.1,0l5.4,15.1l15.4,4.5l5.6,4.4l0.1,7.2l5.9,4l0,3.8l6.5,5.4l1.5,16.8l-7.6,14.1l12.8,24.2l-11.1,17.3l2.7,9.9
	l-11.3,6l-12.2-3.5l-13.5,7.2l-1.8,17.7l-8.2,14.2l-28.5,0.7l-14.2,38.1l-31.3-5.5l-3.5-8.4l-17.9-2.8l-46.5,26.9l-15.9,19.2
	l-27.9,5.8L79.8,551L47.4,548.5z"/>
<path class="st0" d="M911.5,81.4l33.2-11.4l12,0.1l6.8-3l4-0.6l1.7-4.1l20.9-0.8l3.5-8.8l17,2.1l0.1-7.4l3.4-0.6l-6-10.7l20.3,0
	l5.9-14.8l11.4,7.7l0-6.4l-3.7,0.1l-0.1-6.7l10.5,4l2,5.6l6.5-2.9l18.9,1.4l9.7,11.2l11,4.6l9.3-5.5l3.1-5.5l6.8,2.7l8.8-2.6
	l4.5,12.5l5.4,3.6l-3.1,15l5.9,15.4l9.1,2.5l-0.1,5l-3.6-0.2l-2,3.4l3.2,12.3l-1.5,7.9l-9.8-2.2l8.7,19l5.5-6.7l8,1.7l0.4,4.8
	l10.8-0.1l0.9-8.4l8,0.4l6.5,8.5l7.1-7l-5.7-4.6l2-4.6l-6.8-3.2l6.5-10.1l12.6,7.2l-0.2,13.5l6.8,3.2l-1.8,5.2l-6.6,1l3.1,3l-4.1,8
	l6.6,3.4l2.8-6.6l7.7,2.9l2.7-7.4l-4.7-1.7l3.9-4.7l10.5,2l0.1,4.5l3.2,0l0.4,4.6l9,3l2.9-4.1l-0.1-2.8l5.5,3.6l-0.5-8.5l8.3,1.8
	l6.3,1.6l-2.5,14.8l-11.5-1.4l0,5.5l-5.1,1.4l-0.2,7.8l-3.7,1l-0.6,8.7l7.1,3.3l0.4,7l2.4,6.8l-6.3,1.6l-1.2,2.1l2,6.3l8.6-3l6,4.1
	l-9.6,9.5l3.4,15.5l12.6-5.7l7,1.9l-1.9,9l-10.4,1.7l8.9,13.4l-13.1,0l-7.6-9.4l-20.6-1.5l-3.6-23.8l-23.1,5l-4,6.5l-24.7-2.1
	l2.6-21.7l-11.2-12.6l-15.6,7.9l-8.8-9.7l-18.5,0.5l-3.3,12.1l-19.4-12l3.4-8.5l-10.9-0.9l-4.2-14.6l-16.8,5.3l-1.1,11.1l-10.9-12.6
	l-15.9,2.2l-15.5,18.6l17.8,24.9l-8.7,10.3l4.3,10.6l-32,21.5l3.1,8.7l-10.3,13.2l-14.2-16.2l-12.6,3.8l1.6,13.3l-37.1-4.7l-3-8.1
	l-13.1,3.9l-12.8-11.5l2.2-29.8l12.9-7l-0.2-5.9l-13.6,0.6l9.2-14.9l-2.3-8.9l3.7-13.9l-10.2-1.6l-3.2-36.6l6.2-6.8l8-0.1l-0.9-10
	l-9.8-3l5.1-10.8L911.5,81.4z"/>
<path class="st1" d="M1090.3,299.2l4.9-15.2l27.1-21l31.9,10.3l16,0.1L1170,284l5.3,15.3l16.3,16l5.1,15.6l-15.6,0l-5.1,5.2
	l-43.2,26.4l-26.7-5.1l-16.1-10.8L1090.3,299.2z"/>
<path class="st2" d="M994.7,923.3l25.5-29.5l12.9-4.3l29.6,8.2l17,16.9l21.8,13.1l-0.1,13.1l-12.8,4.1l-0.1,12.1l-12.7-3.9l-8.4,4.1
	l-17,17.4l-25.8-0.1l-21.2-29.7l0-8.6L994.7,923.3z"/>
<path class="st2" d="M1385.2,801l-6.2-5.6l12.3-20l21,2l21.5-12.7l19,5.8l-6.4,42.7l6.3,0.3l6,18.2l19,6.5l-12.6,11.9l0.1,36.9
	l-12.5,0.2l-18.5-6.3l-12-12.3l-36.7-18.4L1385.2,801z"/>
</svg>
