<?xml version="1.0" encoding="UTF-8" standalone="no"?>
<!DOCTYPE svg PUBLIC "-//W3C//DTD SVG 1.1//EN" "http://www.w3.org/Graphics/SVG/1.1/DTD/svg11.dtd">
<svg width="100%" height="100%" viewBox="0 0 128 128" version="1.1" xmlns="http://www.w3.org/2000/svg" xmlns:xlink="http://www.w3.org/1999/xlink" xml:space="preserve" xmlns:serif="http://www.serif.com/" style="fill-rule:evenodd;clip-rule:evenodd;stroke-linejoin:round;stroke-miterlimit:2;">
    <path d="M119.722,44.333C119.313,44.333 118.903,44.415 118.493,44.579L83.667,57.444L81.557,56.707C86.33,49.557 90.222,42.121 90.222,36.753C90.222,22.823 78.484,11.556 64,11.556C49.516,11.556 37.778,22.843 37.778,36.753C37.778,39.171 38.597,42.039 39.908,45.071L9.118,55.806C6.639,56.789 5,59.206 5,61.89L5,113.167C5,115.051 6.536,116.444 8.278,116.444C8.688,116.444 9.097,116.362 9.507,116.199L44.333,103.333L79.569,115.768C82.233,116.649 85.101,116.67 87.764,115.809L118.882,104.972C121.382,103.968 123,101.572 123,98.888L123,47.611C123,45.726 121.464,44.333 119.722,44.333ZM41.056,97.556L11.535,108.455L11.269,61.972L41.056,51.626L41.056,97.556ZM64,18.111C74.837,18.111 83.667,26.469 83.667,36.753C83.667,42.285 75.861,54.966 64,68.876C52.139,54.966 44.333,42.285 44.333,36.753C44.333,26.469 53.163,18.111 64,18.111ZM80.389,109.11L47.611,97.536L47.611,58.428C52.61,65.659 58.284,72.358 61.48,75.984C62.136,76.742 63.078,77.111 64,77.111C64.922,77.111 65.844,76.742 66.52,75.984C69.142,73.014 73.424,67.974 77.644,62.279L80.389,63.242L80.389,109.11ZM86.944,109.151L86.944,63.222L116.465,52.323L116.731,98.806L86.944,109.151ZM68.917,37.778C68.917,35.053 66.704,32.861 64,32.861C61.296,32.861 59.083,35.053 59.083,37.778C59.083,40.482 61.296,42.694 64,42.694C66.704,42.694 68.917,40.502 68.917,37.778Z" style="fill-rule:nonzero;"/>
</svg>
