<?xml version="1.0" encoding="UTF-8" standalone="no"?>
<!DOCTYPE svg PUBLIC "-//W3C//DTD SVG 1.1//EN" "http://www.w3.org/Graphics/SVG/1.1/DTD/svg11.dtd">
<svg width="100%" height="100%" viewBox="0 0 128 128" version="1.1" xmlns="http://www.w3.org/2000/svg" xmlns:xlink="http://www.w3.org/1999/xlink" xml:space="preserve" xmlns:serif="http://www.serif.com/" style="fill-rule:evenodd;clip-rule:evenodd;stroke-linejoin:round;stroke-miterlimit:2;">
    <g transform="matrix(0.230424,0,0,0.230424,19.7586,5.02304)">
        <path d="M369.9,97.9L286,14C277.019,4.997 264.817,-0.078 252.1,-0.1L48,-0.1C21.663,-0.013 0.033,21.663 0,48L0,464C0,490.332 21.668,512 48,512L336,512C362.332,512 384,490.332 384,464L384,131.9C383.98,119.153 378.906,106.92 369.9,97.9ZM347.3,120.6C349.353,122.634 350.806,125.195 351.5,128L256,128L256,32.5C258.805,33.194 261.366,34.647 263.4,36.7L347.3,120.6ZM336,480L48,480C39.223,480 32,472.777 32,464L32,48C32,39.223 39.223,32 48,32L224,32L224,136C224,136.02 224,136.04 224,136.06C224,149.193 234.807,160 247.94,160C247.96,160 247.98,160 248,160L352,160L352,464C352,472.777 344.777,480 336,480ZM288,300L288,308C288,314.583 282.583,320 276,320L208,320L208,388C208,394.583 202.583,400 196,400L188,400C181.417,400 176,394.583 176,388L176,320L108,320C101.417,320 96,314.583 96,308L96,300C96,293.417 101.417,288 108,288L176,288L176,220C176,213.417 181.417,208 188,208L196,208C202.583,208 208,213.417 208,220L208,288L276,288C282.583,288 288,293.417 288,300Z" style="fill-rule:nonzero;"/>
    </g>
</svg>
