<?xml version="1.0" encoding="UTF-8" standalone="no"?>
<!DOCTYPE svg PUBLIC "-//W3C//DTD SVG 1.1//EN" "http://www.w3.org/Graphics/SVG/1.1/DTD/svg11.dtd">
<svg width="100%" height="100%" viewBox="0 0 128 128" version="1.1" xmlns="http://www.w3.org/2000/svg" xmlns:xlink="http://www.w3.org/1999/xlink" xml:space="preserve" xmlns:serif="http://www.serif.com/" style="fill-rule:evenodd;clip-rule:evenodd;stroke-linejoin:round;stroke-miterlimit:2;">
    <path d="M120.145,5L117.766,5C116.19,5 114.911,6.278 114.911,7.855L114.911,34.173C104.635,16.668 85.592,4.932 63.811,5C31.364,5.102 4.949,31.647 5,64.094C5.051,96.636 31.447,123 64,123C79.208,123 93.072,117.246 103.534,107.796C104.751,106.697 104.808,104.808 103.649,103.649L101.967,101.967C100.896,100.896 99.172,100.846 98.046,101.859C89.032,109.972 77.1,114.911 64,114.911C35.988,114.911 13.089,92.232 13.089,64C13.089,35.988 35.768,13.089 64,13.089C83.713,13.089 100.812,24.289 109.27,40.686L82.081,40.686C80.504,40.686 79.226,41.964 79.226,43.54L79.226,45.919C79.226,47.496 80.504,48.774 82.081,48.774L120.145,48.774C121.722,48.774 123,47.496 123,45.919L123,7.855C123,6.278 121.722,5 120.145,5Z" style="fill-rule:nonzero;"/>
</svg>
