<?xml version="1.0" encoding="UTF-8" standalone="no"?>
<!DOCTYPE svg PUBLIC "-//W3C//DTD SVG 1.1//EN" "http://www.w3.org/Graphics/SVG/1.1/DTD/svg11.dtd">
<svg width="100%" height="100%" viewBox="0 0 128 128" version="1.1" xmlns="http://www.w3.org/2000/svg" xmlns:xlink="http://www.w3.org/1999/xlink" xml:space="preserve" xmlns:serif="http://www.serif.com/" style="fill-rule:evenodd;clip-rule:evenodd;stroke-linejoin:round;stroke-miterlimit:2;">
    <path d="M41.752,62.755C42.42,60.359 43.25,58.055 44.264,55.843C36.521,53.654 30.808,46.603 30.808,38.17C30.808,28.008 39.08,19.736 49.241,19.736C57.675,19.736 64.702,25.45 66.914,33.192C69.126,32.179 71.431,31.326 73.827,30.68C70.601,20.127 60.877,12.385 49.264,12.385C35,12.385 23.456,23.929 23.456,38.192C23.456,49.806 31.199,59.53 41.752,62.755ZM16.083,108.241C14.055,108.241 12.396,106.582 12.396,104.555L12.396,94.232C12.396,90.406 13.525,86.697 15.645,83.54C18.825,78.816 24.494,75.981 30.784,75.981C34.079,75.981 35.115,76.535 40.162,77.641C40.116,76.765 39.84,74.553 40.301,70.129C36.544,69.139 34.217,68.608 30.784,68.608C22.419,68.608 14.286,72.341 9.515,79.416C6.658,83.655 5,88.748 5,94.232L5,104.555C5,110.661 9.954,115.615 16.06,115.615L64.219,115.615C60.532,113.633 57.167,111.122 54.196,108.241L16.083,108.241ZM86.132,60.198C77.928,60.198 71.27,66.881 71.27,75.06C71.27,83.24 77.928,89.923 86.132,89.923C94.335,89.923 100.994,83.24 100.994,75.06C100.994,66.881 94.335,60.198 86.132,60.198ZM86.132,82.549C82.008,82.549 78.643,79.185 78.643,75.06C78.643,70.936 82.008,67.572 86.132,67.572C90.256,67.572 93.62,70.936 93.62,75.06C93.62,79.185 90.256,82.549 86.132,82.549ZM120.304,80.199L116.502,78.01C116.686,76.051 116.686,74.069 116.502,72.111L120.327,69.921C122.516,68.654 123.507,66.073 122.746,63.7C121.088,58.309 118.161,53.24 114.29,49.069C112.584,47.202 109.842,46.787 107.654,48.054L103.851,50.244C102.239,49.092 100.533,48.101 98.736,47.294L98.736,42.917C98.736,40.382 97.007,38.239 94.543,37.685C89.035,36.442 83.182,36.442 77.652,37.685C75.186,38.239 73.458,40.405 73.458,42.917L73.458,47.294C71.661,48.101 69.932,49.092 68.343,50.244L64.541,48.054C62.351,46.787 59.633,47.202 57.927,49.069C54.057,53.24 51.154,58.309 49.471,63.678C48.71,66.073 49.748,68.7 51.913,69.945L55.715,72.133C55.532,74.093 55.532,76.074 55.715,78.032L51.891,80.222C49.748,81.467 48.71,84.116 49.471,86.467C51.154,91.858 54.057,96.927 57.927,101.098C59.633,102.941 62.351,103.356 64.564,102.113L68.367,99.923C69.979,101.075 71.685,102.066 73.482,102.873L73.482,107.25C73.482,109.785 75.21,111.928 77.675,112.481C80.44,113.103 83.275,113.403 86.108,113.403C88.943,113.403 91.801,113.103 94.543,112.481C97.007,111.928 98.736,109.762 98.736,107.25L98.736,102.873C100.533,102.066 102.239,101.075 103.851,99.923L107.654,102.113C109.82,103.356 112.562,102.941 114.266,101.098C118.138,96.927 121.041,91.858 122.724,86.489C123.507,84.092 122.47,81.443 120.304,80.199ZM108.414,81.858L115.189,85.775C113.967,89.07 112.193,92.181 109.935,94.877L103.16,90.96C98.23,95.176 97.515,95.591 91.386,97.757L91.386,105.592C87.907,106.191 84.335,106.191 80.878,105.592L80.878,97.757C74.679,95.568 73.919,95.062 69.104,90.96L62.329,94.877C60.071,92.158 58.273,89.07 57.075,85.775L63.85,81.858C62.72,75.683 62.651,74.807 63.85,68.263L57.075,64.346C58.273,61.051 60.071,57.962 62.329,55.244L69.104,59.161C74.034,54.944 74.749,54.529 80.878,52.363L80.878,44.529C84.357,43.953 87.952,43.953 91.386,44.529L91.386,52.363C97.561,54.553 98.345,55.037 103.16,59.161L109.935,55.244C112.193,57.962 113.99,61.051 115.189,64.346L108.414,68.263C109.542,74.438 109.612,75.314 108.414,81.858Z" style="fill-rule:nonzero;"/>
</svg>
