<?xml version="1.0" encoding="utf-8"?>
<svg version="1.1" xmlns:xlink="http://www.w3.org/1999/xlink" width="16px" height="16px" xmlns="http://www.w3.org/2000/svg">
	<g transform="matrix(1 0 0 1 -10 -10 )">
		<path d="M 15.2734230625 14.6223820375  C 15.408816550000001 14.48698855  15.408816550000001 14.2680544  15.2734230625 14.132660912499999  L 11.776238087500001 10.635475937499999  C 11.7099817 10.56921955  11.623560325 10.534651  11.531377525 10.534651  L 11.151123474999999 10.534651  C 12.0585479125 9.4831909375  12.608763999999999 8.1148525  12.608763999999999 6.6168819999999995  C 12.608763999999999 3.3069433375  9.926820662499999 0.625  6.6168819999999995 0.625  C 3.3069433375 0.625  0.625 3.3069433375  0.625 6.6168819999999995  C 0.625 9.926820662499999  3.3069433375 12.608763999999999  6.6168819999999995 12.608763999999999  C 8.1148525 12.608763999999999  9.4831909375 12.0585479125  10.534651 11.151123474999999  L 10.534651 11.531377525  C 10.534651 11.623560325  10.5721002625 11.7099817  10.635475937499999 11.776238087500001  L 14.132660912499999 15.2734230625  C 14.2680544 15.408816550000001  14.48698855 15.408816550000001  14.6223820375 15.2734230625  L 15.2734230625 14.6223820375  Z M 11.226022 6.6168819999999995  C 11.226022 9.163431849999998  9.163431849999998 11.226022  6.6168819999999995 11.226022  C 4.07033215 11.226022  2.007742 9.163431849999998  2.007742 6.6168819999999995  C 2.007742 4.07033215  4.07033215 2.007742  6.6168819999999995 2.007742  C 9.163431849999998 2.007742  11.226022 4.07033215  11.226022 6.6168819999999995  Z " fill-rule="nonzero" fill="#262626" stroke="none" transform="matrix(1 0 0 1 10 10 )" />
	</g>
</svg>
