<?xml version="1.0" encoding="UTF-8" standalone="no"?>
<!DOCTYPE svg PUBLIC "-//W3C//DTD SVG 1.1//EN" "http://www.w3.org/Graphics/SVG/1.1/DTD/svg11.dtd">
<svg width="100%" height="100%" viewBox="0 0 128 128" version="1.1" xmlns="http://www.w3.org/2000/svg" xmlns:xlink="http://www.w3.org/1999/xlink" xml:space="preserve" xmlns:serif="http://www.serif.com/" style="fill-rule:evenodd;clip-rule:evenodd;stroke-linejoin:round;stroke-miterlimit:2;">
    <g transform="matrix(0.946506,0,0,0.946506,5,6.88648)">
        <path d="M66.424,117.295C61.733,117.754 56.767,118 51.625,118C23.124,118 0,110.427 0,101.143L0,77.438C10.182,84.45 28.124,88.021 46.652,88.56C48.37,100.943 55.914,111.475 66.424,117.295ZM46.338,81.037C20.319,80.17 0,72.971 0,64.268L0,40.563C11.091,48.201 31.392,51.757 51.625,51.757C55.324,51.757 59.025,51.638 62.669,51.397C53.291,58.085 46.995,68.818 46.338,81.037Z" style="fill-rule:nonzero;"/>
        <path d="M123.777,92.986L117.515,89.37C118.147,85.959 118.147,82.46 117.515,79.049L123.777,75.433C124.498,75.021 124.821,74.169 124.586,73.375C122.954,68.141 120.176,63.408 116.545,59.468C115.986,58.865 115.074,58.718 114.369,59.13L108.106,62.746C105.475,60.482 102.446,58.733 99.168,57.586L99.168,50.368C99.168,49.545 98.595,48.824 97.786,48.648C92.391,47.442 86.863,47.501 81.733,48.648C80.924,48.824 80.351,49.545 80.351,50.368L80.351,57.601C77.087,58.762 74.059,60.512 71.412,62.761L65.165,59.144C64.444,58.733 63.547,58.865 62.989,59.482C59.358,63.408 56.579,68.141 54.947,73.39C54.697,74.183 55.036,75.036 55.756,75.448L62.019,79.064C61.386,82.475 61.386,85.974 62.019,89.384L55.756,93.001C55.036,93.412 54.712,94.265 54.947,95.059C56.579,100.292 59.358,105.026 62.989,108.966C63.547,109.569 64.459,109.716 65.165,109.304L71.427,105.688C74.059,107.952 77.087,109.701 80.365,110.848L80.365,118.081C80.365,118.904 80.939,119.624 81.747,119.801C87.143,121.006 92.67,120.947 97.801,119.801C98.609,119.624 99.183,118.904 99.183,118.081L99.183,110.848C102.446,109.686 105.475,107.937 108.121,105.688L114.383,109.304C115.104,109.716 116.001,109.583 116.559,108.966C120.19,105.041 122.969,100.307 124.601,95.059C124.821,94.25 124.498,93.398 123.777,92.986ZM89.759,95.97C83.276,95.97 77.999,90.693 77.999,84.21C77.999,77.726 83.276,72.449 89.759,72.449C96.242,72.449 101.52,77.726 101.52,84.21C101.52,90.693 96.242,95.97 89.759,95.97ZM103.25,16.857L103.25,27.393C103.25,36.677 80.126,44.25 51.625,44.25C23.124,44.25 0,36.677 0,27.393L0,16.857C0,7.573 23.124,0 51.625,0C80.126,0 103.25,7.573 103.25,16.857Z" style="fill-opacity:0.4;fill-rule:nonzero;"/>
    </g>
</svg>
