<?xml version="1.0" encoding="UTF-8" standalone="no"?>
<!DOCTYPE svg PUBLIC "-//W3C//DTD SVG 1.1//EN" "http://www.w3.org/Graphics/SVG/1.1/DTD/svg11.dtd">
<svg width="100%" height="100%" viewBox="0 0 128 128" version="1.1" xmlns="http://www.w3.org/2000/svg" xmlns:xlink="http://www.w3.org/1999/xlink" xml:space="preserve" xmlns:serif="http://www.serif.com/" style="fill-rule:evenodd;clip-rule:evenodd;stroke-linejoin:round;stroke-miterlimit:2;">
    <path d="M121.156,93.5L49.25,93.5L49.25,84.281C49.25,81.216 46.784,78.75 43.719,78.75L32.656,78.75C29.591,78.75 27.125,81.216 27.125,84.281L27.125,93.5L6.844,93.5C5.83,93.5 5,94.33 5,95.344L5,99.031C5,100.045 5.83,100.875 6.844,100.875L27.125,100.875L27.125,110.094C27.125,113.159 29.591,115.625 32.656,115.625L43.719,115.625C46.784,115.625 49.25,113.159 49.25,110.094L49.25,100.875L121.156,100.875C122.17,100.875 123,100.045 123,99.031L123,95.344C123,94.33 122.17,93.5 121.156,93.5ZM41.875,108.25L34.5,108.25L34.5,86.125L41.875,86.125L41.875,108.25ZM121.156,27.125L64,27.125L64,17.906C64,14.841 61.534,12.375 58.469,12.375L47.406,12.375C44.341,12.375 41.875,14.841 41.875,17.906L41.875,27.125L6.844,27.125C5.83,27.125 5,27.955 5,28.969L5,32.656C5,33.67 5.83,34.5 6.844,34.5L41.875,34.5L41.875,43.719C41.875,46.784 44.341,49.25 47.406,49.25L58.469,49.25C61.534,49.25 64,46.784 64,43.719L64,34.5L121.156,34.5C122.17,34.5 123,33.67 123,32.656L123,28.969C123,27.955 122.17,27.125 121.156,27.125ZM56.625,41.875L49.25,41.875L49.25,19.75L56.625,19.75L56.625,41.875ZM121.156,60.313L100.875,60.313L100.875,51.094C100.875,48.029 98.409,45.563 95.344,45.563L84.281,45.563C81.216,45.563 78.75,48.029 78.75,51.094L78.75,60.313L6.844,60.313C5.83,60.313 5,61.142 5,62.156L5,65.844C5,66.858 5.83,67.688 6.844,67.688L78.75,67.688L78.75,76.906C78.75,79.971 81.216,82.438 84.281,82.438L95.344,82.438C98.409,82.438 100.875,79.971 100.875,76.906L100.875,67.688L121.156,67.688C122.17,67.688 123,66.858 123,65.844L123,62.156C123,61.142 122.17,60.313 121.156,60.313ZM93.5,75.063L86.125,75.063L86.125,52.938L93.5,52.938L93.5,75.063Z" style="fill-rule:nonzero;"/>
</svg>
