<?xml version="1.0" encoding="UTF-8" standalone="no"?>
<!DOCTYPE svg PUBLIC "-//W3C//DTD SVG 1.1//EN" "http://www.w3.org/Graphics/SVG/1.1/DTD/svg11.dtd">
<svg width="100%" height="100%" viewBox="0 0 128 128" version="1.1" xmlns="http://www.w3.org/2000/svg" xmlns:xlink="http://www.w3.org/1999/xlink" xml:space="preserve" xmlns:serif="http://www.serif.com/" style="fill-rule:evenodd;clip-rule:evenodd;stroke-linejoin:round;stroke-miterlimit:2;">
    <g transform="matrix(0.237889,0,0,0.237889,1.20078,3.10086)">
        <path d="M376,288L264,288C259.611,288 256,291.611 256,296L256,312C256,316.389 259.611,320 264,320L376,320C380.389,320 384,316.389 384,312L384,296C384,291.611 380.389,288 376,288ZM312,384L264,384C259.611,384 256,387.611 256,392L256,408C256,412.389 259.611,416 264,416L312,416C316.389,416 320,412.389 320,408L320,392C320,387.611 316.389,384 312,384ZM504,96L264,96C259.611,96 256,99.611 256,104L256,120C256,124.389 259.611,128 264,128L504,128C508.389,128 512,124.389 512,120L512,104C512,99.611 508.389,96 504,96ZM440,192L264,192C259.611,192 256,195.611 256,200L256,216C256,220.389 259.611,224 264,224L440,224C444.389,224 448,220.389 448,216L448,200C448,195.611 444.389,192 440,192ZM198.93,371.56C196.689,369.284 193.624,368.001 190.43,368.001C187.28,368.001 184.254,369.249 182.02,371.47L128.02,424.14L128.02,40C128.02,35.611 124.409,32 120.02,32L104,32C99.611,32 96,35.611 96,40L96,423.92L42.06,371.57C37.41,366.948 29.79,366.948 25.14,371.57L19.5,377.23C17.241,379.481 15.971,382.541 15.971,385.73C15.971,388.919 17.241,391.979 19.5,394.23L103.56,476.53C108.19,481.151 115.8,481.151 120.43,476.53L204.43,394.21C206.716,391.956 208.005,388.876 208.005,385.665C208.005,382.498 206.751,379.457 204.52,377.21L198.93,371.56Z" style="fill-rule:nonzero;"/>
    </g>
</svg>
