<?xml version="1.0" encoding="UTF-8" standalone="no"?>
<!DOCTYPE svg PUBLIC "-//W3C//DTD SVG 1.1//EN" "http://www.w3.org/Graphics/SVG/1.1/DTD/svg11.dtd">
<svg width="100%" height="100%" viewBox="0 0 128 128" version="1.1" xmlns="http://www.w3.org/2000/svg" xmlns:xlink="http://www.w3.org/1999/xlink" xml:space="preserve" xmlns:serif="http://www.serif.com/" style="fill-rule:evenodd;clip-rule:evenodd;stroke-linejoin:round;stroke-miterlimit:2;">
    <g transform="matrix(0.237901,0,0,0.237901,1.1947,3.09212)">
        <path d="M312,384L264,384C259.611,384 256,387.611 256,392L256,408C256,412.389 259.611,416 264,416L312,416C316.389,416 320,412.389 320,408L320,392C320,387.611 316.389,384 312,384ZM376,288L264,288C259.611,288 256,291.611 256,296L256,312C256,316.389 259.611,320 264,320L376,320C380.389,320 384,316.389 384,312L384,296C384,291.611 380.389,288 376,288ZM504,96L264,96C259.611,96 256,99.611 256,104L256,120C256,124.389 259.611,128 264,128L504,128C508.389,128 512,124.389 512,120L512,104C512,99.611 508.389,96 504,96ZM440,192L264,192C259.611,192 256,195.611 256,200L256,216C256,220.389 259.611,224 264,224L440,224C444.389,224 448,220.389 448,216L448,200C448,195.611 444.389,192 440,192ZM120.44,35.51C115.81,30.889 108.2,30.889 103.57,35.51L19.57,117.83C17.284,120.084 15.995,123.164 15.995,126.375C15.995,129.542 17.249,132.583 19.48,134.83L25.09,140.51C27.331,142.786 30.396,144.069 33.59,144.069C36.74,144.069 39.766,142.821 42,140.6L96,87.86L96,472C96,476.389 99.611,480 104,480L120,480C124.389,480 128,476.389 128,472L128,88.08L181.94,140.43C186.59,145.052 194.21,145.052 198.86,140.43L204.5,134.77C206.759,132.519 208.029,129.459 208.029,126.27C208.029,123.081 206.759,120.021 204.5,117.77L120.44,35.51Z" style="fill-rule:nonzero;"/>
    </g>
</svg>
