<?xml version="1.0" encoding="UTF-8" standalone="no"?>
<!DOCTYPE svg PUBLIC "-//W3C//DTD SVG 1.1//EN" "http://www.w3.org/Graphics/SVG/1.1/DTD/svg11.dtd">
<svg width="100%" height="100%" viewBox="0 0 128 128" version="1.1" xmlns="http://www.w3.org/2000/svg" xmlns:xlink="http://www.w3.org/1999/xlink" xml:space="preserve" xmlns:serif="http://www.serif.com/" style="fill-rule:evenodd;clip-rule:evenodd;stroke-linejoin:round;stroke-miterlimit:2;">
    <path d="M21.389,83.667L8.278,83.667C6.467,83.667 5,85.133 5,86.944L5,113.167C5,114.978 6.467,116.444 8.278,116.444L21.389,116.444C23.2,116.444 24.667,114.978 24.667,113.167L24.667,86.944C24.667,85.133 23.2,83.667 21.389,83.667ZM18.111,109.889L11.556,109.889L11.556,90.222L18.111,90.222L18.111,109.889ZM119.722,50.889L106.611,50.889C104.8,50.889 103.333,52.356 103.333,54.167L103.333,113.167C103.333,114.978 104.8,116.444 106.611,116.444L119.722,116.444C121.533,116.444 123,114.978 123,113.167L123,54.167C123,52.356 121.533,50.889 119.722,50.889ZM116.444,109.889L109.889,109.889L109.889,57.444L116.444,57.444L116.444,109.889ZM107.998,29.723C109.504,30.657 111.264,31.222 113.167,31.222C118.598,31.222 123,26.82 123,21.389C123,15.958 118.598,11.556 113.167,11.556C107.736,11.556 103.333,15.958 103.333,21.389C103.333,22.518 103.563,23.583 103.913,24.593L85.558,39.277C84.052,38.341 82.292,37.776 80.389,37.776C78.486,37.776 76.726,38.341 75.22,39.277L56.865,24.593C57.215,23.585 57.444,22.518 57.444,21.389C57.444,15.958 53.042,11.556 47.611,11.556C42.18,11.556 37.778,15.958 37.778,21.389C37.778,22.905 38.149,24.322 38.761,25.605L19.049,45.317C17.767,44.704 16.349,44.333 14.833,44.333C9.402,44.333 5,48.736 5,54.167C5,59.598 9.402,64 14.833,64C20.264,64 24.667,59.598 24.667,54.167C24.667,52.651 24.296,51.233 23.683,49.951L43.395,30.239C44.678,30.851 46.095,31.222 47.611,31.222C49.514,31.222 51.274,30.657 52.78,29.721L71.135,44.405C70.785,45.415 70.556,46.482 70.556,47.611C70.556,53.042 74.958,57.444 80.389,57.444C85.82,57.444 90.222,53.042 90.222,47.611C90.222,46.482 89.993,45.415 89.642,44.405L107.998,29.723ZM113.167,18.111C114.974,18.111 116.444,19.582 116.444,21.389C116.444,23.196 114.974,24.667 113.167,24.667C111.36,24.667 109.889,23.196 109.889,21.389C109.889,19.582 111.36,18.111 113.167,18.111ZM14.833,57.444C13.026,57.444 11.556,55.974 11.556,54.167C11.556,52.36 13.026,50.889 14.833,50.889C16.64,50.889 18.111,52.36 18.111,54.167C18.111,55.974 16.64,57.444 14.833,57.444ZM47.611,24.667C45.804,24.667 44.333,23.196 44.333,21.389C44.333,19.582 45.804,18.111 47.611,18.111C49.418,18.111 50.889,19.582 50.889,21.389C50.889,23.196 49.418,24.667 47.611,24.667ZM80.389,50.889C78.582,50.889 77.111,49.418 77.111,47.611C77.111,45.804 78.582,44.333 80.389,44.333C82.196,44.333 83.667,45.804 83.667,47.611C83.667,49.418 82.196,50.889 80.389,50.889ZM54.167,50.889L41.056,50.889C39.245,50.889 37.778,52.356 37.778,54.167L37.778,113.167C37.778,114.978 39.245,116.444 41.056,116.444L54.167,116.444C55.978,116.444 57.444,114.978 57.444,113.167L57.444,54.167C57.444,52.356 55.978,50.889 54.167,50.889ZM50.889,109.889L44.333,109.889L44.333,57.444L50.889,57.444L50.889,109.889ZM86.944,77.111L73.833,77.111C72.022,77.111 70.556,78.578 70.556,80.389L70.556,113.167C70.556,114.978 72.022,116.444 73.833,116.444L86.944,116.444C88.755,116.444 90.222,114.978 90.222,113.167L90.222,80.389C90.222,78.578 88.755,77.111 86.944,77.111ZM83.667,109.889L77.111,109.889L77.111,83.667L83.667,83.667L83.667,109.889Z" style="fill-rule:nonzero;"/>
</svg>
