<?xml version="1.0" encoding="UTF-8" standalone="no"?>
<!DOCTYPE svg PUBLIC "-//W3C//DTD SVG 1.1//EN" "http://www.w3.org/Graphics/SVG/1.1/DTD/svg11.dtd">
<svg width="100%" height="100%" viewBox="0 0 118 35" version="1.1" xmlns="http://www.w3.org/2000/svg" xmlns:xlink="http://www.w3.org/1999/xlink" xml:space="preserve" xmlns:serif="http://www.serif.com/" style="fill-rule:evenodd;clip-rule:evenodd;stroke-linejoin:round;stroke-miterlimit:2;">
    <g transform="matrix(0.112731,0,0,0.112731,48.1778,6.67784)">
        <g transform="matrix(6.25,0,0,6.25,-202.089,196.199)">
            <path d="M0,-30.925l-11.991,-0l0,39.762l-11.501,-0l0,-39.762l-12.553,-0l0,-8.837l37.167,-0l-1.122,8.837Z" style="fill:rgb(104,189,70);fill-rule:nonzero;"/>
        </g>
        <g transform="matrix(6.25,0,0,6.25,-3790.8,-5240.54)">
            <rect x="567.893" y="852.489" width="16.553" height="8.556" style="fill:rgb(104,189,70);"/>
        </g>
        <g transform="matrix(6.25,0,0,6.25,56.6325,69.8625)">
            <path d="M0,8.363c2.727,-1.242 4.835,-2.67 6.354,-4.403c0.295,-1.265 -0.153,-5.945 -4.77,-8.42c3.446,0.87 5.866,4.036 6.369,6.063c0.917,-1.801 1.373,-3.886 1.373,-6.353c0,-10.099 -6.808,-15.179 -19.986,-14.798c-5.723,0.166 -13.046,3.578 -14.12,5.252c0.349,-1.673 3.78,-4.819 7.561,-6.391l-10.961,1.139l-3.389,15.33c17.115,-8.785 24.709,-7.535 27.569,-4.394c0.073,-0.021 3.806,0.282 4.756,1.458c-2.348,-0.532 -3.218,-0.175 -3.707,0.206c0.296,0.733 0.426,1.489 0.426,2.198c0,0.426 -0.022,0.829 -0.059,1.215c0.569,0.143 1.125,0.386 1.519,0.828c0.54,0.605 1.059,2.203 -0.304,3.119c0.56,-0.999 0.159,-2.505 -1.57,-2.121c-0.638,2.756 -2.4,5.89 -23.64,4.532l0,26.227l11.501,0l0,-18.583l4.488,0l9.958,18.583l12.974,0l-12.342,-20.687Z" style="fill:rgb(104,189,70);fill-rule:nonzero;"/>
        </g>
        <g transform="matrix(6.25,0,0,6.25,339.757,200.15)">
            <path d="M0,-32.189l-17.11,0l-0,11.642l14.935,0l-0,8.064l-14.935,0l-0,12.412l18.302,0l0,8.276l-29.803,-0l-0,-48.599l29.803,0l-1.192,8.205Z" style="fill:rgb(104,189,70);fill-rule:nonzero;"/>
        </g>
        <g transform="matrix(6.25,0,0,6.25,619.371,-52.3156)">
            <path d="M0,48.599l-12.553,0l-8.344,-18.514l-8.206,18.514l-12.202,0l13.605,-25.807l-12.553,-22.792l12.482,0l7.013,15.569l7.363,-15.569l12.203,0l-12.833,22.371l14.025,26.228Z" style="fill:rgb(104,189,70);fill-rule:nonzero;"/>
        </g>
        <g transform="matrix(6.25,0,0,6.25,-100.301,34.9344)">
            <path d="M0,3.264c3.594,-2.307 5.378,-3.258 8.442,-5.101c1.407,0.437 1.537,3.609 1.691,5.733c1.568,-0.328 1.647,-4.903 0.821,-6.776c4.6,-1.229 7.885,0.616 7.887,2.533c0.009,7.536 -14.53,7.72 -18.841,3.611" style="fill:white;fill-rule:nonzero;"/>
        </g>
    </g>
</svg>
