<?xml version="1.0" encoding="UTF-8" standalone="no"?>
<!DOCTYPE svg PUBLIC "-//W3C//DTD SVG 1.1//EN" "http://www.w3.org/Graphics/SVG/1.1/DTD/svg11.dtd">
<svg width="100%" height="100%" viewBox="0 0 128 128" version="1.1" xmlns="http://www.w3.org/2000/svg" xmlns:xlink="http://www.w3.org/1999/xlink" xml:space="preserve" xmlns:serif="http://www.serif.com/" style="fill-rule:evenodd;clip-rule:evenodd;stroke-linejoin:round;stroke-miterlimit:2;">
    <g transform="matrix(0.204861,0,0,0.204861,5,11.5556)">
        <g id="GRID">
            <path d="M384,96C472.426,96 544,167.561 544,256C544,344.426 472.439,416 384,416L192,416C103.574,416 32,344.439 32,256C32,167.575 103.561,96 192,96L384,96M384,64L192,64C85.961,64 0,149.961 0,256C0,362.039 85.961,448 192,448L384,448C490.039,448 576,362.039 576,256C576,149.961 490.039,64 384,64ZM384,368C445.856,368 496,317.856 496,256C496,194.144 445.856,144 384,144C322.144,144 272,194.144 272,256C272,284.404 282.574,310.339 299.999,330.082C320.522,353.335 350.548,368 384,368Z" style="fill-rule:nonzero;"/>
        </g>
    </g>
</svg>
