<?xml version="1.0" encoding="UTF-8" standalone="no"?>
<!DOCTYPE svg PUBLIC "-//W3C//DTD SVG 1.1//EN" "http://www.w3.org/Graphics/SVG/1.1/DTD/svg11.dtd">
<svg width="100%" height="100%" viewBox="0 0 128 128" version="1.1" xmlns="http://www.w3.org/2000/svg" xmlns:xlink="http://www.w3.org/1999/xlink" xml:space="preserve" xmlns:serif="http://www.serif.com/" style="fill-rule:evenodd;clip-rule:evenodd;stroke-linejoin:round;stroke-miterlimit:2;">
    <path d="M16.083,108.241C14.055,108.241 12.396,106.582 12.396,104.555L12.396,94.232C12.396,90.406 13.525,86.697 15.645,83.54C18.825,78.816 24.494,75.981 30.784,75.981C34.079,75.981 35.115,76.535 40.162,77.641C40.116,76.765 39.84,74.553 40.301,70.129C36.544,69.139 34.217,68.608 30.784,68.608C22.419,68.608 14.286,72.341 9.515,79.416C6.658,83.655 5,88.748 5,94.232L5,104.555C5,110.661 9.954,115.615 16.06,115.615L64.219,115.615C60.532,113.633 57.167,111.122 54.196,108.241L16.083,108.241ZM72.564,64.548L53.61,64.548C52.631,64.548 51.838,63.754 51.838,62.775L51.838,44.083C51.838,42.51 53.735,41.716 54.855,42.821L61.515,49.39C68.152,42.698 77.351,38.553 87.52,38.553C107.727,38.553 124.112,54.915 124.149,75.113C124.187,95.294 107.728,111.797 87.546,111.811C78.092,111.818 69.472,108.242 62.97,102.367C62.217,101.687 62.187,100.514 62.905,99.797L65.41,97.292C66.079,96.623 67.149,96.604 67.855,97.234C73.076,101.892 79.965,104.722 87.52,104.722C103.848,104.722 117.06,91.507 117.06,75.182C117.06,58.854 103.846,45.642 87.52,45.642C79.32,45.642 71.907,48.976 66.558,54.363L73.809,61.513C74.937,62.626 74.15,64.547 72.564,64.548ZM89.292,52.732C90.272,52.732 91.065,53.525 91.065,54.504L91.065,75.74L101.169,83.089C101.961,83.664 102.136,84.773 101.56,85.565L99.475,88.431C98.899,89.223 97.791,89.398 96.999,88.822L83.975,79.35L83.975,54.504C83.975,53.525 84.769,52.732 85.748,52.732L89.292,52.732ZM41.752,62.755C42.42,60.359 43.25,58.055 44.264,55.843C36.521,53.654 30.808,46.603 30.808,38.17C30.808,28.008 39.08,19.736 49.241,19.736C57.675,19.736 64.702,25.45 66.914,33.192C69.126,32.179 71.431,31.326 73.827,30.68C70.601,20.127 60.877,12.385 49.264,12.385C35,12.385 23.456,23.929 23.456,38.192C23.456,49.806 31.199,59.53 41.752,62.755Z" style="fill-rule:nonzero;"/>
</svg>
