<?xml version="1.0" encoding="utf-8"?>
<svg version="1.1" xmlns:xlink="http://www.w3.org/1999/xlink" width="18px" height="20px" xmlns="http://www.w3.org/2000/svg">
  <g transform="matrix(1 0 0 1 -73 -13 )">
    <path d="M 17.06640625 15.9921875  C 17.06640625 13.32015625  14.89859375 11.15234375  12.2265625 11.15234375  C 11.193125000000002 11.15234375  10.696093750000001 11.72859375  9 11.72859375  C 7.303906250000001 11.72859375  6.810625 11.15234375  5.7734375 11.15234375  C 3.10140625 11.15234375  0.93359375 13.32015625  0.93359375 15.9921875  L 0.93359375 17.4903125  C 0.93359375 18.44453125  1.7078124999999997 19.21875  2.6621875 19  L 15.337968750000002 19  C 16.2921875 19.21875  17.06640625 18.44453125  17.06640625 17.4903125  L 17.06640625 15.9921875  Z M 15.9140625 15.9921875  L 15.9140625 17.4903125  C 15.9140625 17.807187499999998  15.654843749999998 18.06640625  15.337968750000002 18  L 2.6621875 18  C 2.3451562499999996 18.06640625  2.0859375 17.807187499999998  2.0859375 17.4903125  L 2.0859375 15.9921875  C 2.0859375 13.95765625  3.7389062500000003 12.3046875  5.7734375 12.3046875  C 6.479218749999999 12.3046875  7.18140625 12.8809375  9 12.8809375  C 10.815 12.8809375  11.520781249999999 12.3046875  12.2265625 12.3046875  C 14.26109375 12.3046875  15.9140625 13.95765625  15.9140625 15.9921875  Z M 4.390625 5.390625  C 4.390625 7.936562499999999  6.454062500000001 10  9 10  C 11.545937499999999 10  13.609375 7.936562499999999  13.609375 5.390625  C 13.609375 2.8446875  11.545937499999999 0.78125  9 0.78125  C 6.454062500000001 0.78125  4.390625 2.8446875  4.390625 5.390625  Z M 5.54296875 5.390625  C 5.54296875 3.4856249999999998  7.095000000000001 1.93359375  9 1.93359375  C 10.905 1.93359375  12.45703125 3.4856249999999998  12.45703125 5.390625  C 12.45703125 7.295625  10.905 8.84765625  9 8.84765625  C 7.095000000000001 8.84765625  5.54296875 7.295625  5.54296875 5.390625  Z " fill-rule="nonzero" fill="#000000" stroke="none" transform="matrix(1 0 0 1 73 13 )" />
  </g>
</svg>