<?xml version="1.0" encoding="UTF-8" standalone="no"?>
<!DOCTYPE svg PUBLIC "-//W3C//DTD SVG 1.1//EN" "http://www.w3.org/Graphics/SVG/1.1/DTD/svg11.dtd">
<svg width="100%" height="100%" viewBox="0 0 128 128" version="1.1" xmlns="http://www.w3.org/2000/svg" xmlns:xlink="http://www.w3.org/1999/xlink" xml:space="preserve" xmlns:serif="http://www.serif.com/" style="fill-rule:evenodd;clip-rule:evenodd;stroke-linejoin:round;stroke-miterlimit:2;">
    <path d="M100.875,56.625C111.062,56.625 119.313,48.374 119.313,38.188C119.313,28.001 111.062,19.75 100.875,19.75C90.688,19.75 82.438,28.001 82.438,38.188C82.438,48.374 90.688,56.625 100.875,56.625ZM100.875,27.125C106.982,27.125 111.938,32.08 111.938,38.188C111.938,44.295 106.982,49.25 100.875,49.25C94.768,49.25 89.813,44.295 89.813,38.188C89.813,32.08 94.768,27.125 100.875,27.125ZM49.25,64C63.516,64 75.063,52.454 75.063,38.188C75.063,23.921 63.516,12.375 49.25,12.375C34.984,12.375 23.437,23.921 23.437,38.188C23.437,52.454 34.984,64 49.25,64ZM49.25,19.75C59.414,19.75 67.688,28.024 67.688,38.188C67.688,48.351 59.414,56.625 49.25,56.625C39.086,56.625 30.812,48.351 30.812,38.188C30.812,28.024 39.086,19.75 49.25,19.75ZM105.484,64L96.266,64C92.763,64 89.513,65.106 86.793,66.973C88.96,68.448 90.919,70.177 92.647,72.136C93.777,71.652 94.998,71.375 96.266,71.375L105.484,71.375C111.062,71.375 115.625,76.33 115.625,82.438C115.625,84.466 117.284,86.125 119.313,86.125C121.341,86.125 123,84.466 123,82.438C123,72.274 115.141,64 105.484,64ZM67.711,68.609C60.013,68.609 58.1,71.375 49.25,71.375C40.4,71.375 38.487,68.609 30.789,68.609C22.423,68.609 14.288,72.343 9.517,79.418C6.659,83.659 5,88.752 5,94.238L5,104.563C5,110.67 9.955,115.625 16.062,115.625L82.438,115.625C88.545,115.625 93.5,110.67 93.5,104.563L93.5,94.238C93.5,88.752 91.841,83.659 88.983,79.418C84.212,72.343 76.077,68.609 67.711,68.609ZM86.125,104.563C86.125,106.591 84.466,108.25 82.438,108.25L16.062,108.25C14.034,108.25 12.375,106.591 12.375,104.563L12.375,94.238C12.375,90.412 13.504,86.701 15.625,83.544C18.805,78.819 24.475,75.984 30.766,75.984C37.081,75.984 39.34,78.75 49.25,78.75C59.16,78.75 61.419,75.984 67.711,75.984C74.002,75.984 79.672,78.819 82.852,83.544C84.973,86.701 86.102,90.412 86.102,94.238L86.102,104.563L86.125,104.563Z" style="fill-rule:nonzero;"/>
</svg>
